<svg width="512" height="512" viewBox="0 0 512 512" fill="none" xmlns="http://www.w3.org/2000/svg">
<g id="BBPS 1" clip-path="url(#clip0)">
<g id="BBPS">
<g id="Group 7">
<g id="Group 8">
<path id="Rectangle 11" d="M424 160H318V198H424V160Z" fill="#FCC400"/>
<path id="Rectangle 12" d="M408 200H302V238H408V200Z" fill="#FCC400"/>
<path id="Rectangle 13" d="M466 238H343V276H466V238Z" fill="#FCC400"/>
<path id="Rectangle 14" d="M425 278H302V316H425V278Z" fill="#FCC400"/>
<path id="Rectangle 15" d="M413 318H290V356H413V318Z" fill="#FCC400"/>
<path id="Rectangle 16" d="M424 356H301V394H424V356Z" fill="#FCC400"/>
<path id="Rectangle 17" d="M412 394H289V432H412V394Z" fill="#FCC400"/>
<path id="Rectangle 18" d="M412 438H289V476H412V438Z" fill="#FCC400"/>
</g>
<path id="Polygon 2" d="M112 13L147.507 48.25H76.493L112 13Z" fill="white"/>
<path id="Polygon 3" d="M180 13L215.507 48.25H144.493L180 13Z" fill="white"/>
<path id="Polygon 4" d="M248 13L283.507 48.25H212.493L248 13Z" fill="white"/>
<path id="Polygon 5" d="M278 46L313.25 10.493V81.507L278 46Z" fill="white"/>
<path id="Polygon 2 2" d="M248.114 501.031L213.282 465.113L284.284 466.462L248.114 501.031Z" fill="white"/>
<path id="Polygon 3 2" d="M180.126 500.74L145.294 464.822L216.296 466.17L180.126 500.74Z" fill="white"/>
<path id="Polygon 4 2" d="M112.138 499.449L77.3066 463.531L148.308 464.879L112.138 499.449Z" fill="white"/>
<path id="Polygon 5 2" d="M82.7701 465.885L46.8522 500.716L48.2006 429.715L82.7701 465.885Z" fill="white"/>
<path id="Polygon 7" d="M276.792 466.569L312.71 431.738L311.361 502.739L276.792 466.569Z" fill="white"/>
<path id="Polygon 6" d="M84 49L48.75 84.507V13.493L84 49Z" fill="white"/>
<path id="Rectangle 10" d="M312 46H49V466H312V46Z" fill="white"/>
<path id="Ellipse 2" d="M261.5 452C300.436 452 332 420.436 332 381.5C332 342.564 300.436 311 261.5 311C222.564 311 191 342.564 191 381.5C191 420.436 222.564 452 261.5 452Z" fill="#28A745"/>
</g>
<g id="Group">
<path id="Vector" d="M453.657 233.05H420.01C420.424 231.449 420.668 229.78 420.668 228.051V213.752C420.668 211.678 420.35 209.676 419.761 207.793C427.811 205.206 433.656 197.653 433.656 188.755V174.457C433.656 163.43 424.684 154.458 413.657 154.458H383.47C379.327 154.458 375.97 157.815 375.97 161.958C375.97 166.101 379.327 169.458 383.47 169.458H413.657C416.414 169.458 418.656 171.7 418.656 174.457V188.755C418.656 191.512 416.414 193.754 413.657 193.754C402.116 193.754 334.616 193.754 321.04 193.754V169.458H353.483C357.626 169.458 360.983 166.101 360.983 161.958C360.983 157.815 357.626 154.458 353.483 154.458H321.04V7.50001C321.04 4.54101 319.3 1.85801 316.599 0.651006C313.898 -0.552994 310.739 -0.0599945 308.535 1.91501L280.074 27.428L251.612 1.91501C248.764 -0.637994 244.449 -0.638994 241.599 1.91601L213.144 27.427L184.687 1.91601C181.837 -0.638994 177.523 -0.638994 174.673 1.91601L146.219 27.427L117.764 1.91601C114.914 -0.638994 110.6 -0.638994 107.75 1.91601L79.3 27.427L50.851 1.91601C48.648 -0.0609944 45.489 -0.553994 42.787 0.651006C40.085 1.85801 38.345 4.54101 38.345 7.50001V83.265C38.345 87.408 41.702 90.765 45.845 90.765C49.988 90.765 53.345 87.408 53.345 83.265V24.299L74.294 43.084C77.144 45.639 81.46 45.639 84.308 43.084L112.758 17.573L141.213 43.084C144.063 45.639 148.377 45.639 151.227 43.084L179.681 17.573L208.138 43.084C210.988 45.639 215.302 45.639 218.152 43.084L246.607 17.572L275.068 43.085C277.916 45.638 282.232 45.638 285.08 43.085L306.041 24.295V309.244C293.728 302.02 279.412 297.857 264.134 297.857C239.07 297.857 216.581 309.028 201.334 326.633H113.337C109.194 326.633 105.837 329.99 105.837 334.133C105.837 338.276 109.194 341.633 113.337 341.633H190.955C185.546 351.662 182.158 362.926 181.291 374.88H113.338C109.195 374.88 105.838 378.237 105.838 382.38C105.838 386.523 109.195 389.88 113.338 389.88H181.52C182.509 399.185 185.049 408.171 189.116 416.692C190.901 420.432 195.381 422.016 199.115 420.23C202.853 418.446 204.437 413.969 202.653 410.231C198.268 401.045 196.046 391.192 196.046 380.946C196.046 343.402 226.591 312.857 264.135 312.857C301.679 312.857 332.224 343.402 332.224 380.946C332.224 418.49 301.679 449.035 264.135 449.035C247.521 449.035 231.513 442.971 219.061 431.958C215.957 429.214 211.218 429.505 208.474 432.607C205.73 435.711 206.021 440.45 209.123 443.194C224.32 456.633 243.857 464.035 264.135 464.035C279.413 464.035 293.729 459.872 306.042 452.648V487.706L285.081 468.916C282.233 466.363 277.917 466.363 275.069 468.916L246.608 494.429L218.153 468.917C215.303 466.362 210.989 466.362 208.139 468.917L179.682 494.428L151.228 468.917C148.378 466.362 144.064 466.362 141.214 468.917L112.759 494.428L84.309 468.917C81.459 466.362 77.145 466.362 74.295 468.917L53.346 487.702V113.252C53.346 109.109 49.989 105.752 45.846 105.752C41.703 105.752 38.346 109.109 38.346 113.252V504.5C38.346 507.459 40.086 510.142 42.788 511.349C45.492 512.554 48.649 512.058 50.852 510.084L79.3 484.573L107.75 510.084C110.6 512.639 114.914 512.639 117.764 510.084L146.219 484.573L174.673 510.084C177.523 512.639 181.837 512.639 184.687 510.084L213.144 484.572L241.599 510.084C244.449 512.639 248.764 512.638 251.612 510.085L280.073 484.572L308.534 510.085C310.737 512.06 313.896 512.554 316.597 511.349C319.299 510.142 321.039 507.459 321.039 504.5V483.824H400.669C411.696 483.824 420.668 474.852 420.668 463.825V449.526C420.668 444.798 419.01 440.455 416.256 437.028C419.01 433.601 420.668 429.257 420.668 424.529V410.23C420.668 408.396 420.399 406.627 419.935 404.939C429.404 403.367 436.655 395.141 436.655 385.233V370.935C436.655 361.027 429.404 352.8 419.934 351.229C420.399 349.54 420.667 347.771 420.667 345.937V331.64C420.667 329.807 420.398 328.039 419.935 326.352C429.415 324.79 436.677 316.56 436.677 306.643V292.344C436.677 290.615 436.433 288.947 436.019 287.346H453.655C464.682 287.346 473.654 278.374 473.654 267.347V253.048C473.656 242.021 464.684 233.05 453.657 233.05ZM400.669 208.754C403.426 208.754 405.668 210.996 405.668 213.752V228.051C405.668 230.808 403.426 233.05 400.669 233.05C384.37 233.05 337.322 233.05 321.039 233.05V208.754H400.669ZM337.955 272.346H321.04V248.05H337.956C337.542 249.651 337.298 251.32 337.298 253.048V267.347C337.297 269.075 337.541 270.745 337.955 272.346ZM405.668 331.64V345.938C405.668 348.695 403.426 350.937 400.669 350.937H341.59C338.109 341.984 333.123 333.784 326.939 326.641H400.669C403.426 326.641 405.668 328.883 405.668 331.64ZM405.668 410.23V424.529C405.668 427.286 403.426 429.528 400.669 429.528H331.474C336.757 422.225 340.892 414.042 343.591 405.232H400.669C403.426 405.232 405.668 407.475 405.668 410.23ZM405.668 463.825C405.668 466.582 403.426 468.824 400.669 468.824H321.039V444.528H400.669C403.426 444.528 405.668 446.77 405.668 449.526V463.825ZM421.656 370.936V385.234C421.656 387.991 419.414 390.233 416.657 390.233C396.415 390.233 369.498 390.233 346.689 390.233C347.03 387.182 347.221 384.087 347.221 380.946C347.221 375.82 346.73 370.809 345.837 365.937H416.656C419.414 365.937 421.656 368.179 421.656 370.936ZM421.678 292.344V306.643C421.678 309.399 419.436 311.641 416.68 311.641C401.866 311.641 332.539 311.641 321.039 311.641V287.346H416.68C419.436 287.346 421.678 289.588 421.678 292.344ZM458.656 267.347C458.656 270.104 456.414 272.346 453.657 272.346C441.771 272.346 367.739 272.346 357.296 272.346C354.54 272.346 352.298 270.104 352.298 267.347V253.048C352.298 250.292 354.54 248.05 357.296 248.05H453.657C456.414 248.05 458.656 250.292 458.656 253.048V267.347Z" fill="url(#paint0_linear)"/>
<path id="Vector 2" d="M188.938 113.555H224.132C228.275 113.555 231.632 110.198 231.632 106.055C231.632 101.912 228.275 98.555 224.132 98.555H188.938C184.795 98.555 181.438 101.912 181.438 106.055C181.438 110.198 184.795 113.555 188.938 113.555Z" fill="url(#paint1_linear)"/>
<path id="Vector 3" d="M188.938 149.851H264.132C268.275 149.851 271.632 146.494 271.632 142.351C271.632 138.208 268.275 134.851 264.132 134.851H188.938C184.795 134.851 181.438 138.208 181.438 142.351C181.438 146.494 184.795 149.851 188.938 149.851Z" fill="url(#paint2_linear)"/>
<path id="Vector 4" d="M105.835 237.639C105.835 241.782 109.192 245.139 113.335 245.139H246.048C250.191 245.139 253.548 241.782 253.548 237.639C253.548 233.496 250.191 230.139 246.048 230.139H113.335C109.193 230.139 105.835 233.496 105.835 237.639Z" fill="url(#paint3_linear)"/>
<path id="Vector 5" d="M246.048 278.386H113.335C109.192 278.386 105.835 281.743 105.835 285.886C105.835 290.029 109.192 293.386 113.335 293.386H246.048C250.191 293.386 253.548 290.029 253.548 285.886C253.548 281.743 250.191 278.386 246.048 278.386Z" fill="url(#paint4_linear)"/>
<path id="&#195;&#162;&#194;&#130;&#194;&#185;" d="M142.203 77.7344H125.609C128.609 81.5312 130.508 86.1719 131.305 91.6562H145.438L142.203 102.766H131.516C130.672 111.109 127.367 117.391 121.602 121.609C115.836 125.828 107.82 127.938 97.5547 127.938L132.219 168.156V169H116.258L78.9922 125.617L78.9219 116.828H96.4297C102.289 116.781 107.047 115.516 110.703 113.031C114.359 110.5 116.68 107.078 117.664 102.766H76.9531L80.1875 91.6562H117.523C115.273 82.75 108.383 78.1094 96.8516 77.7344H77.0938L80.3984 66.625H145.438L142.203 77.7344Z" fill="url(#paint5_linear)"/>
</g>
</g>
<g id="Group 9">
<line id="Line 1" x1="7.5" y1="-7.5" x2="33.9743" y2="-7.5" transform="matrix(0.668061 0.744107 -0.534934 0.844894 224 387.139)" stroke="black" stroke-width="15" stroke-linecap="round"/>
<line id="Line 2" x1="7.5" y1="-7.5" x2="81.0782" y2="-7.5" transform="matrix(0.534934 -0.844894 0.668061 0.744107 251.617 417.839)" stroke="black" stroke-width="15" stroke-linecap="round"/>
</g>
</g>
<defs>
<linearGradient id="paint0_linear" x1="255.999" y1="-0.000244561" x2="255.999" y2="512" gradientUnits="userSpaceOnUse">
<stop stop-color="#760074"/>
<stop offset="1" stop-color="#1B1464"/>
</linearGradient>
<linearGradient id="paint1_linear" x1="206.535" y1="98.555" x2="206.535" y2="113.555" gradientUnits="userSpaceOnUse">
<stop stop-color="#760074"/>
<stop offset="1" stop-color="#1B1464"/>
</linearGradient>
<linearGradient id="paint2_linear" x1="226.535" y1="134.851" x2="226.535" y2="149.851" gradientUnits="userSpaceOnUse">
<stop stop-color="#760074"/>
<stop offset="1" stop-color="#1B1464"/>
</linearGradient>
<linearGradient id="paint3_linear" x1="179.691" y1="230.139" x2="179.691" y2="245.139" gradientUnits="userSpaceOnUse">
<stop stop-color="#760074"/>
<stop offset="1" stop-color="#1B1464"/>
</linearGradient>
<linearGradient id="paint4_linear" x1="179.691" y1="278.386" x2="179.691" y2="293.386" gradientUnits="userSpaceOnUse">
<stop stop-color="#760074"/>
<stop offset="1" stop-color="#1B1464"/>
</linearGradient>
<linearGradient id="paint5_linear" x1="111.5" y1="35" x2="111.5" y2="163" gradientUnits="userSpaceOnUse">
<stop stop-color="#760074"/>
<stop offset="0.0001" stop-color="#760074"/>
<stop offset="1" stop-color="#1B1464"/>
</linearGradient>
<clipPath id="clip0">
<rect width="512" height="512" fill="white"/>
</clipPath>
</defs>
</svg>
