<svg width="64" height="64" viewBox="0 0 64 64" fill="none" xmlns="http://www.w3.org/2000/svg">
<g id="bullseye 1">
<circle id="Ellipse 2" cx="32" cy="32" r="27" fill="white"/>
<g id="BULLSEYE">
<g id="Group">
<path id="Vector" fill-rule="evenodd" clip-rule="evenodd" d="M32 26C28.686 26 26 28.686 26 32C26 35.314 28.686 38 32 38C35.314 38 38 35.314 38 32C38 28.687 35.314 26 32 26ZM32 13C21.507 13 13 21.506 13 32C13 42.493 21.507 51 32 51C42.493 51 51 42.493 51 32C51 21.507 42.493 13 32 13ZM32 45C24.82 45 19 39.179 19 32C19 24.82 24.82 19 32 19C39.18 19 45 24.82 45 32C45 39.18 39.18 45 32 45ZM32 0C14.327 0 0 14.327 0 32C0 49.673 14.327 64 32 64C49.673 64 64 49.673 64 32C64 14.327 49.673 0 32 0ZM32 58C17.641 58 6 46.36 6 32C6 17.641 17.641 6 32 6C46.359 6 58 17.64 58 32C58 46.36 46.36 58 32 58Z" fill="url(#paint0_linear)"/>
</g>
</g>
</g>
<defs>
<linearGradient id="paint0_linear" x1="32" y1="0" x2="32" y2="64" gradientUnits="userSpaceOnUse">
<stop stop-color="#760074"/>
<stop offset="1" stop-color="#1B1464"/>
</linearGradient>
</defs>
</svg>
