<svg width="64" height="64" viewBox="0 0 64 64" fill="none" xmlns="http://www.w3.org/2000/svg">
<g id="Bullet-Circle-Up">
<g id="circle ok 1">
<g id="CIRCLE  x2F  OK 1">
<g id="CIRCLE  x2F  OK">
<g id="Group">
<path id="Vector" d="M31.981 57.5C17.622 57.5 5.98096 45.859 5.98096 31.5C5.98096 17.14 17.622 5.5 31.981 5.5C46.34 5.5 57.981 17.14 57.981 31.5C57.981 45.859 46.34 57.5 31.981 57.5Z" fill="url(#paint0_linear)"/>
<path id="Arrow 1" d="M33.4142 14.5858C32.6332 13.8047 31.3668 13.8047 30.5858 14.5858L17.8579 27.3137C17.0768 28.0948 17.0768 29.3611 17.8579 30.1421C18.6389 30.9232 19.9052 30.9232 20.6863 30.1421L32 18.8284L43.3137 30.1421C44.0948 30.9232 45.3611 30.9232 46.1421 30.1421C46.9232 29.3611 46.9232 28.0948 46.1421 27.3137L33.4142 14.5858ZM34 48V16H30L30 48H34Z" fill="white"/>
</g>
</g>
</g>
</g>
</g>
<defs>
<linearGradient id="paint0_linear" x1="31.9988" y1="0.00244141" x2="31.9988" y2="64.0024" gradientUnits="userSpaceOnUse">
<stop stop-color="#760074"/>
<stop offset="1" stop-color="#1B1464"/>
</linearGradient>
</defs>
</svg>
