<svg width="64" height="64" viewBox="0 0 64 64" fill="none" xmlns="http://www.w3.org/2000/svg">
<g id="tick 1">
<g id="TICK 1">
<g id="TICK">
<g id="Group">
<path id="Vector" d="M50 18C49.172 18 48.422 18.336 47.879 18.879L27 39.757L16.121 28.879C15.578 28.336 14.828 28 14 28C12.343 28 11 29.343 11 31C11 31.828 11.336 32.578 11.879 33.121L24.879 46.121C25.422 46.664 26.172 47 27 47C27.828 47 28.578 46.664 29.121 46.121L52.121 23.121C52.664 22.579 53 21.828 53 21C53 19.343 51.657 18 50 18Z" fill="url(#paint0_linear)"/>
</g>
</g>
</g>
<g id="TICK 2">
<g id="TICK_2">
<g id="Group_2">
<path id="Vector_2" d="M61 18C60.172 18 59.422 18.336 58.879 18.879L38 39.757L27.121 28.879C26.578 28.336 25.828 28 25 28C23.343 28 22 29.343 22 31C22 31.828 22.336 32.578 22.879 33.121L35.879 46.121C36.422 46.664 37.172 47 38 47C38.828 47 39.578 46.664 40.121 46.121L63.121 23.121C63.664 22.579 64 21.828 64 21C64 19.343 62.657 18 61 18Z" fill="url(#paint1_linear)"/>
</g>
</g>
</g>
</g>
<defs>
<linearGradient id="paint0_linear" x1="32" y1="18" x2="32" y2="47" gradientUnits="userSpaceOnUse">
<stop stop-color="#760074"/>
<stop offset="1" stop-color="#1B1464"/>
</linearGradient>
<linearGradient id="paint1_linear" x1="43" y1="18" x2="43" y2="47" gradientUnits="userSpaceOnUse">
<stop stop-color="#760074"/>
<stop offset="1" stop-color="#1B1464"/>
</linearGradient>
</defs>
</svg>
