<svg width="570" height="570" viewBox="0 0 570 570" fill="none" xmlns="http://www.w3.org/2000/svg">
<g id="c-kyc">
<g id="Group">
<path id="Vector" d="M423.611 41.5167C397.344 61.65 362.944 76.9834 329.744 83.2501C321.344 84.8501 313.211 87.1167 311.611 88.3167C308.144 91.1167 307.078 99.2501 305.878 133.65C304.011 189.783 311.478 237.517 326.278 264.05C343.344 294.583 378.944 327.783 419.211 350.583C427.344 355.117 435.478 358.983 437.344 358.983C444.544 358.983 476.011 339.783 498.144 321.917C540.144 288.183 558.811 256.05 566.011 205.383C568.944 185.117 570.011 140.45 568.278 114.317C566.411 86.7167 566.811 87.3834 546.544 83.5167C511.344 76.7167 479.078 62.5834 451.344 41.65C444.811 36.7167 439.344 33.65 437.344 33.65C435.211 33.65 430.011 36.7167 423.611 41.5167ZM448.944 66.1834C471.611 81.7834 500.944 94.7167 529.211 101.517C538.278 103.783 546.144 105.917 546.544 106.45C548.144 108.05 547.344 186.183 545.611 198.983C541.744 226.05 536.811 241.917 527.744 257.117C511.344 284.317 481.344 311.517 444.944 332.183L437.211 336.583L423.211 328.183C375.211 299.25 343.611 263.383 334.678 227.917C328.678 204.05 327.344 189.65 327.344 147.383C327.344 125.25 327.744 106.85 328.144 106.45C328.544 105.917 336.144 103.917 344.811 101.783C373.478 94.7167 399.611 83.3834 423.344 67.7834C430.678 62.9834 437.078 58.9834 437.611 58.9834C438.011 58.9834 443.211 62.1834 448.944 66.1834Z" fill="url(#paint0_linear_1443_10)"/>
<path id="Vector_2" d="M496.011 151.917C494.944 152.317 478.544 167.917 459.744 186.717L425.478 220.85L402.944 198.583C383.611 179.517 379.744 176.317 376.278 176.317C374.011 176.317 371.211 176.717 370.011 177.117C366.944 178.317 363.878 185.117 364.811 188.717C365.211 190.45 378.011 204.317 393.211 219.517C416.411 242.583 421.478 246.983 424.678 246.983C428.011 246.983 434.544 240.983 468.944 206.717C504.944 170.85 509.344 165.917 509.344 162.183C509.344 155.117 502.144 149.65 496.011 151.917Z" fill="url(#paint1_linear_1443_10)"/>
<path id="Vector_3" d="M24.8111 153.117C20.2777 154.583 16.2777 157.25 11.2111 162.183C-0.788927 174.317 0.0110727 160.983 0.0110727 342.983C0.0110727 524.983 -0.788927 511.65 11.2111 523.783C23.4777 535.917 2.01107 534.983 256.011 534.983C510.011 534.983 488.544 535.917 500.811 523.783C512.278 512.317 512.011 514.05 512.011 431.383V360.183L508.678 356.983C504.811 352.983 498.811 352.717 494.544 356.183L491.344 358.717L490.678 431.517L490.011 504.317L485.611 508.583L481.344 512.983H256.011H30.6777L26.4111 508.583L22.0111 504.317V342.983V181.65L26.4111 177.383L30.6777 172.983L154.144 172.317L277.611 171.65L280.144 168.45C283.611 164.183 283.344 158.183 279.344 154.317L276.144 150.983L153.744 151.117C48.9444 151.117 30.4111 151.517 24.8111 153.117Z" fill="url(#paint2_linear_1443_10)"/>
<path id="Vector_4" d="M153.744 227.65C128.811 234.45 109.211 254.45 103.344 279.25C98.2777 300.583 103.344 321.65 117.878 339.383L123.744 346.717L116.144 349.517C105.478 353.383 90.5444 364.317 83.2111 373.383C67.0777 393.517 59.7444 424.317 66.1444 445.65C69.0777 455.517 79.4777 465.917 89.3444 468.85C100.011 472.05 241.344 472.05 252.011 468.85C261.878 465.917 272.278 455.517 275.211 445.65C279.744 430.583 276.944 407.117 268.811 390.317C259.878 371.917 243.478 356.45 225.478 349.517L217.744 346.45L223.611 339.383C246.278 311.383 245.211 273.65 220.678 247.25C204.411 229.65 176.678 221.517 153.744 227.65ZM190.144 251.517C200.411 256.183 209.478 265.25 214.278 275.517C217.478 282.45 218.011 285.383 218.011 294.983C218.011 304.583 217.478 307.517 214.278 314.45C209.478 324.717 200.411 333.783 190.011 338.583C183.211 341.783 180.278 342.317 170.678 342.317C161.078 342.317 158.144 341.783 151.344 338.583C140.944 333.783 131.878 324.717 127.078 314.45C123.878 307.517 123.344 304.583 123.344 294.983C123.344 285.383 123.878 282.45 127.078 275.65C138.544 251.25 166.144 240.583 190.144 251.517ZM208.678 366.317C219.744 369.25 228.811 374.45 237.478 382.983C250.278 395.65 256.811 412.983 255.744 431.25C255.344 439.383 254.811 440.85 250.944 444.717L246.678 448.983H170.678H94.6777L90.4111 444.717C86.5444 440.85 86.0111 439.383 85.6111 431.25C83.8777 400.983 103.211 374.183 132.411 366.317C142.678 363.65 198.011 363.517 208.678 366.317Z" fill="url(#paint3_linear_1443_10)"/>
<path id="Vector_5" d="M323.344 388.983C321.211 390.983 320.011 393.783 320.011 396.317C320.011 398.85 321.211 401.65 323.344 403.65L326.544 406.983H362.677H398.811L402.011 403.65C404.144 401.65 405.344 398.85 405.344 396.317C405.344 393.783 404.144 390.983 402.011 388.983L398.811 385.65H362.677H326.544L323.344 388.983Z" fill="url(#paint4_linear_1443_10)"/>
<path id="Vector_6" d="M323.344 452.983C321.211 454.983 320.011 457.783 320.011 460.317C320.011 462.85 321.211 465.65 323.344 467.65L326.544 470.983H384.011H441.477L444.677 467.65C446.811 465.65 448.011 462.85 448.011 460.317C448.011 457.783 446.811 454.983 444.677 452.983L441.477 449.65H384.011H326.544L323.344 452.983Z" fill="url(#paint5_linear_1443_10)"/>
</g>
</g>
<defs>
<linearGradient id="paint0_linear_1443_10" x1="437.354" y1="33.6501" x2="437.354" y2="358.983" gradientUnits="userSpaceOnUse">
<stop stop-color="#252D78"/>
<stop offset="1" stop-color="#760074"/>
</linearGradient>
<linearGradient id="paint1_linear_1443_10" x1="436.992" y1="151.397" x2="436.992" y2="246.983" gradientUnits="userSpaceOnUse">
<stop stop-color="#252D78"/>
<stop offset="1" stop-color="#760074"/>
</linearGradient>
<linearGradient id="paint2_linear_1443_10" x1="256.006" y1="150.983" x2="256.006" y2="535" gradientUnits="userSpaceOnUse">
<stop stop-color="#252D78"/>
<stop offset="1" stop-color="#760074"/>
</linearGradient>
<linearGradient id="paint3_linear_1443_10" x1="170.608" y1="225.622" x2="170.608" y2="471.25" gradientUnits="userSpaceOnUse">
<stop stop-color="#252D78"/>
<stop offset="1" stop-color="#760074"/>
</linearGradient>
<linearGradient id="paint4_linear_1443_10" x1="362.677" y1="385.65" x2="362.677" y2="406.983" gradientUnits="userSpaceOnUse">
<stop stop-color="#252D78"/>
<stop offset="1" stop-color="#760074"/>
</linearGradient>
<linearGradient id="paint5_linear_1443_10" x1="384.011" y1="449.65" x2="384.011" y2="470.983" gradientUnits="userSpaceOnUse">
<stop stop-color="#252D78"/>
<stop offset="1" stop-color="#760074"/>
</linearGradient>
</defs>
</svg>
