<svg width="512" height="512" viewBox="0 0 512 512" fill="none" xmlns="http://www.w3.org/2000/svg">
<g id="Calander" clip-path="url(#clip0)">
<path id="Vector" d="M453.477 42.994H58.519C47.427 42.994 38.424 51.997 38.424 63.089V477.713C38.424 488.805 47.427 497.808 58.519 497.808H453.477C464.569 497.808 473.572 488.805 473.572 477.713V63.089C473.572 51.997 464.571 42.994 453.477 42.994Z" fill="url(#paint0_linear)"/>
<path id="Vector_2" d="M453.474 497.808H58.524C47.426 497.808 38.429 488.812 38.429 477.713V260.019H473.569V477.713C473.569 488.812 464.572 497.808 453.474 497.808Z" fill="url(#paint1_linear)"/>
<path id="Vector_3" d="M453.474 497.808H58.524C47.426 497.808 38.429 488.812 38.429 477.713V435.514H473.569V477.713C473.569 488.812 464.572 497.808 453.474 497.808Z" fill="url(#paint2_linear)"/>
<path id="Vector_4" d="M491.894 448.911H20.103C7.195 448.911 -2.365 436.915 0.515 424.333L38.429 258.68H473.569L511.483 424.333C514.363 436.915 504.802 448.911 491.894 448.911Z" fill="url(#paint3_linear)"/>
<path id="Vector_5" d="M491.894 448.911H20.103C7.195 448.911 -2.365 436.915 0.515 424.333L38.429 258.68H473.569L511.483 424.333C514.363 436.915 504.802 448.911 491.894 448.911Z" fill="url(#paint4_linear)"/>
<path id="Vector_6" d="M491.894 448.911C504.802 448.911 514.362 436.915 511.482 424.333L473.568 258.68H38.429L228.66 448.911H491.894Z" fill="url(#paint5_linear)"/>
<path id="Vector_7" d="M473.569 448.911H38.429V449.581L86.656 497.808H453.474C464.572 497.808 473.569 488.812 473.569 477.713V448.911V448.911Z" fill="url(#paint6_linear)"/>
<g id="Group">
<path id="Vector_8" d="M152.136 298.536V213.755C152.136 191.422 158.058 175.006 169.908 164.518C181.753 154.029 197.586 148.786 217.396 148.786C237.207 148.786 253.086 154.03 265.031 164.518C276.976 175.007 282.948 191.421 282.948 213.755V298.536C282.948 320.874 276.976 337.285 265.031 347.773C253.085 358.262 237.208 363.505 217.396 363.505C197.585 363.505 181.752 358.261 169.908 347.773C158.059 337.284 152.136 320.873 152.136 298.536ZM183.019 298.536C183.019 323.592 194.477 336.12 217.398 336.12C228.469 336.12 237.014 333.015 243.036 326.796C249.054 320.583 252.067 311.164 252.067 298.536V213.755C252.067 201.132 249.054 191.712 243.036 185.495C237.014 179.282 228.469 176.171 217.398 176.171C194.477 176.171 183.019 188.699 183.019 213.755V298.536Z" fill="white"/>
<path id="Vector_9" d="M301.885 192.779C301.885 187.73 303.923 183.748 308.003 180.833L338.303 151.699C340.437 149.564 343.06 148.494 346.169 148.494C349.666 148.494 352.82 149.419 355.638 151.262C358.452 153.109 359.862 155.586 359.862 158.691V351.56C359.862 354.669 358.305 357.146 355.201 358.989C352.092 360.836 348.5 361.757 344.421 361.757C340.146 361.757 336.504 360.838 333.496 358.989C330.483 357.145 328.98 354.669 328.98 351.56V189.573L318.783 202.392C316.84 204.335 314.704 205.305 312.373 205.305C309.46 205.305 306.983 203.994 304.944 201.372C302.904 198.751 301.885 195.888 301.885 192.779Z" fill="white"/>
</g>
<g id="Group_2">
<path id="Vector_10" d="M252.06 258.679V298.534C252.06 311.167 249.059 320.585 243.031 326.801C237.016 333.018 228.469 336.125 217.403 336.125C194.481 336.125 183.014 323.585 183.014 298.535V258.68H152.135V298.535C152.135 320.881 158.056 337.291 169.912 347.767C181.754 358.257 197.59 363.508 217.403 363.508C237.204 363.508 253.092 358.257 265.028 347.767C276.978 337.291 282.952 320.88 282.952 298.535V258.68L252.06 258.679Z" fill="url(#paint7_linear)"/>
<path id="Vector_11" d="M328.983 258.679V351.558C328.983 354.666 330.484 357.144 333.497 358.993C336.498 360.842 340.141 361.752 344.415 361.752C348.501 361.752 352.092 360.841 355.199 358.993C358.307 357.144 359.861 354.666 359.861 351.558V258.679H328.983Z" fill="url(#paint8_linear)"/>
</g>
<path id="Vector_12" d="M511.485 424.328L473.572 258.679V63.089C473.572 51.997 464.569 42.994 453.477 42.994H443.973C455.065 42.994 464.068 51.997 464.068 63.089V258.679L501.981 424.328C504.861 436.921 495.296 448.91 482.395 448.91H491.899C504.8 448.911 514.365 436.92 511.485 424.328Z" fill="url(#paint9_linear)"/>
<path id="Vector_13" d="M170.864 78.79C167.206 75.361 164.902 70.511 164.902 65.098V42.994H202.412L233.046 73.628C242.81 83.392 248.296 96.636 248.296 110.445C248.296 120.561 240.513 129.261 230.407 129.718C224.647 129.978 219.461 127.627 215.85 123.777L170.864 78.79Z" fill="url(#paint10_linear)"/>
<path id="Vector_14" d="M183.658 83.854C173.3 83.854 164.903 75.457 164.903 65.099V32.947C164.903 22.589 173.3 14.192 183.658 14.192C194.016 14.192 202.413 22.589 202.413 32.947V65.098C202.413 75.457 194.016 83.854 183.658 83.854Z" fill="url(#paint11_linear)"/>
<path id="Vector_15" d="M183.658 14.192V83.854C194.016 83.854 202.413 75.457 202.413 65.099V32.947C202.413 22.589 194.016 14.192 183.658 14.192Z" fill="url(#paint12_linear)"/>
<path id="Vector_16" d="M307.173 78.79C303.515 75.361 301.211 70.511 301.211 65.098V42.994H338.721L369.355 73.628C379.119 83.392 384.605 96.636 384.605 110.445C384.605 120.561 376.822 129.261 366.716 129.718C360.956 129.978 355.77 127.627 352.159 123.777L307.173 78.79Z" fill="url(#paint13_linear)"/>
<path id="Vector_17" d="M319.968 83.854C309.61 83.854 301.213 75.457 301.213 65.099V32.947C301.213 22.589 309.61 14.192 319.968 14.192C330.326 14.192 338.723 22.589 338.723 32.947V65.098C338.723 75.457 330.325 83.854 319.968 83.854Z" fill="url(#paint14_linear)"/>
<path id="Vector_18" d="M319.968 14.192V83.854C330.326 83.854 338.723 75.457 338.723 65.099V32.947C338.723 22.589 330.325 14.192 319.968 14.192Z" fill="url(#paint15_linear)"/>
</g>
<defs>
<linearGradient id="paint0_linear" x1="180.287" y1="102.128" x2="296.226" y2="359.768" gradientUnits="userSpaceOnUse">
<stop stop-color="#760074"/>
<stop offset="1" stop-color="#252D78"/>
</linearGradient>
<linearGradient id="paint1_linear" x1="107.3" y1="212.052" x2="406.072" y2="535.006" gradientUnits="userSpaceOnUse">
<stop stop-color="#C2CECE"/>
<stop offset="1" stop-color="#97AAAA"/>
</linearGradient>
<linearGradient id="paint2_linear" x1="256.007" y1="492.137" x2="256.007" y2="447.57" gradientUnits="userSpaceOnUse">
<stop stop-color="#C2CECE" stop-opacity="0"/>
<stop offset="0.179" stop-color="#AFBCBC" stop-opacity="0.179"/>
<stop offset="1" stop-color="#5B6A6A"/>
</linearGradient>
<linearGradient id="paint3_linear" x1="69.1092" y1="274.716" x2="548.484" y2="490.626" gradientUnits="userSpaceOnUse">
<stop stop-color="#760074"/>
<stop offset="1" stop-color="#252D78"/>
</linearGradient>
<linearGradient id="paint4_linear" x1="256.007" y1="430.599" x2="256.007" y2="457.394" gradientUnits="userSpaceOnUse">
<stop offset="0.0001" stop-color="#252D78" stop-opacity="0"/>
<stop offset="1" stop-color="#760074"/>
</linearGradient>
<linearGradient id="paint5_linear" x1="346.889" y1="349.552" x2="43.1878" y2="45.8522" gradientUnits="userSpaceOnUse">
<stop offset="0.0001" stop-color="#252D78" stop-opacity="0"/>
<stop offset="1" stop-color="#760074"/>
</linearGradient>
<linearGradient id="paint6_linear" x1="224.059" y1="409.692" x2="174.297" y2="348.091" gradientUnits="userSpaceOnUse">
<stop stop-color="#C2CECE" stop-opacity="0"/>
<stop offset="0.179" stop-color="#AFBCBC" stop-opacity="0.179"/>
<stop offset="1" stop-color="#5B6A6A"/>
</linearGradient>
<linearGradient id="paint7_linear" x1="217.55" y1="292.866" x2="217.55" y2="139.976" gradientUnits="userSpaceOnUse">
<stop stop-color="#C2CECE" stop-opacity="0"/>
<stop offset="0.179" stop-color="#AFBCBC" stop-opacity="0.179"/>
<stop offset="1" stop-color="#5B6A6A"/>
</linearGradient>
<linearGradient id="paint8_linear" x1="344.434" y1="292.866" x2="344.434" y2="139.976" gradientUnits="userSpaceOnUse">
<stop stop-color="#C2CECE" stop-opacity="0"/>
<stop offset="0.179" stop-color="#AFBCBC" stop-opacity="0.179"/>
<stop offset="1" stop-color="#5B6A6A"/>
</linearGradient>
<linearGradient id="paint9_linear" x1="474.045" y1="244.692" x2="371.535" y2="271.487" gradientUnits="userSpaceOnUse">
<stop offset="0.0001" stop-color="#252D78" stop-opacity="0"/>
<stop offset="1" stop-color="#760074"/>
</linearGradient>
<linearGradient id="paint10_linear" x1="221.959" y1="96.1982" x2="182.246" y2="56.486" gradientUnits="userSpaceOnUse">
<stop offset="0.0001" stop-color="#760074" stop-opacity="0"/>
<stop offset="1" stop-color="#0046E2"/>
<stop offset="1" stop-color="#252D78"/>
</linearGradient>
<linearGradient id="paint11_linear" x1="183.663" y1="15.1381" x2="183.663" y2="230.144" gradientUnits="userSpaceOnUse">
<stop stop-color="#FFC200"/>
<stop offset="0.268" stop-color="#FFBB00"/>
<stop offset="0.659" stop-color="#FFA801"/>
<stop offset="1" stop-color="#FF9102"/>
</linearGradient>
<linearGradient id="paint12_linear" x1="186.672" y1="49.0069" x2="203.59" y2="49.0069" gradientUnits="userSpaceOnUse">
<stop stop-color="#FFC200" stop-opacity="0"/>
<stop offset="0.203" stop-color="#FFBB00" stop-opacity="0.203"/>
<stop offset="0.499" stop-color="#FFA700" stop-opacity="0.499"/>
<stop offset="0.852" stop-color="#FF8800" stop-opacity="0.852"/>
<stop offset="1" stop-color="#FF7800"/>
</linearGradient>
<linearGradient id="paint13_linear" x1="358.273" y1="96.198" x2="318.56" y2="56.486" gradientUnits="userSpaceOnUse">
<stop offset="0.0001" stop-color="#760074" stop-opacity="0"/>
<stop offset="1" stop-color="#252D78"/>
<stop offset="1" stop-color="#252D78"/>
</linearGradient>
<linearGradient id="paint14_linear" x1="319.978" y1="15.1381" x2="319.978" y2="230.144" gradientUnits="userSpaceOnUse">
<stop stop-color="#FFC200"/>
<stop offset="0.268" stop-color="#FFBB00"/>
<stop offset="0.659" stop-color="#FFA801"/>
<stop offset="1" stop-color="#FF9102"/>
</linearGradient>
<linearGradient id="paint15_linear" x1="322.997" y1="49.0069" x2="339.904" y2="49.0069" gradientUnits="userSpaceOnUse">
<stop stop-color="#FFC200" stop-opacity="0"/>
<stop offset="0.203" stop-color="#FFBB00" stop-opacity="0.203"/>
<stop offset="0.499" stop-color="#FFA700" stop-opacity="0.499"/>
<stop offset="0.852" stop-color="#FF8800" stop-opacity="0.852"/>
<stop offset="1" stop-color="#FF7800"/>
</linearGradient>
<clipPath id="clip0">
<rect width="512" height="512" fill="white"/>
</clipPath>
</defs>
</svg>
