<svg width="512" height="512" viewBox="0 0 512 512" fill="none" xmlns="http://www.w3.org/2000/svg">
<g id="Charges">
<path id="Vector" d="M437.335 74.6649C424.888 62.2183 411.382 51.2206 397.028 41.7318L378.131 74.4629C401.538 90.2615 421.739 110.463 437.537 133.869L470.268 114.972C460.779 100.619 449.782 87.1116 437.335 74.6649Z" fill="url(#paint0_linear)"/>
<path id="Vector_2" d="M352.169 59.4304L371.078 26.6803C340.173 11.1327 306.256 2.01994 271 0V37.659C299.951 39.6279 327.372 47.2497 352.169 59.4304V59.4304Z" fill="url(#paint1_linear)"/>
<path id="Vector_3" d="M159.831 59.4304C184.628 47.2487 212.049 39.6279 241 37.659V0C205.744 2.01994 171.827 11.1327 140.922 26.6803L159.831 59.4304Z" fill="url(#paint2_linear)"/>
<path id="Vector_4" d="M352.169 452.57C327.372 464.751 299.951 472.372 271 474.341V512C306.256 509.98 340.173 500.867 371.078 485.32L352.169 452.57Z" fill="url(#paint3_linear)"/>
<path id="Vector_5" d="M74.4629 133.869C90.2615 110.462 110.463 90.2605 133.87 74.4629L114.973 41.7318C100.619 51.2216 87.1126 62.2193 74.6659 74.6649C62.2193 87.1106 51.2216 100.618 41.7318 114.972L74.4629 133.869Z" fill="url(#paint4_linear)"/>
<path id="Vector_6" d="M256 67.1342C151.859 67.1342 67.1332 151.86 67.1332 256C67.1332 360.14 151.859 444.866 256 444.866C360.141 444.866 444.866 360.14 444.866 256C444.866 151.86 360.141 67.1342 256 67.1342Z" fill="url(#paint5_radial)"/>
<path id="Vector_7" d="M114.972 470.268L133.869 437.537C110.462 421.738 90.2605 401.538 74.4619 378.131L41.7308 397.028C51.2206 411.382 62.2183 424.888 74.6649 437.335C87.1116 449.782 100.618 460.779 114.972 470.268V470.268Z" fill="url(#paint6_linear)"/>
<path id="Vector_8" d="M59.4304 159.831L26.6803 140.922C11.1327 171.828 2.01994 205.744 0 241H37.658C39.6279 212.049 47.2487 184.628 59.4304 159.831Z" fill="url(#paint7_linear)"/>
<path id="Vector_9" d="M452.57 159.831C464.751 184.628 472.372 212.049 474.341 241H512C509.98 205.744 500.867 171.827 485.32 140.922L452.57 159.831Z" fill="url(#paint8_linear)"/>
<path id="Vector_10" d="M437.537 378.131C421.738 401.538 401.537 421.739 378.131 437.537L397.028 470.268C411.382 460.778 424.888 449.781 437.335 437.335C449.782 424.889 460.779 411.382 470.268 397.028L437.537 378.131Z" fill="url(#paint9_linear)"/>
<path id="Vector_11" d="M452.57 352.169L485.32 371.078C500.867 340.173 509.98 306.256 512 271H474.341C472.372 299.951 464.75 327.372 452.57 352.169V352.169Z" fill="url(#paint10_linear)"/>
<path id="Vector_12" d="M159.831 452.57L140.922 485.32C171.827 500.867 205.744 509.98 241 512V474.341C212.049 472.372 184.628 464.751 159.831 452.57V452.57Z" fill="url(#paint11_linear)"/>
<path id="Vector_13" d="M59.4304 352.169C47.2487 327.372 39.6279 299.951 37.659 271H0C2.01994 306.256 11.1327 340.173 26.6803 371.078L59.4304 352.169Z" fill="url(#paint12_linear)"/>
<path id="&#195;&#162;&#194;&#130;&#194;&#185;" d="M326.631 164.393H288.832C295.666 173.071 299.991 183.679 301.807 196.214H334L326.631 221.608H302.287C300.365 240.678 292.837 255.037 279.705 264.678C266.57 274.321 248.311 279.144 224.928 279.144L303.889 371.071V373H267.532L182.645 273.839L182.485 253.75H222.365C235.712 253.642 246.55 250.751 254.878 245.071C263.206 239.286 268.493 231.464 270.734 221.608H178L185.368 196.214H270.413C265.288 175.857 249.593 165.25 223.326 164.393H178.32L185.848 139H334L326.631 164.393Z" fill="white"/>
</g>
<defs>
<linearGradient id="paint0_linear" x1="424.199" y1="41.7318" x2="424.199" y2="133.869" gradientUnits="userSpaceOnUse">
<stop stop-color="#760074"/>
<stop offset="1" stop-color="#1B1464"/>
</linearGradient>
<linearGradient id="paint1_linear" x1="321.039" y1="0" x2="321.039" y2="59.4304" gradientUnits="userSpaceOnUse">
<stop stop-color="#760074"/>
<stop offset="1" stop-color="#1B1464"/>
</linearGradient>
<linearGradient id="paint2_linear" x1="190.961" y1="0" x2="190.961" y2="59.4304" gradientUnits="userSpaceOnUse">
<stop stop-color="#760074"/>
<stop offset="1" stop-color="#1B1464"/>
</linearGradient>
<linearGradient id="paint3_linear" x1="321.039" y1="452.57" x2="321.039" y2="512" gradientUnits="userSpaceOnUse">
<stop stop-color="#760074"/>
<stop offset="1" stop-color="#1B1464"/>
</linearGradient>
<linearGradient id="paint4_linear" x1="87.801" y1="41.7318" x2="87.801" y2="133.869" gradientUnits="userSpaceOnUse">
<stop stop-color="#760074"/>
<stop offset="1" stop-color="#1B1464"/>
</linearGradient>
<radialGradient id="paint5_radial" cx="0" cy="0" r="1" gradientUnits="userSpaceOnUse" gradientTransform="translate(255.999 256) rotate(90) scale(188.866 188.866)">
<stop stop-color="#760074"/>
<stop offset="1" stop-color="#1B1464"/>
</radialGradient>
<linearGradient id="paint6_linear" x1="87.8001" y1="378.131" x2="87.8001" y2="470.268" gradientUnits="userSpaceOnUse">
<stop stop-color="#760074"/>
<stop offset="1" stop-color="#1B1464"/>
</linearGradient>
<linearGradient id="paint7_linear" x1="29.7152" y1="140.922" x2="29.7152" y2="241" gradientUnits="userSpaceOnUse">
<stop stop-color="#760074"/>
<stop offset="1" stop-color="#1B1464"/>
</linearGradient>
<linearGradient id="paint8_linear" x1="482.285" y1="140.922" x2="482.285" y2="241" gradientUnits="userSpaceOnUse">
<stop stop-color="#760074"/>
<stop offset="1" stop-color="#1B1464"/>
</linearGradient>
<linearGradient id="paint9_linear" x1="424.199" y1="378.131" x2="424.199" y2="470.268" gradientUnits="userSpaceOnUse">
<stop stop-color="#760074"/>
<stop offset="1" stop-color="#1B1464"/>
</linearGradient>
<linearGradient id="paint10_linear" x1="482.285" y1="271" x2="482.285" y2="371.078" gradientUnits="userSpaceOnUse">
<stop stop-color="#760074"/>
<stop offset="1" stop-color="#1B1464"/>
</linearGradient>
<linearGradient id="paint11_linear" x1="190.961" y1="452.57" x2="190.961" y2="512" gradientUnits="userSpaceOnUse">
<stop stop-color="#760074"/>
<stop offset="1" stop-color="#1B1464"/>
</linearGradient>
<linearGradient id="paint12_linear" x1="29.7152" y1="271" x2="29.7152" y2="371.078" gradientUnits="userSpaceOnUse">
<stop stop-color="#760074"/>
<stop offset="1" stop-color="#1B1464"/>
</linearGradient>
</defs>
</svg>
