<svg width="512" height="512" viewBox="0 0 512 512" fill="none" xmlns="http://www.w3.org/2000/svg">
<g id="complaint" clip-path="url(#clip0_1201_19)">
<g id="Group">
<path id="Vector" opacity="0.952" fill-rule="evenodd" clip-rule="evenodd" d="M511.5 21.5C511.5 88.8333 511.5 156.167 511.5 223.5C508.399 231.089 502.732 235.589 494.5 237C479.167 237.667 463.833 237.667 448.5 237C440.676 233.839 438.509 228.339 442 220.5C443.214 218.951 444.714 217.785 446.5 217C461.163 216.5 475.83 216.333 490.5 216.5C490.5 153.833 490.5 91.1667 490.5 28.5C333.833 28.5 177.167 28.5 20.5 28.5C20.5 91.1667 20.5 153.833 20.5 216.5C71.1711 216.833 121.838 216.5 172.5 215.5C179.829 199.832 192.162 192.999 209.5 195C221.494 197.662 229.827 204.662 234.5 216C277.833 216.333 321.167 216.667 364.5 217C371.49 222.296 372.157 228.296 366.5 235C364.913 235.862 363.246 236.529 361.5 237C319.835 237.5 278.168 237.667 236.5 237.5C236.334 245.174 236.5 252.841 237 260.5C249.225 256.514 260.391 258.514 270.5 266.5C290.576 253.518 307.91 256.518 322.5 275.5C338.742 269.019 352.575 272.352 364 285.5C365.941 289.048 367.607 292.714 369 296.5C369.667 325.167 369.667 353.833 369 382.5C364.397 413.698 351.731 441.031 331 464.5C330.667 473.167 330.333 481.833 330 490.5C327.737 497.097 323.237 501.264 316.5 503C273.167 503.667 229.833 503.667 186.5 503C178.114 500.614 173.28 495.114 172 486.5C171.667 471.167 171.333 455.833 171 440.5C153.578 415.99 135.911 391.656 118 367.5C106.735 351.765 106.735 336.098 118 320.5C135.357 304.508 152.691 304.508 170 320.5C170.5 292.835 170.667 265.169 170.5 237.5C119.166 237.667 67.8323 237.5 16.5 237C8.26774 235.589 2.60107 231.089 -0.5 223.5C-0.5 156.167 -0.5 88.8333 -0.5 21.5C1.98316 14.8519 6.64983 10.3519 13.5 8C174.833 7.33333 336.167 7.33333 497.5 8C504.35 10.3519 509.017 14.8519 511.5 21.5ZM200.5 215.5C208.598 214.957 213.432 218.624 215 226.5C215.333 257.5 215.667 288.5 216 319.5C221.373 326.198 227.373 326.864 234 321.5C234.862 319.913 235.529 318.246 236 316.5C236.333 306.833 236.667 297.167 237 287.5C240.438 280.2 245.938 278.033 253.5 281C255.333 282.167 256.833 283.667 258 285.5C259.287 296.069 259.954 306.735 260 317.5C263.196 324.344 268.362 326.51 275.5 324C277.378 322.457 278.878 320.624 280 318.5C280.333 308.833 280.667 299.167 281 289.5C284.446 280.192 290.612 277.692 299.5 282C301.617 283.731 303.117 285.898 304 288.5C304.333 298.5 304.667 308.5 305 318.5C309.92 326.064 315.92 327.064 323 321.5C323.667 320.167 324.333 318.833 325 317.5C325.333 312.167 325.667 306.833 326 301.5C330.193 293.275 336.359 291.442 344.5 296C346.049 297.214 347.215 298.714 348 300.5C348.941 329.198 348.607 357.864 347 386.5C341.03 412.778 329.03 435.778 311 455.5C309.619 464.432 309.119 473.432 309.5 482.5C270.5 482.5 231.5 482.5 192.5 482.5C192.667 466.163 192.5 449.83 192 433.5C173.735 406.637 154.735 380.303 135 354.5C127.69 342.43 130.69 334.097 144 329.5C146.584 330.104 149.084 330.937 151.5 332C159.197 340.031 167.197 347.698 175.5 355C181.231 357.521 186.064 356.354 190 351.5C191.323 309.251 191.989 266.917 192 224.5C193.688 220.315 196.521 217.315 200.5 215.5Z" fill="url(#paint0_linear_1201_19)"/>
</g>
<g id="Group_2">
<path id="Vector_2" opacity="0.947" fill-rule="evenodd" clip-rule="evenodd" d="M47.5 73.5002C58.2221 73.1256 68.8888 73.6256 79.5 75.0002C97.1779 82.6767 103.345 95.8434 98 114.5C94.3042 122.362 88.4708 128.029 80.5 131.5C86.4806 138.648 92.6473 145.648 99 152.5C101.75 161.249 98.5837 166.249 89.5 167.5C87.3659 167.485 85.3659 166.985 83.5 166C75.6355 158.47 68.1355 150.636 61 142.5C60.9263 149.606 60.2597 156.606 59 163.5C55.2566 167.259 50.7566 168.426 45.5 167C42.6193 165.749 40.786 163.583 40 160.5C39.3333 134.167 39.3333 107.833 40 81.5002C41.3532 77.6501 43.8532 74.9834 47.5 73.5002ZM60.5 94.5002C60.5 100.167 60.5 105.833 60.5 111.5C64.8461 111.666 69.1794 111.499 73.5 111C80.4455 106.248 80.7788 101.248 74.5 96.0002C69.9342 94.691 65.2675 94.191 60.5 94.5002Z" fill="url(#paint1_linear_1201_19)"/>
</g>
<g id="Group_3">
<path id="Vector_3" opacity="0.942" fill-rule="evenodd" clip-rule="evenodd" d="M122.5 73.4999C133.172 73.3334 143.839 73.5001 154.5 73.9999C160.721 74.7216 164.055 78.2216 164.5 84.4999C164.109 87.7812 162.776 90.6145 160.5 92.9999C151.608 94.4431 142.608 94.9431 133.5 94.4999C133.5 99.8332 133.5 105.167 133.5 110.5C140.841 110.334 148.174 110.5 155.5 111C162.227 115.077 163.727 120.577 160 127.5C158.421 129.041 156.587 130.208 154.5 131C147.508 131.5 140.508 131.666 133.5 131.5C133.5 136.5 133.5 141.5 133.5 146.5C141.507 146.334 149.507 146.5 157.5 147C166.833 153.667 166.833 160.333 157.5 167C144.833 167.667 132.167 167.667 119.5 167C117.376 165.878 115.543 164.378 114 162.5C112.36 135.562 112.026 108.562 113 81.4999C114.593 76.8084 117.76 74.1417 122.5 73.4999Z" fill="url(#paint2_linear_1201_19)"/>
</g>
<g id="Group_4">
<path id="Vector_4" opacity="0.946" fill-rule="evenodd" clip-rule="evenodd" d="M184.5 73.4999C193.839 73.3334 203.173 73.5001 212.5 73.9999C234.736 79.9648 242.903 94.1315 237 116.5C233.833 125 228 130.833 219.5 134C212.279 135.817 204.946 136.651 197.5 136.5C197.943 145.608 197.443 154.608 196 163.5C192.257 167.259 187.757 168.426 182.5 167C179.813 165.125 177.979 162.625 177 159.5C176.333 133.833 176.333 108.167 177 82.4999C177.951 78.061 180.451 75.061 184.5 73.4999ZM197.5 94.4999C197.5 101.5 197.5 108.5 197.5 115.5C203.049 115.913 208.382 115.08 213.5 113C220.153 106.947 219.819 101.28 212.5 95.9999C207.599 94.6745 202.599 94.1745 197.5 94.4999Z" fill="url(#paint3_linear_1201_19)"/>
</g>
<g id="Group_5">
<path id="Vector_5" opacity="0.944" fill-rule="evenodd" clip-rule="evenodd" d="M283.5 73.4998C310.94 72.621 328.44 85.2877 336 111.5C339.033 132.587 331.866 149.087 314.5 161C289.002 173.415 267.502 168.582 250 146.5C239.021 126.586 240.354 107.586 254 89.4998C262.127 80.8559 271.96 75.5226 283.5 73.4998ZM285.5 94.4998C279.735 96.3044 274.569 99.3044 270 103.5C260.55 117.011 261.716 129.511 273.5 141C289.374 150.529 302.54 147.695 313 132.5C319.138 108.8 309.971 96.133 285.5 94.4998Z" fill="url(#paint4_linear_1201_19)"/>
</g>
<g id="Group_6">
<path id="Vector_6" opacity="0.951" fill-rule="evenodd" clip-rule="evenodd" d="M351.5 73.5C362.231 73.0973 372.898 73.5973 383.5 75C400.009 81.1779 406.842 93.0112 404 110.5C401.219 120.45 395.052 127.45 385.5 131.5C391.481 138.648 397.647 145.648 404 152.5C405.608 164.896 400.441 169.396 388.5 166C380.635 158.47 373.135 150.636 366 142.5C365.667 148.5 365.333 154.5 365 160.5C362.27 167.053 357.437 169.22 350.5 167C348.714 166.215 347.214 165.049 346 163.5C344.351 135.92 344.018 108.253 345 80.5C346.694 77.6424 348.861 75.309 351.5 73.5ZM365.5 94.5C365.5 100.167 365.5 105.833 365.5 111.5C369.514 111.666 373.514 111.499 377.5 111C384.613 106.876 385.28 101.876 379.5 96C374.934 94.6908 370.267 94.1908 365.5 94.5Z" fill="url(#paint5_linear_1201_19)"/>
</g>
<g id="Group_7">
<path id="Vector_7" opacity="0.944" fill-rule="evenodd" clip-rule="evenodd" d="M422.5 73.5C438.929 73.0298 455.262 73.5298 471.5 75C477.082 79.7388 477.915 85.2388 474 91.5C472.581 92.4601 471.081 93.2935 469.5 94C465.179 94.499 460.846 94.6657 456.5 94.5C456.667 116.503 456.5 138.503 456 160.5C452.423 167.553 446.923 169.386 439.5 166C437.951 164.786 436.785 163.286 436 161.5C435.5 139.169 435.333 116.836 435.5 94.5C430.821 94.6658 426.155 94.4992 421.5 94C415.891 90.7231 414.058 85.8897 416 79.5C417.494 76.6865 419.66 74.6865 422.5 73.5Z" fill="url(#paint6_linear_1201_19)"/>
</g>
<g id="Group_8">
<path id="Vector_8" opacity="0.891" fill-rule="evenodd" clip-rule="evenodd" d="M400.5 216.5C411.49 214.992 416.324 219.658 415 230.5C410.157 238.377 404.157 239.377 397 233.5C393.021 226.694 394.188 221.027 400.5 216.5Z" fill="url(#paint7_linear_1201_19)"/>
</g>
</g>
<defs>
<linearGradient id="paint0_linear_1201_19" x1="255.5" y1="7.5" x2="255.5" y2="503.5" gradientUnits="userSpaceOnUse">
<stop stop-color="#252D78"/>
<stop offset="1" stop-color="#760074"/>
</linearGradient>
<linearGradient id="paint1_linear_1201_19" x1="69.7293" y1="73.3799" x2="69.7293" y2="167.588" gradientUnits="userSpaceOnUse">
<stop stop-color="#252D78"/>
<stop offset="1" stop-color="#760074"/>
</linearGradient>
<linearGradient id="paint2_linear_1201_19" x1="138.478" y1="73.4375" x2="138.478" y2="167.5" gradientUnits="userSpaceOnUse">
<stop stop-color="#252D78"/>
<stop offset="1" stop-color="#760074"/>
</linearGradient>
<linearGradient id="paint3_linear_1201_19" x1="207.679" y1="73.4375" x2="207.679" y2="167.588" gradientUnits="userSpaceOnUse">
<stop stop-color="#252D78"/>
<stop offset="1" stop-color="#760074"/>
</linearGradient>
<linearGradient id="paint4_linear_1201_19" x1="289.667" y1="73.457" x2="289.667" y2="167.702" gradientUnits="userSpaceOnUse">
<stop stop-color="#252D78"/>
<stop offset="1" stop-color="#760074"/>
</linearGradient>
<linearGradient id="paint5_linear_1201_19" x1="374.538" y1="73.3652" x2="374.538" y2="167.843" gradientUnits="userSpaceOnUse">
<stop stop-color="#252D78"/>
<stop offset="1" stop-color="#760074"/>
</linearGradient>
<linearGradient id="paint6_linear_1201_19" x1="445.836" y1="73.3291" x2="445.836" y2="167.648" gradientUnits="userSpaceOnUse">
<stop stop-color="#252D78"/>
<stop offset="1" stop-color="#760074"/>
</linearGradient>
<linearGradient id="paint7_linear_1201_19" x1="404.953" y1="216.224" x2="404.953" y2="237.267" gradientUnits="userSpaceOnUse">
<stop stop-color="#252D78"/>
<stop offset="1" stop-color="#760074"/>
</linearGradient>
<clipPath id="clip0_1201_19">
<rect width="512" height="512" fill="white"/>
</clipPath>
</defs>
</svg>
