<svg width="481" height="481" viewBox="0 0 481 481" fill="none" xmlns="http://www.w3.org/2000/svg">
<g id="Core Banking">
<g id="bank 1 1">
<path id="Polygon 1" d="M240 16L446.98 129.25H33.02L240 16Z" fill="white"/>
<path id="Rectangle 9" d="M465 432H15V464H465V432Z" fill="white"/>
<path id="Rectangle 8" d="M465 141H15V160H465V141Z" fill="white"/>
<path id="Rectangle 7" d="M438 173H41V421H438V173Z" fill="white"/>
<path id="&#226;&#130;&#185;" d="M271.203 260.734H254.609C257.609 264.531 259.508 269.172 260.305 274.656H274.438L271.203 285.766H260.516C259.672 294.109 256.367 300.391 250.602 304.609C244.836 308.828 236.82 310.938 226.555 310.938L261.219 351.156V352H245.258L207.992 308.617L207.922 299.828H225.43C231.289 299.781 236.047 298.516 239.703 296.031C243.359 293.5 245.68 290.078 246.664 285.766H205.953L209.188 274.656H246.523C244.273 265.75 237.383 261.109 225.852 260.734H206.094L209.398 249.625H274.438L271.203 260.734Z" fill="url(#paint0_linear)"/>
<g id="Group 3">
<g id="Group 4">
<path id="Vector 2" d="M240.032 192.017C182.594 192.017 136.032 238.579 136.032 296.017C136.032 353.455 182.594 400.017 240.032 400.017C297.47 400.017 344.032 353.455 344.032 296.017C343.966 238.607 297.442 192.083 240.032 192.017ZM240.032 384.017C191.431 384.017 152.032 344.618 152.032 296.017C152.032 247.416 191.431 208.017 240.032 208.017C288.633 208.017 328.032 247.416 328.032 296.017C327.975 344.594 288.609 383.96 240.032 384.017Z" fill="url(#paint1_linear)"/>
</g>
</g>
<g id="Group 5">
<g id="Group 6">
<path id="Vector 3" d="M472.032 176.017C476.45 176.017 480.032 172.435 480.032 168.017V136.017C480.032 135.913 479.976 135.833 479.976 135.729C479.945 134.855 479.77 133.993 479.456 133.177C479.456 133.081 479.456 132.969 479.384 132.873C478.995 132 478.454 131.203 477.784 130.521C477.547 130.311 477.298 130.113 477.04 129.929C476.682 129.59 476.294 129.285 475.88 129.017L243.88 1.01702C241.477 -0.318986 238.555 -0.318986 236.152 1.01702L4.152 129.017C3.738 129.285 3.35 129.59 2.992 129.929C2.734 130.113 2.485 130.311 2.248 130.521C1.578 131.203 1.037 132 0.648 132.873C0.648 132.969 0.648 133.081 0.576 133.177C0.262 133.993 0.087 134.855 0.056 135.729C0.056 135.833 0 135.913 0 136.017V168.017C0 172.435 3.582 176.017 8 176.017H32.032V416.017H8.032C3.614 416.017 0.032 419.599 0.032 424.017V472.017C0.032 476.435 3.614 480.017 8.032 480.017H472.032C476.45 480.017 480.032 476.435 480.032 472.017V424.017C480.032 419.599 476.45 416.017 472.032 416.017H448.032V176.017H472.032ZM240.032 17.153L440.968 128.017H39.096L240.032 17.153ZM464.032 432.017V464.017H16.032V432.017H464.032ZM48.032 416.017V176.017H80.032V416.017H48.032ZM96.032 416.017V176.017H384.032V416.017H96.032ZM400.032 416.017V176.017H432.032V416.017H400.032ZM16.032 160.017V144.017H464.032V160.017H16.032Z" fill="url(#paint2_linear)"/>
</g>
</g>
</g>
</g>
<defs>
<linearGradient id="paint0_linear" x1="240.5" y1="218" x2="240.5" y2="346" gradientUnits="userSpaceOnUse">
<stop stop-color="#760074"/>
<stop offset="0.0001" stop-color="#760074"/>
<stop offset="1" stop-color="#1B1464"/>
</linearGradient>
<linearGradient id="paint1_linear" x1="240.032" y1="192.017" x2="240.032" y2="400.017" gradientUnits="userSpaceOnUse">
<stop stop-color="#760074"/>
<stop offset="1" stop-color="#252D78"/>
</linearGradient>
<linearGradient id="paint2_linear" x1="240.016" y1="0.0150148" x2="240.016" y2="480.017" gradientUnits="userSpaceOnUse">
<stop stop-color="#760074"/>
<stop offset="1" stop-color="#252D78"/>
</linearGradient>
</defs>
</svg>
