<svg width="512" height="512" viewBox="0 0 512 512" fill="none" xmlns="http://www.w3.org/2000/svg">
<g id="Form">
<rect id="Rectangle 19" x="43" y="61" width="351" height="450" rx="38" fill="white"/>
<rect id="Rectangle 20" x="135" y="47" width="160" height="66" fill="#73602D"/>
<rect id="Rectangle 21" x="177" y="6" width="78" height="47" fill="#5F4B0F"/>
<rect id="Rectangle 22" x="302.228" y="344.505" width="188.516" height="65.4583" transform="rotate(-58.9503 302.228 344.505)" fill="#9B9B9B"/>
<rect id="Rectangle 23" x="412.552" y="157.206" width="66" height="20" transform="rotate(32.1294 412.552 157.206)" fill="#C4C4C4"/>
<rect id="Rectangle 24" x="446.065" y="129.921" width="32" height="32" transform="rotate(28.2444 446.065 129.921)" fill="#565656"/>
<path id="Polygon 8" d="M299.063 356.192L351.488 388.132L338.992 406.81L290.924 428.582L286.15 377.496L299.063 356.192Z" fill="#67686B"/>
<path id="Vector" d="M479.656 147.746C478.449 143.234 475.555 139.461 471.508 137.125L456.793 128.629C452.746 126.293 448.031 125.672 443.516 126.883C439.004 128.09 435.23 130.984 432.895 135.031L424.113 150.238C420.387 148.488 416.203 148.102 412.176 149.18C407.664 150.391 403.891 153.285 401.555 157.332L401 158.289V93.5C401 72.8203 384.18 56 363.5 56H308.801C307.578 47.5352 300.297 41 291.5 41H266V22.5C266 10.0938 255.906 0 243.5 0H188.5C176.094 0 166 10.0938 166 22.5V41H140.5C131.703 41 124.418 47.5352 123.199 56H68.5C47.8203 56 31 72.8203 31 93.5V474.5C31 495.18 47.8203 512 68.5 512H302.547C306.688 512 310.047 508.645 310.047 504.5C310.047 500.355 306.688 497 302.547 497H68.5C56.0938 497 46 486.906 46 474.5V93.5C46 81.0938 56.0938 71 68.5 71H123V107.5C123 117.148 130.852 125 140.5 125H291.5C301.148 125 309 117.148 309 107.5V100.5H356.5V235.367L280.184 367.551C277.426 372.324 276.176 377.754 276.57 383.254L279.914 430.105C280.207 434.203 282.496 437.895 286.035 439.98C287.988 441.129 290.18 441.711 292.383 441.711C294.172 441.711 295.965 441.324 297.637 440.551L340.754 420.555C345.918 418.16 350.152 414.289 352.996 409.363L356.5 403.297V467.5H75.5V100.5H95.5C99.6406 100.5 103 97.1445 103 93C103 88.8555 99.6406 85.5 95.5 85.5H73C66.1055 85.5 60.5 91.1055 60.5 98V470C60.5 476.895 66.1055 482.5 73 482.5H359C365.891 482.5 371.5 476.895 371.5 470V377.312L386 352.199V474.5C386 486.906 375.906 497 363.5 497H337.543C333.402 497 330.043 500.355 330.043 504.5C330.043 508.641 333.402 512 337.543 512H363.5C384.176 512 401 495.176 401 474.5V326.219L464.273 216.625L474.27 199.312C476.605 195.266 477.227 190.551 476.016 186.039C474.938 182.012 472.512 178.586 469.129 176.23L477.91 161.023C480.246 156.977 480.867 152.262 479.656 147.746V147.746ZM445.883 142.531C446.57 141.34 448.098 140.93 449.293 141.617L464.008 150.113C464.785 150.563 465.07 151.258 465.172 151.629C465.27 152.004 465.371 152.742 464.922 153.523L456.176 168.668L437.141 157.68L445.883 142.531ZM414.543 164.832C414.992 164.055 415.687 163.77 416.059 163.672C416.434 163.566 417.172 163.469 417.949 163.918L460.363 188.406C461.145 188.855 461.43 189.547 461.527 189.922C461.629 190.293 461.727 191.035 461.277 191.812L455.031 202.629L408.301 175.648L414.543 164.832ZM181 22.5C181 18.3633 184.363 15 188.5 15H243.5C247.637 15 251 18.3633 251 22.5V41H181V22.5ZM294 107.5C294 108.879 292.879 110 291.5 110H140.5C139.121 110 138 108.879 138 107.5V58.5C138 57.1211 139.121 56 140.5 56H291.5C292.879 56 294 57.1211 294 58.5V107.5ZM359 85.5H309V71H363.5C375.906 71 386 81.0938 386 93.5V184.273L371.5 209.387V98C371.5 91.1055 365.895 85.5 359 85.5ZM400.801 188.641L447.531 215.621L355.586 374.879L308.852 347.898L400.801 188.641ZM340.008 401.863C338.715 404.102 336.789 405.859 334.445 406.945V406.949L294.617 425.418L291.531 382.188C291.352 379.688 291.922 377.223 293.176 375.055L301.352 360.887L348.086 387.867L340.008 401.863Z" fill="url(#paint0_linear)"/>
<path id="Vector_2" d="M192.52 447.465C193.946 448.734 195.727 449.355 197.497 449.355C199.567 449.355 201.625 448.504 203.106 446.836L217.977 430.094L229.489 443.824C231.797 446.582 235.184 448.207 238.778 448.293C242.375 448.355 245.829 446.91 248.262 444.266L262.106 429.234L277.45 446.602C280.196 449.707 284.934 450 288.036 447.258C291.141 444.516 291.434 439.777 288.692 436.672L271.512 417.227C269.172 414.578 265.805 413.039 262.274 413.004C262.231 413 262.188 413 262.145 413C258.657 413 255.313 414.465 252.95 417.031L239.157 432.008L227.61 418.238C225.274 415.453 221.848 413.824 218.207 413.77C214.567 413.687 211.102 415.25 208.688 417.969L191.895 436.875C189.141 439.973 189.422 444.715 192.52 447.465V447.465Z" fill="url(#paint1_linear)"/>
<path id="Vector_3" d="M246.5 160H335.5C339.641 160 343 156.645 343 152.5C343 148.355 339.641 145 335.5 145H246.5C242.359 145 239 148.355 239 152.5C239 156.645 242.359 160 246.5 160Z" fill="url(#paint2_linear)"/>
<path id="Vector_4" d="M246.5 205H335.5C339.641 205 343 201.645 343 197.5C343 193.355 339.641 190 335.5 190H246.5C242.359 190 239 193.355 239 197.5C239 201.645 242.359 205 246.5 205Z" fill="url(#paint3_linear)"/>
<path id="Vector_5" d="M246.5 250H335.5C339.641 250 343 246.645 343 242.5C343 238.355 339.641 235 335.5 235H246.5C242.359 235 239 238.355 239 242.5C239 246.645 242.359 250 246.5 250Z" fill="url(#paint4_linear)"/>
<path id="Vector_6" d="M110.25 307H199.25C203.391 307 206.75 303.645 206.75 299.5C206.75 295.355 203.391 292 199.25 292H110.25C106.109 292 102.75 295.355 102.75 299.5C102.75 303.645 106.109 307 110.25 307Z" fill="url(#paint5_linear)"/>
<path id="Vector_7" d="M276.75 299.5C276.75 295.355 273.391 292 269.25 292H234.25C230.109 292 226.75 295.355 226.75 299.5C226.75 303.645 230.109 307 234.25 307H269.25C273.391 307 276.75 303.645 276.75 299.5Z" fill="url(#paint6_linear)"/>
<path id="Vector_8" d="M110.25 347H182.25C186.391 347 189.75 343.645 189.75 339.5C189.75 335.355 186.391 332 182.25 332H110.25C106.109 332 102.75 335.355 102.75 339.5C102.75 343.645 106.109 347 110.25 347Z" fill="url(#paint7_linear)"/>
<path id="Vector_9" d="M248.25 332H214.25C210.109 332 206.75 335.355 206.75 339.5C206.75 343.645 210.109 347 214.25 347H248.25C252.391 347 255.75 343.645 255.75 339.5C255.75 335.355 252.391 332 248.25 332Z" fill="url(#paint8_linear)"/>
<path id="Vector_10" d="M110.25 387H162.25C166.391 387 169.75 383.645 169.75 379.5C169.75 375.355 166.391 372 162.25 372H110.25C106.109 372 102.75 375.355 102.75 379.5C102.75 383.645 106.109 387 110.25 387Z" fill="url(#paint9_linear)"/>
<path id="Vector_11" d="M255.75 379.5C255.75 375.355 252.391 372 248.25 372H194.25C190.109 372 186.75 375.355 186.75 379.5C186.75 383.645 190.109 387 194.25 387H248.25C252.391 387 255.75 383.645 255.75 379.5Z" fill="url(#paint10_linear)"/>
<path id="Vector_12" d="M110.25 427H162.25C166.391 427 169.75 423.645 169.75 419.5C169.75 415.355 166.391 412 162.25 412H110.25C106.109 412 102.75 415.355 102.75 419.5C102.75 423.645 106.109 427 110.25 427Z" fill="url(#paint11_linear)"/>
<g id="death">
<path id="Vector_13" d="M221.234 214.109H215.469V210.081C218.761 209.351 221.234 206.416 221.234 202.909C221.234 200.945 220.469 199.096 219.08 197.706L213.547 192.173L208.014 197.706C206.624 199.096 205.859 200.943 205.859 202.909C205.859 206.416 208.333 209.351 211.625 210.081V214.109H202.016V150.688C202.016 147.509 199.429 144.922 196.25 144.922H134.75C131.571 144.922 128.984 147.509 128.984 150.688V214.109H119.375V210.081C122.667 209.351 125.141 206.416 125.141 202.909C125.141 200.945 124.376 199.096 122.986 197.706L117.453 192.173L111.92 197.706C110.531 199.096 109.766 200.943 109.766 202.909C109.766 206.416 112.239 209.351 115.531 210.081V214.109H109.766C107.646 214.109 105.922 215.833 105.922 217.953V256.391C105.922 258.51 107.646 260.234 109.766 260.234H123.251C123.234 260.869 123.219 261.503 123.219 262.156V264.078H142.438C144.557 264.078 146.281 262.354 146.281 260.234V252.547H184.719V260.234C184.719 262.354 186.443 264.078 188.562 264.078H207.781V262.156C207.781 261.503 207.766 260.869 207.749 260.234H221.234C223.354 260.234 225.078 258.51 225.078 256.391V217.953C225.078 215.833 223.354 214.109 221.234 214.109ZM209.703 202.909C209.703 201.984 210.078 201.077 210.731 200.424L213.547 197.608L216.362 200.424C217.016 201.077 217.391 201.982 217.391 202.909C217.391 204.846 215.815 206.422 213.877 206.422H213.216C211.279 206.422 209.703 204.846 209.703 202.909V202.909ZM113.609 202.909C113.609 201.984 113.984 201.077 114.638 200.424L117.453 197.608L120.269 200.424C120.922 201.077 121.297 201.982 121.297 202.909C121.297 204.846 119.721 206.422 117.784 206.422H117.123C115.185 206.422 113.609 204.846 113.609 202.909V202.909ZM125.141 237.172V229.484H205.859L205.863 237.172H125.141ZM132.828 172.624L156.686 148.766H164.704L132.828 180.642V172.624ZM140.516 159.501V156.453H143.564L140.516 159.501ZM140.516 178.389L152.03 166.875C151.978 166.939 151.918 166.993 151.868 167.056C149.504 170.008 148.203 173.717 148.203 177.501C148.203 180.817 149.547 184.059 151.889 186.402L154.422 188.935C155.145 191.454 156.704 193.618 158.779 195.115L158.151 197.633L154.751 198.483C152.335 199.084 150.133 200.333 148.378 202.09C145.785 204.683 144.359 208.127 144.359 211.79V217.953H140.516V178.389ZM159.375 201.287L162.483 203.358L160.436 205.405L158.841 201.419L159.375 201.287ZM171.625 201.287L172.157 201.419L170.562 205.405L168.515 203.358L171.625 201.287ZM169.073 198.367L165.5 200.75L161.927 198.369L162.31 196.837C163.324 197.13 164.393 197.297 165.5 197.297C166.607 197.297 167.676 197.132 168.69 196.837L169.073 198.367ZM165.5 193.451C161.26 193.451 157.812 190.003 157.812 185.764L157.811 181.384C160.642 180.442 163.278 178.904 165.5 176.908C167.722 178.904 170.358 180.442 173.189 181.384H173.188V185.764C173.188 190.003 169.74 193.451 165.5 193.451ZM174.402 177.734C171.775 176.86 169.348 175.361 167.385 173.398L165.5 171.515L163.617 173.398C161.654 175.361 159.227 176.86 156.596 177.736C155.024 178.263 153.969 179.727 153.969 181.384V182.904C152.758 181.368 152.047 179.466 152.047 177.501C152.047 174.586 153.048 171.73 154.87 169.457C157.326 166.383 160.993 164.621 164.925 164.621H166.075C170.009 164.621 173.674 166.383 176.132 169.457C177.952 171.73 178.953 174.588 178.953 177.501C178.953 179.464 178.242 181.368 177.031 182.904V181.384C177.031 179.727 175.976 178.263 174.402 177.734V177.734ZM148.203 211.79C148.203 209.153 149.229 206.674 151.097 204.807C152.212 203.689 153.59 202.878 155.095 202.399L159.033 212.245L163.578 207.7V214.109H167.422V207.7L171.967 212.245L175.905 202.399C177.41 202.878 178.786 203.687 179.904 204.807C181.771 206.674 182.797 209.153 182.797 211.79V217.953H148.203V211.79ZM182.624 202.09C180.867 200.333 178.663 199.086 176.249 198.483L172.849 197.633L172.221 195.115C174.296 193.618 175.855 191.456 176.578 188.935L179.111 186.402C181.453 184.059 182.797 180.817 182.797 177.501C182.797 173.717 181.496 170.008 179.134 167.054C175.942 163.066 171.181 160.777 166.075 160.777H164.925C160.997 160.777 157.28 162.144 154.319 164.585L162.452 156.453H190.484V217.953H186.641V211.79C186.641 208.127 185.215 204.683 182.624 202.09ZM198.172 150.688V223.719C198.172 224.78 197.311 225.641 196.25 225.641H134.75C133.689 225.641 132.828 224.78 132.828 223.719V186.077L136.672 182.233V217.953C136.672 220.073 138.396 221.797 140.516 221.797H190.484C192.604 221.797 194.328 220.073 194.328 217.953V156.453C194.328 154.333 192.604 152.609 190.484 152.609H166.296L170.139 148.766H196.25C197.311 148.766 198.172 149.627 198.172 150.688ZM134.75 148.766H151.251L147.407 152.609H140.516C138.396 152.609 136.672 154.333 136.672 156.453V163.345L132.828 167.189V150.688C132.828 149.627 133.689 148.766 134.75 148.766ZM109.766 256.391V217.953H128.984V223.719C128.984 224.395 129.123 225.037 129.338 225.641H125.141C123.021 225.641 121.297 227.365 121.297 229.484V237.172C121.297 239.292 123.021 241.016 125.141 241.016H126.3C125.369 244.033 123.991 249.466 123.451 256.391H109.766ZM188.562 260.234V252.547C188.562 250.427 186.839 248.703 184.719 248.703H146.281C144.161 248.703 142.438 250.427 142.438 252.547V260.234H127.089C127.351 250.929 129.432 243.747 130.343 241.016H200.659C201.57 243.747 203.651 250.929 203.913 260.234H188.562ZM221.234 256.391H207.549C207.009 249.466 205.631 244.033 204.7 241.016H205.859C207.979 241.016 209.703 239.292 209.703 237.172V229.484C209.703 227.365 207.979 225.641 205.859 225.641H201.662C201.877 225.037 202.016 224.395 202.016 223.719V217.953H221.234V256.391Z" fill="url(#paint12_linear)"/>
</g>
</g>
<defs>
<linearGradient id="paint0_linear" x1="255.63" y1="0" x2="255.63" y2="512" gradientUnits="userSpaceOnUse">
<stop stop-color="#760074"/>
<stop offset="1" stop-color="#1B1464"/>
</linearGradient>
<linearGradient id="paint1_linear" x1="240.286" y1="413" x2="240.286" y2="449.355" gradientUnits="userSpaceOnUse">
<stop stop-color="#760074"/>
<stop offset="1" stop-color="#1B1464"/>
</linearGradient>
<linearGradient id="paint2_linear" x1="291" y1="145" x2="291" y2="160" gradientUnits="userSpaceOnUse">
<stop stop-color="#760074"/>
<stop offset="1" stop-color="#1B1464"/>
</linearGradient>
<linearGradient id="paint3_linear" x1="291" y1="190" x2="291" y2="205" gradientUnits="userSpaceOnUse">
<stop stop-color="#760074"/>
<stop offset="1" stop-color="#1B1464"/>
</linearGradient>
<linearGradient id="paint4_linear" x1="291" y1="235" x2="291" y2="250" gradientUnits="userSpaceOnUse">
<stop stop-color="#760074"/>
<stop offset="1" stop-color="#1B1464"/>
</linearGradient>
<linearGradient id="paint5_linear" x1="154.75" y1="292" x2="154.75" y2="307" gradientUnits="userSpaceOnUse">
<stop stop-color="#760074"/>
<stop offset="1" stop-color="#1B1464"/>
</linearGradient>
<linearGradient id="paint6_linear" x1="251.75" y1="292" x2="251.75" y2="307" gradientUnits="userSpaceOnUse">
<stop stop-color="#760074"/>
<stop offset="1" stop-color="#1B1464"/>
</linearGradient>
<linearGradient id="paint7_linear" x1="146.25" y1="332" x2="146.25" y2="347" gradientUnits="userSpaceOnUse">
<stop stop-color="#760074"/>
<stop offset="1" stop-color="#1B1464"/>
</linearGradient>
<linearGradient id="paint8_linear" x1="231.25" y1="332" x2="231.25" y2="347" gradientUnits="userSpaceOnUse">
<stop stop-color="#760074"/>
<stop offset="1" stop-color="#1B1464"/>
</linearGradient>
<linearGradient id="paint9_linear" x1="136.25" y1="372" x2="136.25" y2="387" gradientUnits="userSpaceOnUse">
<stop stop-color="#760074"/>
<stop offset="1" stop-color="#1B1464"/>
</linearGradient>
<linearGradient id="paint10_linear" x1="221.25" y1="372" x2="221.25" y2="387" gradientUnits="userSpaceOnUse">
<stop stop-color="#760074"/>
<stop offset="1" stop-color="#1B1464"/>
</linearGradient>
<linearGradient id="paint11_linear" x1="136.25" y1="412" x2="136.25" y2="427" gradientUnits="userSpaceOnUse">
<stop stop-color="#760074"/>
<stop offset="1" stop-color="#1B1464"/>
</linearGradient>
<linearGradient id="paint12_linear" x1="165.5" y1="144.922" x2="165.5" y2="264.078" gradientUnits="userSpaceOnUse">
<stop stop-color="#760074"/>
<stop offset="1" stop-color="#1B1464"/>
</linearGradient>
</defs>
</svg>
