<svg width="683" height="683" viewBox="0 0 683 683" fill="none" xmlns="http://www.w3.org/2000/svg">
<g id="download" clip-path="url(#clip0_1410_15)">
<g id="Group">
<path id="Vector" d="M94.1337 2.00013C87.6003 4.2668 80.4003 11.0668 77.2003 18.0001C74.8003 23.2001 74.667 32.8001 74.667 281.333C74.667 528.133 74.8003 539.6 77.2003 544.667C80.267 551.467 89.067 559.467 95.6003 561.2C98.4003 562 105.334 562.667 111.067 562.667H121.334V572.8C121.334 586.8 123.467 592.8 130.667 600C139.467 608.933 142.134 609.333 183.867 609.333H220.134L223.334 606C227.6 601.867 227.6 596.8 223.334 592.667L220.134 589.333H184H147.867L144.667 586L141.334 582.8V378.8C141.334 266.667 140.934 173.867 140.534 172.667C140 171.333 137.734 169.6 135.6 168.667C130.4 166.533 124.934 168.267 122.8 172.8C121.734 175.2 121.334 225.2 121.334 359.333V542.667H111.334C102.4 542.667 100.8 542.267 98.0003 539.333L94.667 536.133V281.333V26.5335L98.0003 23.3335L101.2 20.0001H313.867H526.534L530.267 23.2001L534 26.4001L534.4 55.8668C534.667 72.1335 534.4 85.3335 533.734 85.3335C533.2 85.3335 524 76.6668 513.334 66.0001L493.734 46.6668H320.667C188.267 46.6668 146.4 47.0668 142.134 48.2668C134.934 50.4001 125.067 60.2668 122.934 67.4668C120.8 74.8001 120.667 130.533 122.8 135.2C124.934 139.733 130.4 141.467 135.6 139.333C137.734 138.4 140 136.667 140.534 135.333C140.934 134.133 141.334 119.6 141.334 103.2V73.2001L144.667 70.0001L147.867 66.6668H314H480V117.333V168.133L483.334 171.333L486.534 174.667H537.334H588V378.667V582.8L584.667 586L581.467 589.333H546H510.534L507.334 592.667C503.067 596.8 503.067 601.867 507.334 606L510.534 609.333H546.267C567.334 609.333 584.134 608.8 587.067 607.867C593.6 606.133 602.4 598.133 605.467 591.333C607.867 586.267 608 576.133 608 373.467V160.8L581.334 134L554.667 107.2V69.0668C554.667 46.8001 554 28.0001 553.2 24.1335C551.2 14.9335 545.734 7.73346 537.2 3.4668L530.134 0.000130981H314.8C134.934 0.133464 98.5337 0.400131 94.1337 2.00013ZM537.334 118L574 154.667H536.934H500V118C500 97.8668 500.134 81.3335 500.4 81.3335C500.534 81.3335 517.2 97.8668 537.334 118Z" fill="url(#paint0_linear_1410_15)"/>
<path id="Vector_2" d="M243.333 234.267C238.533 235.467 236 238.8 236 244C236 254 226.267 253.334 364.933 253.334H488.933L491.733 250.267C496.933 244.8 494.8 237.467 487.467 234.667C483.867 233.334 248.933 232.934 243.333 234.267Z" fill="url(#paint1_linear_1410_15)"/>
<path id="Vector_3" d="M238.667 296C235.067 299.6 235.201 306.8 238.801 310.133C241.467 312.533 245.734 312.667 362.534 313.067C428.934 313.2 484.667 313.067 486.401 312.667C490.667 311.6 494.667 307.2 494.667 303.467C494.667 301.733 493.467 298.8 491.867 296.8L489.201 293.333H365.201C243.067 293.333 241.334 293.333 238.667 296Z" fill="url(#paint2_linear_1410_15)"/>
<path id="Vector_4" d="M238.667 356C234.667 360 235.067 367.067 239.467 370.533C242.934 373.333 244.134 373.333 318.267 373.333H393.467L396.667 370C400.934 365.867 401.067 360.133 396.934 356.267L393.867 353.333H317.601C243.067 353.333 241.334 353.333 238.667 356Z" fill="url(#paint3_linear_1410_15)"/>
<path id="Vector_5" d="M430.667 356C426.667 360 427.067 367.067 431.6 370.667C435.067 373.333 436.4 373.467 462.4 373.067C489.067 372.667 489.6 372.667 492.134 369.467C495.467 365.467 495.334 361.2 491.867 356.8L489.2 353.333H461.2C435.067 353.333 433.2 353.467 430.667 356Z" fill="url(#paint4_linear_1410_15)"/>
<path id="Vector_6" d="M339.467 434.133C288.667 445.067 249.467 486 241.333 536.533C238.933 550.8 240.267 578 243.867 590.4C267.867 673.333 364.267 708.8 435.333 660.933C451.867 649.733 468.667 630.667 477.733 612.667C486.533 594.933 491.467 570 490.267 549.467C486.667 493.2 445.2 445.333 390.4 434.133C377.6 431.467 352 431.467 339.467 434.133ZM390.133 454.667C395.867 456.133 406.4 460.133 413.333 463.6C435.867 474.8 456.4 498.4 464.533 522.133C475.867 555.733 470.8 590 450 619.333C436.8 637.867 416.267 652.133 392.4 658.933C383.733 661.467 378.933 662 364 661.867C347.6 661.733 344.933 661.467 333.6 657.733C315.867 651.867 304.133 644.4 289.867 630.133C279.733 619.867 276.667 615.867 271.467 605.333C262.133 586.267 259.467 574 260.267 552.667C260.8 537.733 261.467 533.733 264.933 523.6C276.933 489.2 305.067 463.2 339.733 454.667C354.133 451.2 376.133 451.2 390.133 454.667Z" fill="url(#paint5_linear_1410_15)"/>
<path id="Vector_7" d="M358.533 489.2L355.333 491.733L354.933 542.133L354.533 592.4L340.133 578.266C328 566.266 325.067 564 321.467 564C316 564 312 568.133 312 573.733C312 577.6 314.8 580.8 336.533 602.533C358.133 624.133 361.6 627.066 365.333 627.066C369.067 627.066 372.533 624.133 394.133 602.533C415.067 581.466 418.667 577.333 418.667 573.866C418.667 568.666 413.867 564 408.533 564C405.333 564 402.133 566.533 390.667 578C382.933 585.733 376.267 592 375.733 592C375.067 592 374.667 569.6 374.667 542.133V492.133L371.2 489.466C366.8 486 362.533 485.866 358.533 489.2Z" fill="url(#paint6_linear_1410_15)"/>
</g>
</g>
<defs>
<linearGradient id="paint0_linear_1410_15" x1="341.334" y1="609.333" x2="341.334" y2="0.00012207" gradientUnits="userSpaceOnUse">
<stop stop-color="#760074"/>
<stop offset="1" stop-color="#252D78"/>
</linearGradient>
<linearGradient id="paint1_linear_1410_15" x1="365.227" y1="253.343" x2="365.227" y2="233.445" gradientUnits="userSpaceOnUse">
<stop stop-color="#760074"/>
<stop offset="1" stop-color="#252D78"/>
</linearGradient>
<linearGradient id="paint2_linear_1410_15" x1="365.35" y1="313.117" x2="365.35" y2="293.333" gradientUnits="userSpaceOnUse">
<stop stop-color="#760074"/>
<stop offset="1" stop-color="#252D78"/>
</linearGradient>
<linearGradient id="paint3_linear_1410_15" x1="317.927" y1="373.333" x2="317.927" y2="353.333" gradientUnits="userSpaceOnUse">
<stop stop-color="#760074"/>
<stop offset="1" stop-color="#252D78"/>
</linearGradient>
<linearGradient id="paint4_linear_1410_15" x1="461.233" y1="373.235" x2="461.233" y2="353.333" gradientUnits="userSpaceOnUse">
<stop stop-color="#760074"/>
<stop offset="1" stop-color="#252D78"/>
</linearGradient>
<linearGradient id="paint5_linear_1410_15" x1="365.283" y1="682.494" x2="365.283" y2="432.133" gradientUnits="userSpaceOnUse">
<stop stop-color="#760074"/>
<stop offset="1" stop-color="#252D78"/>
</linearGradient>
<linearGradient id="paint6_linear_1410_15" x1="365.333" y1="627.066" x2="365.333" y2="486.781" gradientUnits="userSpaceOnUse">
<stop stop-color="#760074"/>
<stop offset="1" stop-color="#252D78"/>
</linearGradient>
<clipPath id="clip0_1410_15">
<rect width="682.667" height="682.667" fill="white"/>
</clipPath>
</defs>
</svg>
