<svg width="288" height="496" viewBox="0 0 288 496" fill="none" xmlns="http://www.w3.org/2000/svg">
<g id="E Payment 1">
<g id="Group">
<path id="Rectangle 1" d="M277 15H12V482H277V15Z" fill="white"/>
<path id="Vector" d="M256 0H32C23.516 0.01111 15.384 3.3861 9.385 9.3849C3.386 15.3836 0.011 23.5165 0 32V464C0.011 472.484 3.386 480.616 9.385 486.615C15.384 492.614 23.516 495.989 32 496H256C264.484 495.989 272.616 492.614 278.615 486.615C284.614 480.616 287.989 472.484 288 464V32C287.989 23.5165 284.614 15.3836 278.615 9.3849C272.616 3.3861 264.484 0.01111 256 0ZM189.75 16L185.75 32H102.25L98.25 16H189.75ZM272 464C271.994 468.242 270.307 472.308 267.308 475.308C264.308 478.307 260.242 479.994 256 480H32C27.758 479.994 23.692 478.307 20.692 475.308C17.693 472.308 16.006 468.242 16 464V32C16.006 27.7582 17.693 23.6918 20.692 20.6924C23.692 17.6931 27.758 16.0056 32 16H81.75L88.24 41.94C88.673 43.6707 89.671 45.2072 91.077 46.3052C92.483 47.4032 94.216 47.9997 96 48H192C193.784 47.9997 195.517 47.4032 196.923 46.3052C198.329 45.2072 199.327 43.6707 199.76 41.94L206.25 16H256C260.242 16.0056 264.308 17.6931 267.308 20.6924C270.307 23.6918 271.994 27.7582 272 32V464Z" fill="url(#paint0_linear)"/>
<path id="Vector 2" d="M144 208C123.431 208 103.323 214.099 86.221 225.527C69.118 236.955 55.788 253.197 47.917 272.201C40.045 291.204 37.985 312.115 41.998 332.289C46.011 352.463 55.916 370.994 70.461 385.539C85.006 400.084 103.537 409.989 123.711 414.002C143.885 418.015 164.796 415.955 183.799 408.083C202.803 400.212 219.045 386.882 230.473 369.779C241.9 352.677 248 332.569 248 312C247.97 284.427 237.004 257.991 217.506 238.494C198.009 218.996 171.573 208.03 144 208ZM144 400C126.595 400 109.581 394.839 95.11 385.169C80.638 375.5 69.359 361.756 62.699 345.676C56.038 329.596 54.295 311.902 57.691 294.832C61.086 277.762 69.468 262.082 81.775 249.775C94.082 237.468 109.762 229.086 126.832 225.691C143.902 222.295 161.596 224.038 177.676 230.699C193.756 237.359 207.5 248.638 217.169 263.11C226.839 277.581 232 294.595 232 312C231.974 335.331 222.694 357.699 206.196 374.196C189.699 390.694 167.331 399.974 144 400Z" fill="url(#paint1_linear)"/>
<path id="Vector 3" d="M144 232C128.177 232 112.71 236.692 99.554 245.482C86.398 254.273 76.145 266.767 70.09 281.385C64.035 296.003 62.45 312.089 65.537 327.607C68.624 343.126 76.243 357.38 87.431 368.569C98.62 379.757 112.874 387.376 128.393 390.463C143.911 393.55 159.997 391.965 174.615 385.91C189.233 379.855 201.727 369.602 210.518 356.446C219.308 343.29 224 327.823 224 312C223.975 290.79 215.539 270.456 200.541 255.459C185.544 240.461 165.21 232.025 144 232ZM144 376C131.342 376 118.968 372.246 108.443 365.214C97.919 358.182 89.716 348.186 84.872 336.492C80.028 324.797 78.76 311.929 81.23 299.514C83.699 287.099 89.795 275.696 98.745 266.745C107.696 257.795 119.099 251.699 131.514 249.23C143.929 246.76 156.797 248.028 168.492 252.872C180.186 257.716 190.182 265.919 197.214 276.444C204.246 286.968 208 299.342 208 312C207.981 328.968 201.232 345.236 189.234 357.234C177.236 369.232 160.968 375.981 144 376Z" fill="url(#paint2_linear)"/>
<path id="Vector 4" d="M96 152H112V192C112 194.122 112.843 196.157 114.343 197.657C115.843 199.157 117.878 200 120 200H168C170.122 200 172.157 199.157 173.657 197.657C175.157 196.157 176 194.122 176 192V152H192C193.582 152 195.129 151.531 196.445 150.652C197.76 149.773 198.786 148.523 199.391 147.061C199.997 145.6 200.155 143.991 199.847 142.439C199.538 140.887 198.776 139.462 197.657 138.343L149.657 90.3431C148.914 89.6002 148.032 89.0109 147.062 88.6088C146.091 88.2067 145.051 87.9998 144 87.9998C142.949 87.9998 141.909 88.2067 140.938 88.6088C139.968 89.0109 139.086 89.6002 138.343 90.3431L90.343 138.343C89.224 139.462 88.462 140.887 88.153 142.439C87.845 143.991 88.003 145.6 88.609 147.061C89.214 148.523 90.24 149.773 91.555 150.652C92.871 151.531 94.418 152 96 152ZM144 107.313L172.687 136H168C165.878 136 163.843 136.843 162.343 138.343C160.843 139.843 160 141.878 160 144V184H128V144C128 141.878 127.157 139.843 125.657 138.343C124.157 136.843 122.122 136 120 136H115.313L144 107.313Z" fill="url(#paint3_linear)"/>
<path id="&#195;&#162;&#194;&#130;&#194;&#185;" d="M171.625 274.875H156.875C159.542 278.25 161.229 282.375 161.938 287.25H174.5L171.625 297.125H162.125C161.375 304.542 158.438 310.125 153.312 313.875C148.188 317.625 141.062 319.5 131.938 319.5L162.75 355.25V356H148.562L115.438 317.438L115.375 309.625H130.938C136.146 309.583 140.375 308.458 143.625 306.25C146.875 304 148.938 300.958 149.812 297.125H113.625L116.5 287.25H149.688C147.688 279.333 141.562 275.208 131.312 274.875H113.75L116.688 265H174.5L171.625 274.875Z" fill="url(#paint4_linear)"/>
</g>
</g>
<defs>
<linearGradient id="paint0_linear" x1="144" y1="0" x2="144" y2="496" gradientUnits="userSpaceOnUse">
<stop stop-color="#760074"/>
<stop offset="1" stop-color="#252D78"/>
</linearGradient>
<linearGradient id="paint1_linear" x1="144" y1="208" x2="144" y2="416" gradientUnits="userSpaceOnUse">
<stop stop-color="#760074"/>
<stop offset="1" stop-color="#252D78"/>
</linearGradient>
<linearGradient id="paint2_linear" x1="144" y1="232" x2="144" y2="392" gradientUnits="userSpaceOnUse">
<stop stop-color="#760074"/>
<stop offset="1" stop-color="#252D78"/>
</linearGradient>
<linearGradient id="paint3_linear" x1="144" y1="87.9998" x2="144" y2="200" gradientUnits="userSpaceOnUse">
<stop stop-color="#760074"/>
<stop offset="1" stop-color="#252D78"/>
</linearGradient>
<linearGradient id="paint4_linear" x1="144.5" y1="237" x2="144.5" y2="387" gradientUnits="userSpaceOnUse">
<stop stop-color="#760074"/>
<stop offset="1" stop-color="#252D78"/>
</linearGradient>
</defs>
</svg>
