<svg width="487" height="487" viewBox="0 0 487 487" fill="none" xmlns="http://www.w3.org/2000/svg">
<g id="FD-Calculator">
<path id="Rectangle 2" d="M106 356L147.5 342.5L239 367.5H308L339.5 398L426 356L448.5 377.5L285.5 480.5L132.5 444.5L106 458V356Z" fill="white"/>
<rect id="Rectangle 1" x="45" y="335" width="55" height="138" fill="white"/>
<path id="Vector" d="M133.358 222.172C133.358 286.148 185.219 338.009 249.195 338.009C313.171 338.009 365.031 286.148 365.031 222.172C365.031 158.196 313.171 106.335 249.195 106.335C185.25 106.405 133.432 158.227 133.358 222.172ZM249.195 122.312C304.348 122.312 349.055 167.019 349.055 222.172C349.055 277.325 304.348 322.032 249.195 322.032C194.042 322.032 149.334 277.325 149.334 222.172C149.397 167.046 194.069 122.374 249.195 122.312Z" fill="url(#paint0_linear)"/>
<path id="Ellipse 2" d="M249 324C305.333 324 351 278.333 351 222C351 165.667 305.333 120 249 120C192.667 120 147 165.667 147 222C147 278.333 192.667 324 249 324Z" fill="#FCC400"/>
<path id="Vector_2" d="M404.411 357.702L341.835 387.268C333.196 371.198 316.622 360.971 298.384 360.456L240.618 358.869C231.471 358.607 222.496 356.29 214.363 352.09L208.485 349.043C178.389 333.355 142.516 333.394 112.451 349.145L112.818 335.828C112.939 331.417 109.464 327.743 105.052 327.622L41.7081 325.878C37.2966 325.757 33.6263 329.233 33.5053 333.644L29.679 472.65C29.5581 477.061 33.0334 480.736 37.4448 480.856L100.789 482.6H101.007C105.337 482.6 108.878 479.156 108.995 474.83L109.179 468.18L125.635 459.369C132.094 455.893 139.646 455.066 146.702 457.063L244.97 484.644C245.142 484.695 245.314 484.734 245.489 484.773C252.592 486.259 259.831 487.004 267.086 487C282.454 487.008 297.643 483.696 311.61 477.284C311.954 477.128 312.285 476.944 312.601 476.738L455.082 384.577C458.632 382.279 459.778 377.618 457.699 373.936C447.121 355.167 423.66 348.017 404.411 357.702V357.702ZM45.8699 465.106L49.2555 342.069L96.627 343.372L93.2414 466.413L45.8699 465.106ZM304.414 463.016C287.061 470.848 267.679 473.009 249.027 469.198L151.023 441.688C139.993 438.571 128.186 439.862 118.095 445.288L109.686 449.793L111.936 367.988C138.585 350.264 172.761 348.443 201.141 363.229L207.019 366.276C217.293 371.58 228.624 374.506 240.181 374.841L297.951 376.429C314.177 376.897 327.957 388.45 331.249 404.348L245.201 401.973C240.789 401.852 237.119 405.331 236.994 409.739C236.873 414.15 240.352 417.825 244.76 417.945L339.721 420.559H339.944C344.269 420.555 347.807 417.111 347.924 412.789C348.021 409.318 347.764 405.842 347.152 402.425L411.334 372.099C411.397 372.072 411.459 372.041 411.521 372.009C420.625 367.403 431.632 368.944 439.121 375.875L304.414 463.016Z" fill="url(#paint1_linear)"/>
<path id="Vector_3" d="M257.183 83.8762V7.98821C257.183 3.57675 253.606 0 249.195 0C244.783 0 241.207 3.57675 241.207 7.98821V83.8762C241.207 88.2876 244.783 91.8644 249.195 91.8644C253.606 91.8644 257.183 88.2876 257.183 83.8762Z" fill="url(#paint2_linear)"/>
<path id="Vector_4" d="M317.094 83.8762V47.9292C317.094 43.5178 313.518 39.941 309.106 39.941C304.695 39.941 301.118 43.5178 301.118 47.9292V83.8762C301.118 88.2876 304.695 91.8644 309.106 91.8644C313.518 91.8644 317.094 88.2876 317.094 83.8762Z" fill="url(#paint3_linear)"/>
<path id="Vector_5" d="M197.271 83.8762V47.9292C197.271 43.5178 193.695 39.941 189.283 39.941C184.872 39.941 181.295 43.5178 181.295 47.9292V83.8762C181.295 88.2876 184.872 91.8644 189.283 91.8644C193.695 91.8644 197.271 88.2876 197.271 83.8762Z" fill="url(#paint4_linear)"/>
<path id="&#195;&#162;&#194;&#130;&#194;&#185; 3" d="M290.656 167.975H268.363C272.393 173.093 274.944 179.349 276.014 186.742H295L290.656 201.717H276.298C275.164 212.964 270.724 221.432 262.979 227.118C255.235 232.805 244.466 235.648 230.675 235.648L277.241 289.864V291H255.801L205.738 232.52L205.644 220.674H229.164C237.035 220.611 243.426 218.904 248.339 215.555C253.25 212.143 256.367 207.53 257.689 201.717H203L207.345 186.742H257.502C254.479 174.736 245.222 168.481 229.73 167.975H203.187L207.629 153H295L290.656 167.975Z" fill="url(#paint5_linear)"/>
</g>
<defs>
<linearGradient id="paint0_linear" x1="249.195" y1="106.335" x2="249.195" y2="338.009" gradientUnits="userSpaceOnUse">
<stop stop-color="#760074"/>
<stop offset="1" stop-color="#252D78"/>
</linearGradient>
<linearGradient id="paint1_linear" x1="244.205" y1="325.875" x2="244.205" y2="487" gradientUnits="userSpaceOnUse">
<stop stop-color="#760074"/>
<stop offset="1" stop-color="#252D78"/>
</linearGradient>
<linearGradient id="paint2_linear" x1="249.195" y1="0" x2="249.195" y2="91.8644" gradientUnits="userSpaceOnUse">
<stop stop-color="#760074"/>
<stop offset="1" stop-color="#252D78"/>
</linearGradient>
<linearGradient id="paint3_linear" x1="309.106" y1="39.941" x2="309.106" y2="91.8644" gradientUnits="userSpaceOnUse">
<stop stop-color="#760074"/>
<stop offset="1" stop-color="#252D78"/>
</linearGradient>
<linearGradient id="paint4_linear" x1="189.283" y1="39.941" x2="189.283" y2="91.8644" gradientUnits="userSpaceOnUse">
<stop stop-color="#760074"/>
<stop offset="1" stop-color="#252D78"/>
</linearGradient>
<linearGradient id="paint5_linear" x1="249" y1="153" x2="249" y2="291" gradientUnits="userSpaceOnUse">
<stop stop-color="#760074"/>
<stop offset="1" stop-color="#252D78"/>
</linearGradient>
</defs>
</svg>
