<svg width="512" height="468" viewBox="0 0 512 468" fill="none" xmlns="http://www.w3.org/2000/svg">
<g id="Page 1">
<g id="067   missed call">
<path id="Shape" d="M345.918 401.009L433.955 464.886C440.3 469.492 449.052 468.807 454.603 463.27L507.348 410.649C512.248 405.72 513.414 398.194 510.235 392.014C469.778 312.318 371.244 256.069 256 256.069C140.756 256.069 42.2224 312.318 1.76555 392.014C-1.43561 398.2 -0.2762 405.745 4.63451 410.684L57.3793 463.27C62.9307 468.807 71.682 469.492 78.0271 464.886L166.065 401.009C169.206 398.729 171.404 395.379 172.244 391.59L182.837 343.709C184.423 336.741 189.779 331.249 196.705 329.488C235.572 319.577 276.304 319.577 315.171 329.488C322.097 331.246 327.452 336.74 329.031 343.709L339.624 391.59C340.493 395.396 342.734 398.749 345.918 401.009V401.009Z" fill="url(#paint0_linear)"/>
<path id="Shape_2" d="M441.379 0.0689697L288.6 17.0444L337.779 66.2229L254.932 149.07L114.697 24.4155C107.646 17.9894 97.6842 15.852 88.618 18.8202C79.5517 21.7884 72.7825 29.4033 70.8973 38.7549C69.012 48.1064 72.302 57.7493 79.5101 63.9983L238.407 205.24C248.886 214.553 264.809 214.085 274.723 204.172L375.225 103.67L424.404 152.848L441.379 0.0689697Z" fill="url(#paint1_linear)"/>
</g>
</g>
<defs>
<linearGradient id="paint0_linear" x1="255.991" y1="256.069" x2="255.991" y2="467.93" gradientUnits="userSpaceOnUse">
<stop stop-color="#760074"/>
<stop offset="1" stop-color="#1B1464"/>
</linearGradient>
<linearGradient id="paint1_linear" x1="255.877" y1="0.0689697" x2="255.877" y2="211.927" gradientUnits="userSpaceOnUse">
<stop stop-color="#760074"/>
<stop offset="1" stop-color="#1B1464"/>
</linearGradient>
</defs>
</svg>
