<svg width="500" height="500" viewBox="0 0 500 500" fill="none" xmlns="http://www.w3.org/2000/svg">
<g id="06-cart">
<g id="linear color">
<rect id="Rectangle 5" x="183" y="467" width="133" height="22" fill="white"/>
<rect id="Rectangle 4" x="211" y="393" width="78" height="60" fill="white"/>
<rect id="Rectangle 3" x="13" y="317" width="469" height="71" fill="url(#paint0_linear)"/>
<rect id="Rectangle 2" x="13" y="13" width="469" height="295" fill="white"/>
<path id="Vector" d="M474 0H26C19.1068 0.00793995 12.4982 2.74977 7.62399 7.62399C2.74977 12.4982 0.00793995 19.1068 0 26V378C0.00793995 384.893 2.74977 391.502 7.62399 396.376C12.4982 401.25 19.1068 403.992 26 404H202.671L195.865 458.431C179.249 464.402 163.348 472.199 148.453 481.68C146.667 482.871 145.312 484.604 144.588 486.624C143.863 488.644 143.808 490.844 144.43 492.898C145.052 494.952 146.318 496.751 148.041 498.03C149.765 499.309 151.854 500 154 500H346C348.146 500 350.235 499.309 351.959 498.03C353.682 496.751 354.948 494.952 355.57 492.898C356.192 490.844 356.137 488.644 355.412 486.624C354.688 484.604 353.333 482.871 351.547 481.68C336.652 472.199 320.751 464.402 304.135 458.431L297.329 404H474C480.893 403.992 487.502 401.25 492.376 396.376C497.25 391.502 499.992 384.893 500 378V26C499.992 19.1068 497.25 12.4982 492.376 7.62399C487.502 2.74977 480.893 0.00793995 474 0V0ZM26 20H474C475.591 20.0016 477.116 20.6342 478.241 21.7591C479.366 22.884 479.998 24.4092 480 26V304H20V26C20.0016 24.4092 20.6342 22.884 21.7591 21.7591C22.884 20.6342 24.4092 20.0016 26 20V20ZM202 480H195.474C211.367 473.607 230.783 468 250 468C269.148 468 288.556 473.607 304.459 480H202ZM283.2 452.16C261.418 446.613 238.592 446.613 216.81 452.16L222.827 404H277.173L283.2 452.16ZM480 378C479.998 379.591 479.366 381.116 478.241 382.241C477.116 383.366 475.591 383.998 474 384H26C24.4092 383.998 22.884 383.366 21.7591 382.241C20.6342 381.116 20.0016 379.591 20 378V324H480V378Z" fill="url(#paint1_linear)"/>
<path id="Vector_2" d="M234 364H266C268.652 364 271.196 362.946 273.071 361.071C274.946 359.196 276 356.652 276 354C276 351.348 274.946 348.804 273.071 346.929C271.196 345.054 268.652 344 266 344H234C231.348 344 228.804 345.054 226.929 346.929C225.054 348.804 224 351.348 224 354C224 356.652 225.054 359.196 226.929 361.071C228.804 362.946 231.348 364 234 364Z" fill="url(#paint2_linear)"/>
<path id="Vector_3" d="M98 68H122.792L168.513 205.162C168.852 206.182 169.355 207.14 170 208V208C163.725 207.991 157.657 210.25 152.914 214.359C148.172 218.469 145.073 224.153 144.188 230.365C143.303 236.578 144.692 242.901 148.1 248.171C151.507 253.441 156.702 257.304 162.731 259.047C168.759 260.79 175.214 260.298 180.909 257.66C186.603 255.022 191.152 250.416 193.72 244.69C196.288 238.964 196.702 232.504 194.885 226.497C193.068 220.491 189.142 215.342 183.831 212H267.293C267.105 213.976 267 215.976 267 218C267 230.46 270.695 242.641 277.617 253.001C284.54 263.361 294.379 271.436 305.891 276.204C317.403 280.973 330.07 282.22 342.291 279.789C354.511 277.359 365.737 271.358 374.548 262.548C383.358 253.737 389.359 242.511 391.789 230.291C394.22 218.07 392.973 205.403 388.204 193.891C383.436 182.379 375.361 172.54 365.001 165.617C354.641 158.695 342.46 155 330 155C328.013 155 326.051 155.1 324.11 155.284L339.487 109.163C339.988 107.66 340.125 106.059 339.886 104.492C339.647 102.926 339.039 101.439 338.113 100.153C337.186 98.8675 335.968 97.8206 334.557 97.0985C333.147 96.3764 331.585 95.9999 330 96H202C199.348 96 196.804 97.0536 194.929 98.9289C193.054 100.804 192 103.348 192 106C192 108.652 193.054 111.196 194.929 113.071C196.804 114.946 199.348 116 202 116H316.125L306.777 144.039C306.52 144.019 306.262 144 306 144H218C215.348 144 212.804 145.054 210.929 146.929C209.054 148.804 208 151.348 208 154C208 156.652 209.054 159.196 210.929 161.071C212.804 162.946 215.348 164 218 164H297.589C286.639 170.604 277.941 180.364 272.638 192H185.208L139.487 54.838C138.823 52.8468 137.55 51.1149 135.847 49.8876C134.145 48.6604 132.099 48 130 48H98C95.3478 48 92.8043 49.0536 90.9289 50.9289C89.0536 52.8043 88 55.3478 88 58C88 60.6522 89.0536 63.1957 90.9289 65.0711C92.8043 66.9464 95.3478 68 98 68ZM170 240C168.813 240 167.653 239.648 166.667 238.989C165.68 238.33 164.911 237.392 164.457 236.296C164.003 235.2 163.884 233.993 164.115 232.829C164.347 231.666 164.918 230.596 165.757 229.757C166.596 228.918 167.666 228.347 168.829 228.115C169.993 227.884 171.2 228.003 172.296 228.457C173.392 228.911 174.33 229.68 174.989 230.667C175.648 231.653 176 232.813 176 234C175.998 235.591 175.366 237.116 174.241 238.241C173.116 239.366 171.591 239.998 170 240ZM373 218C373 226.505 370.478 234.818 365.753 241.89C361.028 248.961 354.313 254.472 346.455 257.727C338.598 260.981 329.952 261.833 321.611 260.174C313.27 258.515 305.608 254.419 299.594 248.406C293.581 242.392 289.485 234.73 287.826 226.389C286.167 218.048 287.019 209.402 290.273 201.545C293.528 193.687 299.039 186.972 306.11 182.247C313.182 177.522 321.495 175 330 175C341.4 175.013 352.33 179.547 360.391 187.609C368.453 195.67 372.987 206.6 373 218V218Z" fill="url(#paint3_linear)"/>
<path id="Vector_4" d="M309.528 226.944L325.528 234.944C327.708 236.034 330.211 236.289 332.567 235.663C334.923 235.037 336.968 233.572 338.32 231.544L354.32 207.544C355.762 205.337 356.275 202.65 355.746 200.067C355.217 197.485 353.69 195.215 351.496 193.753C349.303 192.29 346.621 191.753 344.033 192.258C341.446 192.764 339.162 194.27 337.68 196.45L326.58 213.105L318.48 209.053C316.111 207.891 313.378 207.713 310.879 208.557C308.379 209.402 306.314 211.2 305.133 213.56C303.953 215.92 303.754 218.651 304.579 221.157C305.403 223.664 307.185 225.743 309.536 226.941L309.528 226.944Z" fill="url(#paint4_linear)"/>
</g>
</g>
<defs>
<linearGradient id="paint0_linear" x1="247.5" y1="317" x2="247.5" y2="388" gradientUnits="userSpaceOnUse">
<stop/>
<stop offset="0.0001" stop-color="#6C6C6C"/>
<stop offset="1" stop-color="white"/>
</linearGradient>
<linearGradient id="paint1_linear" x1="250" y1="0" x2="250" y2="500" gradientUnits="userSpaceOnUse">
<stop stop-color="#760074"/>
<stop offset="1" stop-color="#252D78"/>
</linearGradient>
<linearGradient id="paint2_linear" x1="250" y1="344" x2="250" y2="364" gradientUnits="userSpaceOnUse">
<stop stop-color="#760074"/>
<stop offset="1" stop-color="#252D78"/>
</linearGradient>
<linearGradient id="paint3_linear" x1="240.5" y1="48" x2="240.5" y2="281" gradientUnits="userSpaceOnUse">
<stop stop-color="#760074"/>
<stop offset="1" stop-color="#252D78"/>
</linearGradient>
<linearGradient id="paint4_linear" x1="330.013" y1="192.073" x2="330.013" y2="235.999" gradientUnits="userSpaceOnUse">
<stop stop-color="#760074"/>
<stop offset="1" stop-color="#252D78"/>
</linearGradient>
</defs>
</svg>
