<svg width="683" height="683" viewBox="0 0 683 683" fill="none" xmlns="http://www.w3.org/2000/svg">
<g id="policy 1" clip-path="url(#clip0_1203_11)">
<g id="Group">
<path id="Vector" d="M166 1.60003C159.467 5.20003 158.667 7.60003 158.667 26.9334V45.3334H142C114.134 45.3334 112 47.4667 112 75.3334V92H93.7337C74.1337 92 71.6003 92.8 68.1337 99.6C67.067 101.733 66.667 173.2 66.667 360.933C66.667 614.667 66.667 619.467 69.3337 623.6C73.3337 630.4 77.467 630.933 120.134 630.4C155.6 630 158.534 629.867 161.2 627.467C163.067 625.733 164 623.333 164 619.867C164 610.933 163.067 610.667 122.4 610.667H86.667V361.333V112H267.334H448V203.733V295.6L419.067 313.467C403.2 323.333 389.734 331.467 389.067 331.733C388.534 332 388 330.133 388 327.6C388 318 396.4 318.667 267.067 318.667C156.4 318.667 150.934 318.8 148.934 321.067C145.734 324.667 146 332.4 149.467 335.467C152.134 337.867 156.534 338 264.8 338.667L377.334 339.333L356.267 352.267L335.067 365.333H297.067C262 365.333 258.934 365.467 256.934 367.733C253.734 371.333 254 379.067 257.467 382.133C260 384.4 262.934 384.667 285.6 385.067C307.467 385.467 310.8 385.867 310.134 387.6C309.734 388.667 309.334 394.667 309.334 400.8V412H230.267C155.2 412 150.934 412.133 148.934 414.4C145.734 418 146 425.733 149.467 428.8C152.134 431.2 155.734 431.333 230.8 431.733L309.334 432.133V445.333V458.667H230.267C155.2 458.667 150.934 458.8 148.934 461.067C145.734 464.667 146 472.4 149.467 475.467C152.134 477.867 155.734 478 230.8 478.4L309.334 478.8V492V505.333H230.267C155.2 505.333 150.934 505.467 148.934 507.733C145.734 511.333 146 519.067 149.467 522.133C152.134 524.533 155.734 524.667 232 525.067L311.6 525.467L314.4 535.2C318.534 549.067 327.867 567.2 336.667 577.6C340.667 582.667 350.134 591.867 357.467 598.267L370.934 610L283.6 610.667C212.4 611.2 196 611.733 194.267 613.2C190.934 615.867 191.334 624.267 194.8 627.467C197.467 629.867 201.334 630 296.534 630.4L395.334 630.667L425.067 656C456.934 683.067 459.734 684.667 468.667 681.2C473.467 679.333 559.2 607.067 577.867 589.333C603.6 564.667 616 534 616 494.8C616 480.933 615.734 478.8 613.334 476.267C609.6 472.267 602.4 472.267 598.667 476.267C596.267 478.8 596 480.933 596 494.933C596 527.467 587.6 550.133 568 570.8C558.4 580.933 464 661.6 462.4 661.067C459.467 660 358.8 573.067 354 567.467C346.267 558.267 340.667 548.933 336.534 537.867C330 520.8 329.467 513.333 329.334 450.533V392.4L345.734 382.4C362.4 372.133 378.267 362.267 431.067 329.6C447.867 319.2 462.134 310.667 462.8 310.667C463.6 310.667 493.734 329.067 530 351.467L596 392.4V415.867C596 437.867 596.134 439.733 598.667 442.4C602.4 446.4 609.6 446.4 613.334 442.4C615.867 439.733 616 437.867 616 413.6C616 392.533 615.6 386.933 613.867 383.2C612.134 379.467 606.8 375.6 585.867 362.533L560 346.4V179.867C560 38.9334 559.734 12.5334 558.134 8.6667C554.134 -0.666637 568.8 2.95069e-05 358.4 2.95069e-05C223.067 0.133363 167.867 0.533363 166 1.60003ZM540 176.667C540 262.8 539.6 333.333 539.067 333.2C538.4 333.2 532.667 329.733 526 325.467L514 317.867L513.334 247.733C512.8 191.067 512.267 177.333 510.8 175.6C508.134 172.267 499.734 172.667 496.534 176.133C494.134 178.8 494 182.133 493.6 242L493.2 305.067L480.667 297.467L468.134 290L468 196.267C468 95.3334 468.134 97.3334 461.067 93.6C458.667 92.4 420.8 91.8667 295.334 91.6L132.667 91.3334V78.6667V66L312.934 65.6L493.2 65.3334L493.6 102.533C494 136.933 494.134 140 496.534 142.533C498.267 144.4 500.667 145.333 504.134 145.333C513.334 145.333 513.334 145.067 513.334 97.0667V54.6667L509.467 50.4L505.6 46L342.134 45.6L178.667 45.3334V32.6667V20H359.334H540V176.667Z" fill="url(#paint0_linear_1203_11)"/>
<path id="Vector_2" d="M194.267 159.733C191.067 163.333 191.333 171.067 194.8 174.133C197.467 176.533 200.667 176.667 267.333 176.667C334 176.667 337.2 176.533 339.867 174.133C343.467 170.8 343.733 162.667 340.267 159.6C338 157.6 331.067 157.333 267.067 157.333C200.267 157.333 196.267 157.467 194.267 159.733Z" fill="url(#paint1_linear_1203_11)"/>
<path id="Vector_3" d="M148.934 227.733C145.734 231.333 146 239.067 149.467 242.133C152.134 244.533 156 244.667 267.334 244.667C378.667 244.667 382.534 244.533 385.2 242.133C388.8 238.8 389.067 230.667 385.6 227.6C383.334 225.467 373.2 225.333 267.067 225.333C156.4 225.333 150.934 225.467 148.934 227.733Z" fill="url(#paint2_linear_1203_11)"/>
<path id="Vector_4" d="M148.934 274.4C145.734 278 146 285.733 149.467 288.8C152.134 291.2 156 291.333 267.334 291.333C378.667 291.333 382.534 291.2 385.2 288.8C388.8 285.467 389.067 277.333 385.6 274.267C383.334 272.133 373.2 272 267.067 272C156.4 272 150.934 272.133 148.934 274.4Z" fill="url(#paint3_linear_1203_11)"/>
<path id="Vector_5" d="M148.934 367.733C145.734 371.333 146 379.067 149.467 382.133C152.134 384.533 154.8 384.667 194 384.667C233.2 384.667 235.867 384.533 238.534 382.133C242.134 378.8 242.4 370.667 238.934 367.6C236.667 365.6 231.6 365.333 193.734 365.333C154.134 365.333 150.934 365.467 148.934 367.733Z" fill="url(#paint4_linear_1203_11)"/>
<path id="Vector_6" d="M444.667 378C397.467 388.4 366.267 431.466 372 478.133C374.8 500.267 382.533 515.867 398.667 532C416.933 550.4 436.667 558.667 462.8 558.667C488.667 558.667 508.133 550.667 526.8 532C535.333 523.467 539.467 518 543.6 510C559.467 479.066 557.6 445.2 538.533 416.666C518.267 386.4 479.333 370.266 444.667 378ZM486.267 400.4C511.467 409.066 529.733 431.466 533.6 458.266C536.533 478.133 529.6 500.133 515.867 515.2C487.333 546.4 439.467 546.8 410.667 516.133C398 502.667 391.733 486.533 391.733 467.866C391.733 447.866 398.4 431.333 412.267 417.466C421.2 408.666 434.4 401.066 446.133 398C457.467 395.2 474.267 396.133 486.267 400.4Z" fill="url(#paint5_linear_1203_11)"/>
<path id="Vector_7" d="M476.134 458L459.334 474.534L449.201 464.667C437.867 453.467 434.267 452.4 428.667 458C422.401 464.134 423.734 467.2 440.401 483.734C452.801 496.134 456.001 498.667 459.467 498.667C462.801 498.667 466.667 495.467 485.067 476.934C508.667 453.2 509.867 451.067 503.334 444.667C497.201 438.4 494.534 439.734 476.134 458Z" fill="url(#paint6_linear_1203_11)"/>
</g>
</g>
<defs>
<linearGradient id="paint0_linear_1203_11" x1="341.334" y1="682.54" x2="341.334" y2="-0.010376" gradientUnits="userSpaceOnUse">
<stop stop-color="#760074"/>
<stop offset="1" stop-color="#252D78"/>
</linearGradient>
<linearGradient id="paint1_linear_1203_11" x1="267.374" y1="176.667" x2="267.374" y2="157.333" gradientUnits="userSpaceOnUse">
<stop stop-color="#760074"/>
<stop offset="1" stop-color="#252D78"/>
</linearGradient>
<linearGradient id="paint2_linear_1203_11" x1="267.374" y1="244.667" x2="267.374" y2="225.333" gradientUnits="userSpaceOnUse">
<stop stop-color="#760074"/>
<stop offset="1" stop-color="#252D78"/>
</linearGradient>
<linearGradient id="paint3_linear_1203_11" x1="267.374" y1="291.333" x2="267.374" y2="272" gradientUnits="userSpaceOnUse">
<stop stop-color="#760074"/>
<stop offset="1" stop-color="#252D78"/>
</linearGradient>
<linearGradient id="paint4_linear_1203_11" x1="194.041" y1="384.667" x2="194.041" y2="365.333" gradientUnits="userSpaceOnUse">
<stop stop-color="#760074"/>
<stop offset="1" stop-color="#252D78"/>
</linearGradient>
<linearGradient id="paint5_linear_1203_11" x1="462.809" y1="558.667" x2="462.809" y2="376.077" gradientUnits="userSpaceOnUse">
<stop stop-color="#760074"/>
<stop offset="1" stop-color="#252D78"/>
</linearGradient>
<linearGradient id="paint6_linear_1203_11" x1="465.981" y1="498.667" x2="465.981" y2="441.277" gradientUnits="userSpaceOnUse">
<stop stop-color="#760074"/>
<stop offset="1" stop-color="#252D78"/>
</linearGradient>
<clipPath id="clip0_1203_11">
<rect width="682.667" height="682.667" fill="white"/>
</clipPath>
</defs>
</svg>
