<svg width="513" height="513" viewBox="0 0 513 513" fill="none" xmlns="http://www.w3.org/2000/svg">
<g id="Rates" clip-path="url(#clip0)">
<g id="Group">
<g id="Group_2">
<path id="Vector" d="M477.958 262.633C475.898 258.418 475.898 253.584 477.958 249.37L497.054 210.305C507.686 188.554 499.262 162.629 477.876 151.282L439.466 130.902C435.322 128.704 432.481 124.792 431.67 120.173L424.158 77.344C419.975 53.498 397.917 37.474 373.95 40.865L330.897 46.955C326.25 47.611 321.655 46.117 318.284 42.856L287.033 12.624C269.632 -4.20996 242.372 -4.21096 224.972 12.624L193.72 42.859C190.348 46.121 185.753 47.612 181.107 46.958L138.054 40.868C114.079 37.475 92.0289 53.501 87.8459 77.347L80.3339 120.174C79.5229 124.794 76.6819 128.705 72.5389 130.904L34.1289 151.284C12.7429 162.63 4.31889 188.557 14.9509 210.308L34.0459 249.372C36.1059 253.587 36.1059 258.421 34.0459 262.635L14.9499 301.699C4.31789 323.45 12.7419 349.375 34.1279 360.722L72.5379 381.102C76.6819 383.3 79.5229 387.212 80.3339 391.831L87.8459 434.66C91.6539 456.368 110.268 471.592 131.661 471.59C133.768 471.59 135.906 471.442 138.055 471.138L181.108 465.048C185.751 464.389 190.349 465.886 193.721 469.147L224.972 499.379C233.674 507.797 244.836 512.005 256.002 512.004C267.165 512.003 278.334 507.795 287.032 499.379L318.284 469.147C321.656 465.886 326.252 464.396 330.897 465.048L373.95 471.138C397.928 474.53 419.975 458.505 424.158 434.659L431.671 391.832C432.482 387.212 435.323 383.301 439.466 381.102L477.876 360.722C499.262 349.376 507.686 323.449 497.054 301.698L477.958 262.633ZM196.941 123.116C226.793 123.116 251.08 147.403 251.08 177.255C251.08 207.107 226.793 231.394 196.941 231.394C167.089 231.394 142.802 207.107 142.802 177.255C142.802 147.403 167.089 123.116 196.941 123.116ZM168.997 363.886C166.114 366.769 162.335 368.211 158.557 368.211C154.779 368.211 150.999 366.77 148.117 363.886C142.351 358.12 142.351 348.771 148.117 343.005L343.006 148.116C348.771 142.35 358.121 142.35 363.887 148.116C369.653 153.882 369.653 163.231 363.887 168.997L168.997 363.886ZM315.061 388.888C285.209 388.888 260.922 364.601 260.922 334.749C260.922 304.897 285.209 280.61 315.061 280.61C344.913 280.61 369.2 304.897 369.2 334.749C369.2 364.601 344.913 388.888 315.061 388.888Z" fill="url(#paint0_linear)"/>
</g>
</g>
<g id="Group_3">
<g id="Group_4">
<path id="Vector_2" d="M315.061 310.141C301.492 310.141 290.452 321.18 290.452 334.749C290.452 348.318 301.491 359.357 315.061 359.357C328.63 359.357 339.669 348.318 339.669 334.749C339.669 321.18 328.63 310.141 315.061 310.141Z" fill="url(#paint1_linear)"/>
</g>
</g>
<g id="Group_5">
<g id="Group_6">
<path id="Vector_3" d="M196.941 152.646C183.372 152.646 172.333 163.685 172.333 177.254C172.333 190.823 183.372 201.863 196.941 201.863C210.51 201.863 221.55 190.824 221.55 177.254C221.549 163.686 210.51 152.646 196.941 152.646Z" fill="url(#paint2_linear)"/>
</g>
</g>
</g>
<defs>
<linearGradient id="paint0_linear" x1="256.002" y1="-0.00183105" x2="256.002" y2="512.004" gradientUnits="userSpaceOnUse">
<stop stop-color="#760074"/>
<stop offset="1" stop-color="#1B1464"/>
</linearGradient>
<linearGradient id="paint1_linear" x1="315.061" y1="310.141" x2="315.061" y2="359.357" gradientUnits="userSpaceOnUse">
<stop stop-color="#760074"/>
<stop offset="1" stop-color="#1B1464"/>
</linearGradient>
<linearGradient id="paint2_linear" x1="196.942" y1="152.646" x2="196.942" y2="201.863" gradientUnits="userSpaceOnUse">
<stop stop-color="#760074"/>
<stop offset="1" stop-color="#1B1464"/>
</linearGradient>
<clipPath id="clip0">
<rect width="512.003" height="512.003" fill="white"/>
</clipPath>
</defs>
</svg>
