<svg width="683" height="683" viewBox="0 0 683 683" fill="none" xmlns="http://www.w3.org/2000/svg">
<g id="report" clip-path="url(#clip0_1403_9)">
<g id="Group">
<path id="Vector" d="M14.0001 1.86647C8.40013 4.26647 1.60013 12.3998 0.666797 17.5998C0.266797 19.9998 0.133464 150.8 0.266797 308.133L0.666797 594.266L4.53346 599.2C9.73346 606.133 17.2001 609.333 28.4001 609.333H37.3335V618C37.3335 627.467 39.7335 634.8 44.4001 639.733C49.2001 644.8 52.0001 645.867 64.0001 646.667L75.3335 647.333L76.0001 658C76.8001 670.667 79.6001 675.6 88.4001 679.867C94.1335 682.667 94.6668 682.667 254.8 682.667H415.333L464.267 633.6L513.333 584.666V532.933V481.333H522.4C541.467 481.333 567.067 475.2 587.733 465.866C600.133 460.133 602.667 458 602.667 453.066C602.667 447.733 600.533 444.133 596.4 442.533C593.6 441.466 590.8 442.4 579.6 447.466C530.533 470 474.267 464.533 431.467 433.066L422.267 426.4L471.6 377.066L520.8 327.866L587.733 345.466C650.8 362.133 654.667 363.333 653.867 366C651.6 373.866 640.4 394.266 632.8 404.666C628 411.066 624 417.333 624 418.666C624 423.2 629.2 428 634.267 428C639.867 428 644.667 423.333 654.8 408C666.4 390.533 674.533 371.333 679.6 349.066C682.8 334.933 682.8 299.066 679.467 284.266C672.133 250.266 656.4 221.6 632.133 198.266C602.933 170.133 567.467 154.533 527.733 152.4L513.467 151.6L513.067 120L512.667 88.3998L508.8 83.4665C503.6 76.5331 496.133 73.3331 485.2 73.3331H476.4L475.733 63.4665C474.533 45.8665 467.2 38.6665 449.2 37.5998L438.667 36.9331V31.9998C438.667 23.5998 436.133 13.3331 433.2 9.06647C431.6 6.7998 427.867 3.86647 424.8 2.53314C419.6 0.133135 411.6 -0.000198364 218.667 0.133135C55.7335 0.133135 17.2001 0.399802 14.0001 1.86647ZM417.333 22.5331C418 23.9998 418.667 27.8665 418.667 31.1998V37.3331H301.467C185.067 37.3331 184.4 37.3331 180.8 40.1331C176.4 43.5998 176 50.6665 180 54.6665C182.667 57.3331 184.4 57.3331 317.733 57.3331C421.067 57.3331 453.2 57.7331 454.4 58.9331C455.333 59.8665 456 63.4665 456 66.9331V73.3331L273.6 73.5998L91.2001 73.9998L85.7335 77.5998C75.0668 84.6665 76.0001 58.2665 76.0001 358.533V626.8L67.0668 626.4L58.0001 626L57.6001 343.466C57.4668 135.733 57.7335 60.5331 58.8001 59.1998C60.0001 57.7331 67.8668 57.3331 97.4668 57.3331C132.933 57.3331 134.8 57.1998 137.333 54.6665C141.333 50.6665 140.933 43.5998 136.4 39.9998C132.933 37.1998 131.867 37.1998 93.3335 37.5998C54.9335 37.9998 53.8668 38.1331 49.0668 41.0665C46.4001 42.7998 42.8001 46.3998 41.0668 49.0665L38.0001 53.9998L37.6001 321.733L37.3335 589.466L28.9335 589.066L20.6668 588.666L20.2668 306C20.1335 150.533 20.2668 22.5331 20.6668 21.5998C21.0668 20.3998 62.0001 19.9998 218.533 19.9998C412.267 19.9998 415.867 19.9998 417.333 22.5331ZM493.067 123.6C493.467 156.533 494.4 153.466 483.333 155.333C473.733 156.933 456.8 162.8 445.2 168.666C401.2 190.4 370.8 227.866 357.733 276C353.2 293.2 351.867 326.666 355.2 344.666C364.4 394.533 393.733 436 437.067 460.533C448.267 466.933 466.667 474.133 478 476.666C483.2 477.733 488.667 479.066 490.4 479.333L493.333 480V524.666V569.333H458.4C438.4 569.333 421.2 570 418.4 570.666C412 572.533 405.467 578 403.2 583.6C401.733 586.933 401.333 596.8 401.333 625.333V662.667L249.067 662.4L96.6668 662L96.2668 379.333C96.1335 223.866 96.2668 95.8665 96.6668 94.9331C97.0668 93.5998 137.467 93.3331 294.933 93.5998L492.667 93.9998L493.067 123.6ZM541.467 174C547.6 175.066 556.133 176.933 560.267 178.266L567.867 180.666L538.533 246L509.2 311.333L458.667 361.866L408.267 412.4L401.467 403.2C388.667 385.866 379.333 364.666 375.467 344C372.8 330 372.667 303.466 375.333 289.733C386.533 230.666 432.933 184.8 492.4 174C505.467 171.6 528 171.6 541.467 174ZM597.6 195.866C641.067 224.266 667.2 278.666 661.733 329.866C660.933 336.933 660.133 342.933 659.867 343.2C659.333 343.733 533.2 310.8 532.267 309.866C531.467 309.333 585.733 189.333 586.8 189.333C587.2 189.333 592.133 192.266 597.6 195.866ZM450.533 618.4L422 647.467L421.6 619.467C421.333 598 421.733 591.333 422.933 590.4C423.867 589.866 436.933 589.333 451.867 589.333H478.933L450.533 618.4Z" fill="url(#paint0_linear_1403_9)"/>
<path id="Vector_2" d="M154.8 168.8C151.6 172.933 151.334 174.533 153.6 179.333C154.534 181.467 156.8 183.2 159.867 184.133C163.067 185.067 197.867 185.333 263.734 185.067L362.934 184.667L365.467 181.467C368.8 177.467 368.667 171.333 365.334 168C362.667 165.333 360.934 165.333 260.134 165.333H157.467L154.8 168.8Z" fill="url(#paint1_linear_1403_9)"/>
<path id="Vector_3" d="M154.8 242.133C153.2 244.133 152 246.533 152 247.467C152 251.2 155.2 255.867 158.533 257.333C160.933 258.267 185.867 258.667 239.867 258.4L317.6 258L320.133 254.8C323.467 250.8 323.333 244.667 320 241.333C317.333 238.667 315.6 238.667 237.467 238.667H157.467L154.8 242.133Z" fill="url(#paint2_linear_1403_9)"/>
<path id="Vector_4" d="M154.8 315.467C153.2 317.467 152 319.867 152 320.8C152 324.533 155.2 329.2 158.533 330.667C160.933 331.6 182.8 332 229.2 331.733L296.267 331.333L298.8 328.133C302.133 324.133 302 318.533 298.667 314.933L295.867 312H226.667H157.467L154.8 315.467Z" fill="url(#paint3_linear_1403_9)"/>
<path id="Vector_5" d="M222.666 426.667C220.133 429.2 220 431.067 220 462V494.667H197.466H174.8L172.133 498.133C169.466 501.6 169.333 503.333 169.333 538.667V575.6L163.866 576.4C160.933 576.8 157.333 578.133 155.866 579.467C152.533 582.533 152.533 589.867 156 593.333C158.666 596 160.4 596 254.666 596C348.933 596 350.666 596 353.333 593.333C359.466 587.2 355.066 577.733 345.6 576.4L340 575.6V526C340 477.733 339.866 476.267 337.2 472.8L334.533 469.333H311.866H289.333V449.6C289.333 422.133 292 424 254.666 424C227.066 424 225.2 424.133 222.666 426.667ZM269.333 510V576H254.666H240V510V444H254.666H269.333V510ZM320 532.667V576H304.666H289.333V532.667V489.333H304.666H320V532.667ZM220 545.333V576H204.666H189.333V545.333V514.667H204.666H220V545.333Z" fill="url(#paint4_linear_1403_9)"/>
</g>
</g>
<defs>
<linearGradient id="paint0_linear_1403_9" x1="341.1" y1="682.667" x2="341.1" y2="0.0977783" gradientUnits="userSpaceOnUse">
<stop stop-color="#760074"/>
<stop offset="1" stop-color="#252D78"/>
</linearGradient>
<linearGradient id="paint1_linear_1403_9" x1="260.007" y1="185.165" x2="260.007" y2="165.333" gradientUnits="userSpaceOnUse">
<stop stop-color="#760074"/>
<stop offset="1" stop-color="#252D78"/>
</linearGradient>
<linearGradient id="paint2_linear_1403_9" x1="237.284" y1="258.481" x2="237.284" y2="238.667" gradientUnits="userSpaceOnUse">
<stop stop-color="#760074"/>
<stop offset="1" stop-color="#252D78"/>
</linearGradient>
<linearGradient id="paint3_linear_1403_9" x1="226.617" y1="331.814" x2="226.617" y2="312" gradientUnits="userSpaceOnUse">
<stop stop-color="#760074"/>
<stop offset="1" stop-color="#252D78"/>
</linearGradient>
<linearGradient id="paint4_linear_1403_9" x1="254.774" y1="596" x2="254.774" y2="423.973" gradientUnits="userSpaceOnUse">
<stop stop-color="#760074"/>
<stop offset="1" stop-color="#252D78"/>
</linearGradient>
<clipPath id="clip0_1403_9">
<rect width="682.667" height="682.667" fill="white"/>
</clipPath>
</defs>
</svg>
