<svg width="500" height="498" viewBox="0 0 500 498" fill="none" xmlns="http://www.w3.org/2000/svg">
<g id="13-transfer">
<g id="linear color">
<path id="Polygon 2" d="M377.5 16L463.67 79H291.33L377.5 16Z" fill="white"/>
<rect id="Rectangle 7" x="38" y="346" width="168" height="104" fill="white"/>
<path id="Polygon 1" d="M122.5 270L208.67 333H36.3305L122.5 270Z" fill="white"/>
<rect id="Rectangle 6" x="294" y="94" width="168" height="104" fill="white"/>
<path id="Vector" d="M26 446C23.3478 446 20.8043 447.054 18.9289 448.929C17.0536 450.804 16 453.348 16 456C16 458.652 17.0536 461.196 18.9289 463.071C20.8043 464.946 23.3478 466 26 466H218C220.652 466 223.196 464.946 225.071 463.071C226.946 461.196 228 458.652 228 456C228 453.348 226.946 450.804 225.071 448.929C223.196 447.054 220.652 446 218 446H212V353H218C220.652 353 223.196 351.946 225.071 350.071C226.946 348.196 228 345.652 228 343V328C228 326.354 227.593 324.733 226.817 323.282C226.04 321.83 224.917 320.593 223.547 319.68L127.547 255.68C125.904 254.585 123.974 254.001 122 254.001C120.026 254.001 118.096 254.585 116.453 255.68L20.453 319.68C19.0833 320.593 17.9602 321.83 17.1834 323.282C16.4066 324.733 16.0001 326.354 16 328V343C16 345.652 17.0536 348.196 18.9289 350.071C20.8043 351.946 23.3478 353 26 353H32V446H26ZM84 354H160V446H84V354ZM180 446V354H192V446H180ZM122 276.019L207.472 333H36.528L122 276.019ZM52 354H64V446H52V354Z" fill="url(#paint0_linear)"/>
<path id="Vector_2" d="M234 478H10C7.34784 478 4.8043 479.054 2.92893 480.929C1.05357 482.804 0 485.348 0 488C0 490.652 1.05357 493.196 2.92893 495.071C4.8043 496.946 7.34784 498 10 498H234C236.652 498 239.196 496.946 241.071 495.071C242.946 493.196 244 490.652 244 488C244 485.348 242.946 482.804 241.071 480.929C239.196 479.054 236.652 478 234 478V478Z" fill="url(#paint1_linear)"/>
<path id="Vector_3" d="M282 192C279.348 192 276.804 193.054 274.929 194.929C273.054 196.804 272 199.348 272 202C272 204.652 273.054 207.196 274.929 209.071C276.804 210.946 279.348 212 282 212H474C476.652 212 479.196 210.946 481.071 209.071C482.946 207.196 484 204.652 484 202C484 199.348 482.946 196.804 481.071 194.929C479.196 193.054 476.652 192 474 192H468V99H474C476.652 99 479.196 97.9464 481.071 96.0711C482.946 94.1957 484 91.6522 484 89V74C484 72.3538 483.593 70.7331 482.817 69.2817C482.04 67.8303 480.917 66.5931 479.547 65.68L383.547 1.68C381.904 0.584883 379.974 0.00050354 378 0.00050354C376.026 0.00050354 374.096 0.584883 372.453 1.68L276.453 65.68C275.083 66.5931 273.96 67.8303 273.183 69.2817C272.407 70.7331 272 72.3538 272 74V89C272 91.6522 273.054 94.1957 274.929 96.0711C276.804 97.9464 279.348 99 282 99H288V192H282ZM340 100H416V192H340V100ZM436 192V100H448V192H436ZM378 22.019L463.473 79H292.527L378 22.019ZM308 100H320V192H308V100Z" fill="url(#paint2_linear)"/>
<path id="Vector_4" d="M490 224H266C263.348 224 260.804 225.054 258.929 226.929C257.054 228.804 256 231.348 256 234C256 236.652 257.054 239.196 258.929 241.071C260.804 242.946 263.348 244 266 244H490C492.652 244 495.196 242.946 497.071 241.071C498.946 239.196 500 236.652 500 234C500 231.348 498.946 228.804 497.071 226.929C495.196 225.054 492.652 224 490 224V224Z" fill="url(#paint3_linear)"/>
<path id="Vector_5" d="M423.129 281.2C420.557 280.553 417.833 280.955 415.557 282.317C413.282 283.678 411.64 285.888 410.993 288.46C403.81 317.333 388.97 343.733 368.039 364.879C347.108 386.024 320.859 401.131 292.061 408.607L304.308 385.713C305.546 383.376 305.808 380.643 305.036 378.113C304.264 375.583 302.521 373.461 300.189 372.214C297.856 370.966 295.124 370.693 292.591 371.455C290.058 372.217 287.93 373.952 286.673 376.279L264.031 418.6C263.403 419.773 263.016 421.06 262.892 422.385C262.768 423.71 262.91 425.047 263.309 426.316C263.708 427.586 264.356 428.763 265.216 429.778C266.076 430.794 267.13 431.628 268.316 432.231L311.116 453.991C312.287 454.586 313.563 454.945 314.872 455.047C316.182 455.149 317.498 454.992 318.747 454.585C319.995 454.178 321.152 453.529 322.149 452.676C323.147 451.822 323.967 450.78 324.563 449.609C325.158 448.439 325.517 447.162 325.618 445.853C325.72 444.544 325.563 443.227 325.157 441.979C324.75 440.73 324.101 439.574 323.247 438.576C322.394 437.578 321.352 436.758 320.181 436.163L301.581 426.706C332.847 417.696 361.199 400.636 383.804 377.232C406.408 353.827 422.472 324.899 430.39 293.339C430.711 292.065 430.777 290.741 430.586 289.441C430.394 288.142 429.949 286.893 429.274 285.765C428.6 284.638 427.71 283.655 426.656 282.871C425.601 282.088 424.403 281.52 423.129 281.2Z" fill="url(#paint4_linear)"/>
<path id="Vector_6" d="M76.872 214.8C78.1456 215.122 79.4702 215.19 80.7699 214.999C82.0697 214.808 83.319 214.363 84.4463 213.689C85.5737 213.014 86.5568 212.124 87.3394 211.069C88.122 210.014 88.6887 208.815 89.007 207.54C96.1904 178.667 111.03 152.267 131.961 131.122C152.893 109.976 179.141 94.8695 207.939 87.393L195.692 110.287C195.066 111.445 194.676 112.716 194.542 114.026C194.409 115.336 194.535 116.659 194.914 117.92C195.294 119.18 195.918 120.354 196.752 121.373C197.586 122.392 198.613 123.236 199.774 123.857C200.934 124.478 202.207 124.864 203.517 124.992C204.827 125.12 206.15 124.988 207.409 124.604C208.669 124.22 209.84 123.59 210.855 122.753C211.871 121.915 212.711 120.884 213.327 119.721L235.969 77.4C236.597 76.2266 236.984 74.9397 237.108 73.6148C237.232 72.2898 237.09 70.9535 236.691 69.684C236.292 68.4145 235.644 67.2374 234.784 66.2217C233.924 65.206 232.87 64.3722 231.684 63.769L188.884 42.009C187.713 41.4138 186.437 41.055 185.128 40.953C183.818 40.8511 182.502 41.008 181.253 41.4149C180.005 41.8217 178.848 42.4706 177.851 43.3243C176.853 44.178 176.033 45.2199 175.438 46.3905C174.842 47.5611 174.483 48.8375 174.382 50.1468C174.28 51.456 174.437 52.7726 174.843 54.0212C175.25 55.2698 175.899 56.4261 176.753 57.424C177.607 58.4218 178.648 59.2418 179.819 59.837L198.419 69.294C167.153 78.3039 138.801 95.364 116.197 118.768C93.5924 142.173 77.5285 171.101 69.611 202.661C69.2904 203.935 69.224 205.259 69.4154 206.559C69.6069 207.858 70.0525 209.107 70.7268 210.235C71.401 211.362 72.2908 212.345 73.3452 213.129C74.3996 213.912 75.5981 214.48 76.872 214.8V214.8Z" fill="url(#paint5_linear)"/>
</g>
</g>
<defs>
<linearGradient id="paint0_linear" x1="122" y1="254.001" x2="122" y2="466" gradientUnits="userSpaceOnUse">
<stop stop-color="#760074"/>
<stop offset="1" stop-color="#252D78"/>
</linearGradient>
<linearGradient id="paint1_linear" x1="122" y1="478" x2="122" y2="498" gradientUnits="userSpaceOnUse">
<stop stop-color="#760074"/>
<stop offset="1" stop-color="#252D78"/>
</linearGradient>
<linearGradient id="paint2_linear" x1="378" y1="0.00050354" x2="378" y2="212" gradientUnits="userSpaceOnUse">
<stop stop-color="#760074"/>
<stop offset="1" stop-color="#252D78"/>
</linearGradient>
<linearGradient id="paint3_linear" x1="378" y1="224" x2="378" y2="244" gradientUnits="userSpaceOnUse">
<stop stop-color="#760074"/>
<stop offset="1" stop-color="#252D78"/>
</linearGradient>
<linearGradient id="paint4_linear" x1="346.77" y1="280.898" x2="346.77" y2="455.077" gradientUnits="userSpaceOnUse">
<stop stop-color="#760074"/>
<stop offset="1" stop-color="#252D78"/>
</linearGradient>
<linearGradient id="paint5_linear" x1="153.23" y1="40.9229" x2="153.23" y2="215.105" gradientUnits="userSpaceOnUse">
<stop stop-color="#760074"/>
<stop offset="1" stop-color="#252D78"/>
</linearGradient>
</defs>
</svg>
