<svg width="512" height="512" viewBox="0 0 512 512" fill="none" xmlns="http://www.w3.org/2000/svg">
<g id="Stamp">
<g id="Group">
<path id="Vector" d="M364.344 209.696L209.704 364.344C218.379 378.019 229.967 389.61 243.64 398.288L398.288 243.64C389.607 229.967 378.017 218.377 364.344 209.696V209.696Z" fill="url(#paint0_linear)" fill-opacity="0.65"/>
<path id="Vector_2" d="M224.8 224.8C208.744 240.814 197.942 261.335 193.83 283.636C189.717 305.936 192.489 328.96 201.776 349.648L349.648 201.776C328.961 192.486 305.936 189.713 283.635 193.826C261.334 197.939 240.813 208.742 224.8 224.8Z" fill="url(#paint1_linear)" fill-opacity="0.65"/>
<path id="Vector_3" d="M383.2 383.2C399.257 367.187 410.059 346.666 414.172 324.365C418.285 302.064 415.513 279.039 406.224 258.352L258.344 406.216C279.032 415.506 302.057 418.28 324.359 414.169C346.662 410.058 367.185 399.256 383.2 383.2V383.2Z" fill="url(#paint2_linear)" fill-opacity="0.65"/>
<path id="Vector_4" d="M480.224 255.384C474.007 250.525 469.152 244.141 466.129 236.852C463.107 229.563 462.021 221.617 462.976 213.784C464.135 204.48 463.155 195.034 460.111 186.167C457.067 177.299 452.038 169.243 445.409 162.613C438.78 155.983 430.724 150.954 421.857 147.908C412.99 144.863 403.544 143.882 394.24 145.04C386.408 145.99 378.464 144.903 371.176 141.882C363.888 138.862 357.504 134.011 352.64 127.8C346.88 120.401 339.508 114.415 331.084 110.297C322.661 106.18 313.408 104.039 304.032 104.039C294.656 104.039 285.403 106.18 276.98 110.297C268.556 114.415 261.184 120.401 255.424 127.8C250.565 134.017 244.181 138.872 236.892 141.895C229.603 144.917 221.657 146.003 213.824 145.048C204.519 143.887 195.071 144.866 186.202 147.91C177.332 150.955 169.275 155.984 162.644 162.614C156.013 169.244 150.983 177.301 147.938 186.17C144.892 195.039 143.912 204.487 145.072 213.792C146.026 221.624 144.94 229.569 141.92 236.858C138.899 244.147 134.046 250.531 127.832 255.392C120.433 261.152 114.447 268.524 110.329 276.948C106.212 285.371 104.071 294.624 104.071 304C104.071 313.376 106.212 322.629 110.329 331.052C114.447 339.476 120.433 346.848 127.832 352.608C134.045 357.47 138.897 363.855 141.918 371.143C144.938 378.431 146.025 386.376 145.072 394.208C143.914 403.513 144.895 412.959 147.941 421.827C150.986 430.695 156.016 438.751 162.647 445.38C169.278 452.01 177.335 457.038 186.204 460.082C195.073 463.126 204.52 464.104 213.824 462.944C221.657 461.993 229.603 463.082 236.892 466.105C244.18 469.129 250.564 473.984 255.424 480.2C261.184 487.599 268.556 493.585 276.98 497.703C285.403 501.82 294.656 503.961 304.032 503.961C313.408 503.961 322.661 501.82 331.084 497.703C339.508 493.585 346.88 487.599 352.64 480.2C357.505 473.99 363.89 469.14 371.177 466.119C378.465 463.097 386.408 462.007 394.24 462.952C403.543 464.11 412.988 463.129 421.855 460.084C430.721 457.039 438.776 452.01 445.405 445.381C452.034 438.752 457.063 430.697 460.108 421.831C463.153 412.964 464.134 403.519 462.976 394.216C462.022 386.383 463.11 378.436 466.133 371.147C469.157 363.858 474.013 357.474 480.232 352.616C487.633 346.856 493.621 339.482 497.74 331.057C501.859 322.631 504 313.376 503.999 303.998C503.998 294.62 501.856 285.365 497.736 276.94C493.616 268.516 487.626 261.143 480.224 255.384V255.384ZM394.504 394.504C376.603 412.406 353.796 424.597 328.966 429.536C304.136 434.475 278.399 431.941 255.01 422.253C231.621 412.565 211.63 396.159 197.565 375.109C183.5 354.06 175.993 329.312 175.993 303.996C175.993 278.68 183.5 253.932 197.565 232.883C211.63 211.833 231.621 195.427 255.01 185.739C278.399 176.051 304.136 173.517 328.966 178.456C353.796 183.395 376.603 195.586 394.504 213.488C406.398 225.369 415.834 239.478 422.271 255.008C428.709 270.538 432.023 287.185 432.023 303.996C432.023 320.807 428.709 337.454 422.271 352.984C415.834 368.514 406.398 382.623 394.504 394.504V394.504Z" fill="url(#paint3_radial)" fill-opacity="0.65"/>
</g>
<g id="Group 9">
<rect id="Rectangle 25" x="109" y="265.152" width="118" height="34" fill="white"/>
<path id="Rectangle 26" d="M130 27.1518L146.5 17.6518L168 13.6518H190.5L212.5 27.1518L224.5 39.1518L236.5 65.6518L242.5 90.6518L200 248.152L207 260.152H130L137.5 248.152L93 90.6518L96.5 65.6518L112 39.1518L130 27.1518Z" fill="white"/>
<path id="Polygon 9" d="M322 308.152V345.652H300V383.152H36V345.652H14V308.152H322Z" fill="white"/>
</g>
<path id="Vector_5" d="M296 296.152H240V280.152C240 273.787 237.471 267.682 232.971 263.181C228.47 258.68 222.365 256.152 216 256.152H208.888V256.048C218.544 164.432 256 130.168 256 88.1518C256.039 65.6771 247.477 44.0393 232.07 27.6761C216.664 11.3129 195.581 1.46443 173.144 0.150607C150.708 -1.16322 128.619 6.15715 111.408 20.6104C94.1974 35.0636 83.1687 55.5542 80.584 77.8798C74.888 127.864 115.448 154.056 127.048 256.152H120C113.635 256.152 107.53 258.68 103.029 263.181C98.5286 267.682 96 273.787 96 280.152V296.152H40C29.3952 296.165 19.2285 300.383 11.7298 307.882C4.23106 315.38 0.0127029 325.547 0 336.152V344.152C0 348.395 1.68571 352.465 4.68629 355.466C7.68687 358.466 11.7565 360.152 16 360.152H24V368.152C24 374.517 26.5286 380.622 31.0294 385.122C35.5303 389.623 41.6348 392.152 48 392.152H288C294.365 392.152 300.47 389.623 304.971 385.122C309.471 380.622 312 374.517 312 368.152V360.152H320C324.243 360.152 328.313 358.466 331.314 355.466C334.314 352.465 336 348.395 336 344.152V336.152C335.987 325.547 331.769 315.38 324.27 307.882C316.772 300.383 306.605 296.165 296 296.152V296.152ZM159.744 16.6078C177.304 14.5396 195.007 19.0545 209.432 29.2798C196.892 36.6654 182.55 40.4289 168 40.1518C153.439 40.4796 139.078 36.7216 126.544 29.3038C136.356 22.3263 147.78 17.9574 159.744 16.6078V16.6078ZM96.488 79.6878C98.2034 65.0319 104.422 51.2689 114.288 40.2958C130.108 51.0375 148.883 56.5799 168 56.1518C187.133 56.615 205.928 51.0606 221.736 40.2718C233.483 53.4562 239.982 70.4936 240 88.1518C240 124.952 202.88 160.472 192.984 254.376L192.8 256.152H143.2C131.832 151.024 91.472 123.68 96.488 79.6878V79.6878ZM112 280.152C112 278.03 112.843 275.995 114.343 274.495C115.843 272.995 117.878 272.152 120 272.152H216C218.122 272.152 220.157 272.995 221.657 274.495C223.157 275.995 224 278.03 224 280.152V296.152H112V280.152ZM296 368.152C296 370.274 295.157 372.308 293.657 373.809C292.157 375.309 290.122 376.152 288 376.152H48C45.8783 376.152 43.8434 375.309 42.3431 373.809C40.8429 372.308 40 370.274 40 368.152V360.152H296V368.152ZM16 344.152V336.152C16 329.787 18.5286 323.682 23.0294 319.181C27.5303 314.68 33.6348 312.152 40 312.152H296C302.365 312.152 308.47 314.68 312.971 319.181C317.471 323.682 320 329.787 320 336.152V344.152H16Z" fill="url(#paint4_linear)"/>
</g>
<defs>
<linearGradient id="paint0_linear" x1="303.996" y1="209.696" x2="303.996" y2="398.288" gradientUnits="userSpaceOnUse">
<stop stop-color="#760074"/>
<stop offset="1" stop-color="#1B1464"/>
</linearGradient>
<linearGradient id="paint1_linear" x1="270.812" y1="191.974" x2="270.812" y2="349.648" gradientUnits="userSpaceOnUse">
<stop stop-color="#760074"/>
<stop offset="1" stop-color="#1B1464"/>
</linearGradient>
<linearGradient id="paint2_linear" x1="337.184" y1="258.352" x2="337.184" y2="416.02" gradientUnits="userSpaceOnUse">
<stop stop-color="#760074"/>
<stop offset="1" stop-color="#1B1464"/>
</linearGradient>
<radialGradient id="paint3_radial" cx="0" cy="0" r="1" gradientUnits="userSpaceOnUse" gradientTransform="translate(304.035 304) rotate(90) scale(199.961 199.964)">
<stop offset="0.677083" stop-color="#760074"/>
<stop offset="1" stop-color="#1B1464"/>
</radialGradient>
<linearGradient id="paint4_linear" x1="168" y1="0" x2="168" y2="392.152" gradientUnits="userSpaceOnUse">
<stop stop-color="#760074"/>
<stop offset="1" stop-color="#1B1464"/>
</linearGradient>
</defs>
</svg>
