<svg width="512" height="512" viewBox="0 0 512 512" fill="none" xmlns="http://www.w3.org/2000/svg">
<g id="Deposits">
<g id="Cheque">
<rect id="Rectangle 1" x="90" y="215" width="393" height="234" fill="white"/>
<path id="Rectangle 2" d="M380 56.5C380 41.036 392.536 28.5 408 28.5V28.5C423.464 28.5 436 41.036 436 56.5V256.5C436 271.964 423.464 284.5 408 284.5V284.5C392.536 284.5 380 271.964 380 256.5V56.5Z" fill="white"/>
<path id="Rectangle 3" d="M28 218C28 202.536 40.536 190 56 190V190C71.464 190 84 202.536 84 218V454C84 469.464 71.464 482 56 482V482C40.536 482 28 469.464 28 454V218Z" fill="white"/>
<rect id="Rectangle 4" x="53" y="457" width="401" height="31" fill="white"/>
<path id="Vector" d="M488 208H448V56C448 45.3913 443.786 35.2172 436.284 27.7157C428.783 20.2143 418.609 16 408 16C397.391 16 387.217 20.2143 379.716 27.7157C372.214 35.2172 368 45.3913 368 56V96C361.641 96.019 355.547 98.5537 351.05 103.05C346.554 107.547 344.019 113.641 344 120V184C344 186.122 344.843 188.157 346.343 189.657C347.843 191.157 349.878 192 352 192C354.122 192 356.157 191.157 357.657 189.657C359.157 188.157 360 186.122 360 184V120C360 117.878 360.843 115.843 362.343 114.343C363.843 112.843 365.878 112 368 112V208H95.2C93.2261 198.279 87.7104 189.638 79.7238 183.755C71.7372 177.871 61.8494 175.165 51.98 176.162C42.1107 177.159 32.9637 181.788 26.315 189.149C19.6663 196.511 15.9901 206.08 16 216V456C16 466.609 20.2143 476.783 27.7157 484.284C35.2172 491.786 45.3914 496 56 496H456C458.122 496 460.157 495.157 461.657 493.657C463.157 492.157 464 490.122 464 488V464H488C490.122 464 492.157 463.157 493.657 461.657C495.157 460.157 496 458.122 496 456V216C496 213.878 495.157 211.843 493.657 210.343C492.157 208.843 490.122 208 488 208ZM384 56C384 49.6348 386.529 43.5303 391.029 39.0294C395.53 34.5286 401.635 32 408 32C414.365 32 420.47 34.5286 424.971 39.0294C429.471 43.5303 432 49.6348 432 56V64H384V56ZM384 80H432V96H384V80ZM384 112H432V304H384V112ZM392 336V320H424V336H392ZM413.76 352L408 375.04L402.24 352H413.76ZM32 216C32 209.635 34.5286 203.53 39.0295 199.029C43.5303 194.529 49.6348 192 56 192C62.3652 192 68.4697 194.529 72.9706 199.029C77.4715 203.53 80 209.635 80 216V424.24C73.1395 418.9 64.6939 416 56 416C47.3061 416 38.8605 418.9 32 424.24V216ZM448 480H56C51.2533 480 46.6131 478.592 42.6663 475.955C38.7196 473.318 35.6434 469.57 33.8269 465.184C32.0104 460.799 31.5351 455.973 32.4612 451.318C33.3872 446.662 35.673 442.386 39.0295 439.029C42.3859 435.673 46.6623 433.387 51.3179 432.461C55.9734 431.535 60.799 432.01 65.1844 433.827C69.5698 435.643 73.3181 438.72 75.9553 442.666C78.5924 446.613 80 451.253 80 456C80 458.122 80.8429 460.157 82.3432 461.657C83.8435 463.157 85.8783 464 88 464H448V480ZM480 448H96V224H368V312C368 314.122 368.843 316.157 370.343 317.657C371.843 319.157 373.878 320 376 320V344C376 346.122 376.843 348.157 378.343 349.657C379.843 351.157 381.878 352 384 352H385.76L400.24 409.92C400.674 411.65 401.673 413.185 403.079 414.282C404.485 415.379 406.217 415.975 408 415.975C409.783 415.975 411.516 415.379 412.921 414.282C414.327 413.185 415.327 411.65 415.76 409.92L430.24 352H432C434.122 352 436.157 351.157 437.657 349.657C439.157 348.157 440 346.122 440 344V320C442.122 320 444.157 319.157 445.657 317.657C447.157 316.157 448 314.122 448 312V224H480V448Z" fill="url(#paint0_linear)"/>
<path id="Vector_2" d="M232 272H344C346.122 272 348.157 271.157 349.657 269.657C351.157 268.157 352 266.122 352 264C352 261.878 351.157 259.843 349.657 258.343C348.157 256.843 346.122 256 344 256H232C229.878 256 227.843 256.843 226.343 258.343C224.843 259.843 224 261.878 224 264C224 266.122 224.843 268.157 226.343 269.657C227.843 271.157 229.878 272 232 272Z" fill="url(#paint1_linear)"/>
<path id="&#226;&#130;&#185;" d="M191.203 298.734H174.609C177.609 302.531 179.508 307.172 180.305 312.656H194.438L191.203 323.766H180.516C179.672 332.109 176.367 338.391 170.602 342.609C164.836 346.828 156.82 348.938 146.555 348.938L181.219 389.156V390H165.258L127.992 346.617L127.922 337.828H145.43C151.289 337.781 156.047 336.516 159.703 334.031C163.359 331.5 165.68 328.078 166.664 323.766H125.953L129.188 312.656H166.523C164.273 303.75 157.383 299.109 145.852 298.734H126.094L129.398 287.625H194.438L191.203 298.734Z" fill="url(#paint2_linear)"/>
<path id="Vector_3" d="M232 304H344C346.122 304 348.157 303.157 349.657 301.657C351.157 300.157 352 298.122 352 296C352 293.878 351.157 291.843 349.657 290.343C348.157 288.843 346.122 288 344 288H232C229.878 288 227.843 288.843 226.343 290.343C224.843 291.843 224 293.878 224 296C224 298.122 224.843 300.157 226.343 301.657C227.843 303.157 229.878 304 232 304Z" fill="url(#paint3_linear)"/>
<path id="Vector_4" d="M232 384H368C370.122 384 372.157 383.157 373.657 381.657C375.157 380.157 376 378.122 376 376C376 373.878 375.157 371.843 373.657 370.343C372.157 368.843 370.122 368 368 368H232C229.878 368 227.843 368.843 226.343 370.343C224.843 371.843 224 373.878 224 376C224 378.122 224.843 380.157 226.343 381.657C227.843 383.157 229.878 384 232 384Z" fill="url(#paint4_linear)"/>
<path id="Vector_5" d="M376 400H232C229.878 400 227.843 400.843 226.343 402.343C224.843 403.843 224 405.878 224 408C224 410.122 224.843 412.157 226.343 413.657C227.843 415.157 229.878 416 232 416H376C378.122 416 380.157 415.157 381.657 413.657C383.157 412.157 384 410.122 384 408C384 405.878 383.157 403.843 381.657 402.343C380.157 400.843 378.122 400 376 400Z" fill="url(#paint5_linear)"/>
<path id="Vector_6" d="M440 400C437.878 400 435.843 400.843 434.343 402.343C432.843 403.843 432 405.878 432 408C432 410.122 432.843 412.157 434.343 413.657C435.843 415.157 437.878 416 440 416H456C458.122 416 460.157 415.157 461.657 413.657C463.157 412.157 464 410.122 464 408C464 405.878 463.157 403.843 461.657 402.343C460.157 400.843 458.122 400 456 400H440Z" fill="url(#paint6_linear)"/>
</g>
</g>
<defs>
<linearGradient id="paint0_linear" x1="256" y1="16" x2="256" y2="496" gradientUnits="userSpaceOnUse">
<stop stop-color="#760074"/>
<stop offset="0.0001" stop-color="#760074"/>
<stop offset="1" stop-color="#1B1464"/>
</linearGradient>
<linearGradient id="paint1_linear" x1="288" y1="256" x2="288" y2="272" gradientUnits="userSpaceOnUse">
<stop stop-color="#760074"/>
<stop offset="0.0001" stop-color="#760074"/>
<stop offset="1" stop-color="#1B1464"/>
</linearGradient>
<linearGradient id="paint2_linear" x1="160.5" y1="256" x2="160.5" y2="384" gradientUnits="userSpaceOnUse">
<stop stop-color="#760074"/>
<stop offset="0.0001" stop-color="#760074"/>
<stop offset="1" stop-color="#1B1464"/>
</linearGradient>
<linearGradient id="paint3_linear" x1="288" y1="288" x2="288" y2="304" gradientUnits="userSpaceOnUse">
<stop stop-color="#760074"/>
<stop offset="0.0001" stop-color="#760074"/>
<stop offset="1" stop-color="#1B1464"/>
</linearGradient>
<linearGradient id="paint4_linear" x1="300" y1="368" x2="300" y2="384" gradientUnits="userSpaceOnUse">
<stop stop-color="#760074"/>
<stop offset="0.0001" stop-color="#760074"/>
<stop offset="1" stop-color="#1B1464"/>
</linearGradient>
<linearGradient id="paint5_linear" x1="304" y1="400" x2="304" y2="416" gradientUnits="userSpaceOnUse">
<stop stop-color="#760074"/>
<stop offset="0.0001" stop-color="#760074"/>
<stop offset="1" stop-color="#1B1464"/>
</linearGradient>
<linearGradient id="paint6_linear" x1="448" y1="400" x2="448" y2="416" gradientUnits="userSpaceOnUse">
<stop stop-color="#760074"/>
<stop offset="0.0001" stop-color="#760074"/>
<stop offset="1" stop-color="#1B1464"/>
</linearGradient>
</defs>
</svg>
