<svg width="512" height="512" viewBox="0 0 512 512" fill="none" xmlns="http://www.w3.org/2000/svg">
<g id="whatsapp" clip-path="url(#clip0_1406_4)">
<path id="Vector" d="M1.2168 512L37.3779 380.523C15.0639 342.037 3.33888 298.411 3.36031 253.675C3.42462 113.813 117.781 0 258.289 0C326.474 0.0213333 390.479 26.4533 438.622 74.4107C486.744 122.368 513.238 186.112 513.217 253.909C513.152 393.792 398.796 507.605 258.289 507.605C215.633 507.584 173.598 496.939 136.365 476.715L1.2168 512ZM142.624 430.784C178.55 452.011 212.846 464.725 258.203 464.747C374.981 464.747 470.111 370.155 470.175 253.867C470.218 137.344 375.539 42.88 258.374 42.8373C141.51 42.8373 46.445 137.429 46.4021 253.696C46.3807 301.163 60.3564 336.704 83.8279 373.888L62.4141 451.712L142.624 430.784ZM386.707 314.219C385.12 311.573 380.876 309.995 374.488 306.816C368.122 303.637 336.805 288.299 330.954 286.187C325.123 284.075 320.879 283.008 316.614 289.365C312.369 295.701 300.151 309.995 296.443 314.219C292.735 318.443 289.005 318.976 282.639 315.797C276.273 312.619 255.738 305.941 231.409 284.331C212.482 267.52 199.685 246.763 195.977 240.405C192.268 234.069 195.591 230.635 198.763 227.477C201.635 224.64 205.129 220.075 208.323 216.363C211.56 212.693 212.61 210.048 214.754 205.803C216.876 201.579 215.826 197.867 214.218 194.688C212.61 191.531 199.878 160.32 194.583 147.627C189.396 135.275 184.144 136.939 180.243 136.747L168.025 136.533C163.781 136.533 156.879 138.112 151.048 144.469C145.218 150.827 128.756 166.144 128.756 197.355C128.756 228.565 151.584 258.709 154.757 262.933C157.951 267.157 199.663 331.2 263.562 358.656C278.759 365.184 290.634 369.088 299.873 372.011C315.135 376.832 329.025 376.149 339.999 374.528C352.239 372.715 377.682 359.189 382.998 344.384C388.314 329.557 388.314 316.864 386.707 314.219Z" fill="url(#paint0_linear_1406_4)"/>
</g>
<defs>
<linearGradient id="paint0_linear_1406_4" x1="257.217" y1="0" x2="257.217" y2="512" gradientUnits="userSpaceOnUse">
<stop stop-color="#252D78"/>
<stop offset="1" stop-color="#760074"/>
</linearGradient>
<clipPath id="clip0_1406_4">
<rect width="512" height="512" fill="white"/>
</clipPath>
</defs>
</svg>
