<svg width="500" height="500" viewBox="0 0 500 500" fill="none" xmlns="http://www.w3.org/2000/svg">
<g id="Customer-Dispute-Form">
<g id="freepik--Floor--inject-8">
<path id="freepik--floor--inject-8" d="M251.111 459.82C378.628 459.82 482.001 400.135 482.001 326.51C482.001 252.885 378.628 193.2 251.111 193.2C123.594 193.2 20.2207 252.885 20.2207 326.51C20.2207 400.135 123.594 459.82 251.111 459.82Z" fill="#F5F5F5"/>
</g>
<g id="freepik--Form--inject-8">
<g id="freepik--Questionary--inject-8">
<path id="Vector" d="M84.5491 410.85L81.4091 409C80.8892 408.657 80.4566 408.197 80.1458 407.657C79.8351 407.117 79.6547 406.512 79.6191 405.89V173.16C79.6562 172.54 79.8373 171.937 80.148 171.399C80.4587 170.861 80.8905 170.402 81.4091 170.06L225.809 86.68C226.366 86.4003 226.981 86.2546 227.604 86.2546C228.227 86.2546 228.842 86.4003 229.399 86.68L232.539 88.5C233.06 88.8411 233.493 89.2989 233.806 89.8371C234.118 90.3752 234.301 90.9789 234.339 91.6V324.37C234.302 324.993 234.121 325.598 233.808 326.138C233.495 326.678 233.061 327.138 232.539 327.48L88.1391 410.85C87.5821 411.13 86.9674 411.275 86.3441 411.275C85.7208 411.275 85.1062 411.13 84.5491 410.85V410.85Z" fill="#37474F"/>
<path id="Vector_2" d="M234.319 91.31C234.189 90.39 233.439 90.05 232.539 90.57L88.1387 173.94C87.6079 174.267 87.1705 174.725 86.8687 175.27L80.1387 171.39C80.4433 170.847 80.8802 170.389 81.4087 170.06L225.809 86.68C226.366 86.4003 226.98 86.2546 227.604 86.2546C228.227 86.2546 228.842 86.4003 229.399 86.68L232.539 88.5C233.02 88.8133 233.427 89.2263 233.735 89.7112C234.042 90.1961 234.241 90.7413 234.319 91.31V91.31Z" fill="#455A64"/>
<path id="Vector_3" d="M87.8191 411C87.7863 411.008 87.752 411.008 87.7191 411L87.5291 411.07H87.4591C87.3491 411.07 87.2391 411.13 87.1291 411.16C86.4176 411.298 85.6821 411.242 84.9991 411C84.8614 410.95 84.7277 410.89 84.5991 410.82L81.4091 409C80.8892 408.657 80.4566 408.197 80.1458 407.657C79.8351 407.117 79.6547 406.512 79.6191 405.89V173.16C79.6411 172.536 79.8199 171.927 80.1391 171.39L86.8691 175.27C86.5436 175.805 86.3611 176.414 86.3391 177.04V409.82C86.3231 410.154 86.418 410.485 86.6091 410.76C86.7309 410.899 86.8888 411.002 87.0653 411.056C87.2419 411.111 87.4301 411.116 87.6091 411.07L87.8191 411Z" fill="#263238"/>
<path id="Vector_4" d="M138.449 163.82C138.402 163.576 138.292 163.348 138.129 163.16L138.009 163.06C137.914 162.989 137.803 162.942 137.686 162.925C137.569 162.907 137.45 162.92 137.339 162.96C137.249 162.981 137.165 163.019 137.089 163.07C136.645 163.376 136.298 163.803 136.089 164.3C135.821 164.863 135.678 165.477 135.669 166.1C135.628 166.566 135.772 167.029 136.069 167.39C136.2 167.517 136.372 167.595 136.554 167.609C136.737 167.624 136.919 167.575 137.069 167.47C137.283 167.341 137.472 167.175 137.629 166.98C137.771 166.794 137.898 166.597 138.009 166.39C138.316 165.788 138.483 165.125 138.499 164.45C138.504 164.239 138.488 164.028 138.449 163.82ZM161.929 111.35C161.408 111.044 160.813 110.885 160.209 110.89C159.061 110.944 157.947 111.288 156.969 111.89C154.239 113.561 152.132 116.079 150.969 119.06C150.779 119.48 150.599 119.92 150.439 120.35C150.279 120.78 150.109 121.22 149.969 121.67C149.829 122.12 149.669 122.57 149.539 123.02C149.489 123.17 149.449 123.33 149.399 123.47L149.139 124.38C149.143 124.423 149.143 124.467 149.139 124.51C148.989 125.06 148.849 125.63 148.689 126.19C148.609 126.5 148.539 126.79 148.459 127.09L148.229 127.98C147.909 129.17 147.589 130.31 147.229 131.4L146.999 132.06C146.889 132.37 146.779 132.68 146.659 132.98C146.539 133.28 146.469 133.44 146.379 133.65C146.229 134.02 146.069 134.37 145.899 134.71C145.729 135.05 145.689 135.14 145.579 135.35C143.049 140.21 139.959 142.11 138.169 144.61C136.599 146.79 136.169 148.53 134.049 151.98C133.379 153.08 132.539 154.35 131.439 155.87C128.389 160.07 127.299 162.15 126.929 163.41C126.925 163.443 126.925 163.477 126.929 163.51C126.929 163.61 126.929 163.7 126.859 163.79C126.855 163.82 126.855 163.85 126.859 163.88C126.855 163.96 126.855 164.04 126.859 164.12C126.824 164.365 126.807 164.612 126.809 164.86V174.2L130.169 176.14V166.79C130.16 166.302 130.231 165.815 130.379 165.35C130.749 164.09 131.829 162.02 134.889 157.82C135.989 156.29 136.829 155.02 137.499 153.92C139.599 150.48 140.049 148.73 141.619 146.57C143.409 144.06 146.499 142.17 149.029 137.3C149.394 136.552 149.717 135.784 149.999 135C151.619 131 152.349 125.61 154.339 121.08C155.5 118.103 157.608 115.59 160.339 113.93C162.389 112.75 163.889 112.65 165.039 113.19L161.929 111.35ZM176.659 123.29C176.379 123.131 176.08 123.01 175.769 122.93C174.499 122.63 172.609 123.37 170.709 123.15C173.379 126.6 177.089 124.38 179.129 124.87C179.446 124.946 179.75 125.071 180.029 125.24L176.659 123.29ZM183.779 136.12C183.679 136.181 183.585 136.251 183.499 136.33L183.359 136.47L183.229 136.62C182.668 137.345 182.359 138.233 182.349 139.15C182.315 139.61 182.454 140.066 182.739 140.43C182.777 140.466 182.817 140.499 182.859 140.53C182.951 140.601 183.06 140.648 183.176 140.665C183.291 140.683 183.409 140.671 183.519 140.63C183.611 140.608 183.699 140.571 183.779 140.52C183.879 140.46 183.969 140.38 184.069 140.31C184.214 140.174 184.345 140.023 184.459 139.86C184.935 139.164 185.196 138.343 185.209 137.5C185.209 136.29 184.569 135.66 183.779 136.12V136.12ZM185.979 127.67C184.899 127.068 183.726 126.652 182.509 126.44C181.989 126.32 181.509 126.19 181.119 126.06C182.457 127.251 184.097 128.05 185.859 128.37C186.928 128.578 187.969 128.914 188.959 129.37L185.979 127.67Z" fill="url(#paint0_linear_603_260)"/>
<path id="Vector_5" d="M189.228 129.54L188.958 129.38C187.969 128.924 186.928 128.588 185.858 128.38C184.096 128.062 182.455 127.262 181.118 126.07C180.784 125.761 180.418 125.486 180.028 125.25C179.748 125.085 179.445 124.963 179.128 124.89C177.128 124.4 173.378 126.62 170.718 123.17L170.628 123.06C168.768 120.55 168.088 114.95 165.298 113.31L165.018 113.15C163.868 112.61 162.368 112.71 160.318 113.89C152.928 118.16 152.678 128.3 150.018 134.97C147.358 141.64 143.578 143.73 141.528 146.6C139.478 149.47 139.338 151.6 134.788 157.86C130.238 164.12 130.068 165.66 130.068 166.86V176.2L190.588 141.2V131.86C190.625 131.381 190.514 130.902 190.271 130.487C190.028 130.073 189.664 129.742 189.228 129.54V129.54ZM137.088 167.47C136.298 167.93 135.668 167.32 135.668 166.1C135.66 165.525 135.784 164.955 136.03 164.435C136.277 163.915 136.638 163.459 137.088 163.1C137.878 162.64 138.508 163.26 138.508 164.48C138.516 165.054 138.392 165.622 138.146 166.14C137.9 166.659 137.538 167.113 137.088 167.47V167.47ZM160.318 139.33C159.939 139.618 159.497 139.813 159.028 139.896C158.559 139.98 158.077 139.95 157.621 139.811C157.166 139.671 156.75 139.425 156.409 139.093C156.068 138.76 155.81 138.351 155.658 137.9C155.136 136.717 154.886 135.432 154.928 134.14C154.928 129.55 157.338 124.44 160.318 122.72C160.721 122.48 161.16 122.308 161.618 122.21C163.978 121.74 165.708 124 165.708 127.91C165.708 132.5 163.298 137.61 160.318 139.33V139.33ZM183.778 140.51C182.988 140.97 182.348 140.36 182.348 139.15C182.342 138.574 182.468 138.004 182.716 137.484C182.964 136.964 183.327 136.508 183.778 136.15C184.568 135.7 185.208 136.31 185.208 137.53C185.214 138.103 185.088 138.67 184.84 139.187C184.592 139.703 184.229 140.156 183.778 140.51V140.51Z" fill="url(#paint1_linear_603_260)"/>
<path id="Vector_6" opacity="0.1" d="M189.228 129.54L188.958 129.38C187.969 128.924 186.928 128.588 185.858 128.38C184.096 128.062 182.455 127.262 181.118 126.07C180.784 125.761 180.418 125.486 180.028 125.25C179.748 125.085 179.445 124.963 179.128 124.89C177.128 124.4 173.378 126.62 170.718 123.17L170.628 123.06C168.768 120.55 168.088 114.95 165.298 113.31L165.018 113.15C163.868 112.61 162.368 112.71 160.318 113.89C152.928 118.16 152.678 128.3 150.018 134.97C147.358 141.64 143.578 143.73 141.528 146.6C139.478 149.47 139.338 151.6 134.788 157.86C130.238 164.12 130.068 165.66 130.068 166.86V176.2L190.588 141.2V131.86C190.625 131.381 190.514 130.902 190.271 130.487C190.028 130.073 189.664 129.742 189.228 129.54V129.54ZM137.088 167.47C136.298 167.93 135.668 167.32 135.668 166.1C135.66 165.525 135.784 164.955 136.03 164.435C136.277 163.915 136.638 163.459 137.088 163.1C137.878 162.64 138.508 163.26 138.508 164.48C138.516 165.054 138.392 165.622 138.146 166.14C137.9 166.659 137.538 167.113 137.088 167.47V167.47ZM160.318 139.33C159.939 139.618 159.497 139.813 159.028 139.896C158.559 139.98 158.077 139.95 157.621 139.811C157.166 139.671 156.75 139.425 156.409 139.093C156.068 138.76 155.81 138.351 155.658 137.9C155.136 136.717 154.886 135.432 154.928 134.14C154.928 129.55 157.338 124.44 160.318 122.72C160.721 122.48 161.16 122.308 161.618 122.21C163.978 121.74 165.708 124 165.708 127.91C165.708 132.5 163.298 137.61 160.318 139.33V139.33ZM183.778 140.51C182.988 140.97 182.348 140.36 182.348 139.15C182.342 138.574 182.468 138.004 182.716 137.484C182.964 136.964 183.327 136.508 183.778 136.15C184.568 135.7 185.208 136.31 185.208 137.53C185.214 138.103 185.088 138.67 184.84 139.187C184.592 139.703 184.229 140.156 183.778 140.51V140.51Z" fill="black"/>
<path id="Vector_7" opacity="0.25" d="M130.279 165.39C130.132 165.855 130.061 166.342 130.069 166.83V176.18L126.709 174.24V164.9C126.707 164.652 126.724 164.405 126.759 164.16C126.755 164.08 126.755 164 126.759 163.92C126.755 163.89 126.755 163.86 126.759 163.83C126.759 163.74 126.759 163.65 126.829 163.55V163.45L130.279 165.39Z" fill="black"/>
<path id="Vector_8" opacity="0.25" d="M141.519 146.61C139.949 148.77 139.519 150.52 137.399 153.96L134.049 152C136.149 148.55 136.599 146.81 138.169 144.63L141.519 146.61Z" fill="black"/>
<path id="Vector_9" opacity="0.25" d="M154.36 121C152.36 125.53 151.64 130.87 150.02 134.92C149.705 135.73 149.345 136.521 148.94 137.29L145.58 135.36C145.69 135.15 145.8 134.93 145.9 134.72C146 134.51 146.23 134.03 146.38 133.66C146.47 133.45 146.57 133.22 146.66 132.99C146.75 132.76 146.89 132.38 147 132.07L147.23 131.41C147.59 130.32 147.91 129.18 148.23 127.99L148.46 127.1C148.54 126.8 148.61 126.51 148.69 126.2C148.85 125.64 148.99 125.07 149.14 124.52C149.144 124.477 149.144 124.433 149.14 124.39L149.4 123.48C149.45 123.34 149.49 123.18 149.54 123.03C149.67 122.58 149.82 122.13 149.97 121.68C150.12 121.23 150.27 120.8 150.44 120.36C150.61 119.92 150.78 119.49 150.97 119.07L154.36 121Z" fill="black"/>
<path id="Vector_10" d="M136.079 164.3C135.812 164.863 135.668 165.477 135.659 166.1C135.619 166.566 135.762 167.029 136.059 167.39C135.771 167.024 135.632 166.564 135.669 166.1C135.68 165.478 135.82 164.865 136.079 164.3V164.3ZM138.519 164.45C138.518 164.238 138.494 164.027 138.449 163.82C138.491 164.027 138.511 164.238 138.509 164.45C138.497 165.125 138.333 165.788 138.029 166.39C138.336 165.788 138.504 165.125 138.519 164.45V164.45ZM182.859 140.53C182.952 140.601 183.061 140.648 183.176 140.665C183.292 140.683 183.41 140.671 183.519 140.63C183.409 140.665 183.292 140.674 183.177 140.656C183.063 140.639 182.954 140.596 182.859 140.53V140.53Z" fill="url(#paint2_linear_603_260)"/>
<path id="Vector_11" d="M165.718 127.91C165.718 132.5 163.298 137.61 160.318 139.33C159.936 139.608 159.495 139.794 159.029 139.872C158.564 139.95 158.086 139.919 157.634 139.782C157.182 139.644 156.769 139.403 156.426 139.079C156.083 138.754 155.82 138.354 155.658 137.91C156.121 137.811 156.563 137.635 156.968 137.39C159.968 135.66 162.358 130.56 162.358 125.97C162.402 124.677 162.149 123.39 161.618 122.21C163.998 121.74 165.718 124 165.718 127.91Z" fill="url(#paint3_linear_603_260)"/>
<path id="Vector_12" opacity="0.3" d="M165.718 127.91C165.718 132.5 163.298 137.61 160.318 139.33C159.936 139.608 159.495 139.794 159.029 139.872C158.564 139.95 158.086 139.919 157.634 139.782C157.182 139.644 156.769 139.403 156.426 139.079C156.083 138.754 155.82 138.354 155.658 137.91C156.121 137.811 156.563 137.635 156.968 137.39C159.968 135.66 162.358 130.56 162.358 125.97C162.402 124.677 162.149 123.39 161.618 122.21C163.998 121.74 165.718 124 165.718 127.91Z" fill="black"/>
<path id="Vector_13" d="M137.999 166.39C137.898 166.6 137.774 166.798 137.629 166.98C137.472 167.175 137.283 167.341 137.069 167.47C136.919 167.575 136.737 167.624 136.554 167.609C136.372 167.595 136.2 167.517 136.069 167.39C135.772 167.029 135.629 166.566 135.669 166.1C135.678 165.477 135.821 164.863 136.089 164.3C136.298 163.803 136.645 163.376 137.089 163.07C137.165 163.019 137.25 162.982 137.339 162.96C137.476 162.912 137.623 162.906 137.764 162.942C137.904 162.977 138.031 163.053 138.129 163.16C138.292 163.348 138.402 163.576 138.449 163.82C138.494 164.027 138.518 164.238 138.519 164.45C138.503 165.129 138.325 165.794 137.999 166.39V166.39Z" fill="#37474F"/>
<path id="Vector_14" d="M185.209 137.5C185.195 138.343 184.935 139.164 184.459 139.86C184.345 140.023 184.214 140.174 184.069 140.31C183.969 140.38 183.879 140.46 183.779 140.52C183.699 140.571 183.611 140.608 183.519 140.63C183.383 140.676 183.237 140.681 183.099 140.645C182.961 140.61 182.835 140.535 182.739 140.43C182.454 140.067 182.315 139.61 182.349 139.15C182.359 138.233 182.668 137.345 183.229 136.62L183.359 136.47L183.499 136.33C183.585 136.251 183.679 136.181 183.779 136.12C184.569 135.66 185.209 136.29 185.209 137.5Z" fill="#37474F"/>
<path id="Vector_15" d="M97.5097 195.71L223.17 123.16C223.503 122.992 223.871 122.905 224.245 122.905C224.618 122.905 224.986 122.992 225.32 123.16L226.53 123.86C226.843 124.066 227.103 124.343 227.291 124.667C227.478 124.992 227.588 125.356 227.61 125.73V317.43C227.588 317.803 227.479 318.166 227.292 318.489C227.104 318.812 226.843 319.086 226.53 319.29L100.87 391.84C100.538 392.013 100.169 392.103 99.7947 392.103C99.4204 392.103 99.0517 392.013 98.7197 391.84L97.5097 391.14C97.1957 390.937 96.9342 390.663 96.7465 390.34C96.5588 390.016 96.4503 389.653 96.4297 389.28V197.58C96.4495 197.205 96.5577 196.84 96.7454 196.515C96.9331 196.19 97.195 195.914 97.5097 195.71V195.71Z" fill="#F5F5F5"/>
<path id="Vector_16" d="M227.57 125.4C227.43 124.96 227.02 124.82 226.57 125.1L100.87 197.65C100.552 197.851 100.29 198.129 100.11 198.46L96.75 196.52C96.9233 196.187 97.1867 195.91 97.51 195.72L223.17 123.17C223.5 122.997 223.867 122.907 224.24 122.907C224.613 122.907 224.98 122.997 225.31 123.17L226.53 123.86C226.797 124.035 227.027 124.261 227.205 124.525C227.384 124.79 227.508 125.087 227.57 125.4V125.4Z" fill="#FAFAFA"/>
<path id="Vector_17" d="M100.62 392C100.491 392.049 100.356 392.082 100.22 392.1H100.01C99.7937 392.125 99.5756 392.125 99.3597 392.1C99.2227 392.083 99.0884 392.05 98.9597 392L98.7197 391.88L97.5097 391.18C97.1946 390.978 96.9323 390.704 96.7444 390.381C96.5566 390.057 96.4487 389.694 96.4297 389.32V197.58C96.4401 197.204 96.5506 196.839 96.7497 196.52L100.11 198.46C99.9203 198.782 99.8138 199.146 99.7997 199.52V391.22C99.7997 391.81 100.14 392.1 100.62 392Z" fill="#E0E0E0"/>
<path id="Vector_18" d="M150.26 151.68L150.09 151.96C149.689 152.615 149.398 153.331 149.23 154.08C149.23 154.14 149.23 154.17 149.23 154.2C149.227 154.217 149.227 154.233 149.23 154.25L147.18 165.79L146.54 169.48C146.54 169.63 146.47 169.78 146.43 169.94C146.391 170.089 146.344 170.236 146.29 170.38C146.29 170.48 146.22 170.58 146.18 170.68L149.54 172.62C149.7 172.234 149.818 171.832 149.89 171.42L150.55 167.73L152.55 156.19C152.702 155.265 153.061 154.387 153.6 153.62L150.26 151.68Z" fill="url(#paint4_linear_603_260)"/>
<path id="Vector_19" d="M127.119 188.91C126.779 189.45 126.459 189.99 126.119 190.53C125.979 190.79 125.839 191.05 125.709 191.31C125.579 191.57 125.389 191.98 125.249 192.31C125.109 192.64 124.929 193.05 124.789 193.43C124.649 193.81 124.509 194.19 124.379 194.57C124.249 194.95 124.089 195.46 123.969 195.91C123.889 196.2 123.809 196.49 123.729 196.8C123.542 197.507 123.372 198.227 123.219 198.96C123.219 199.21 123.109 199.47 123.069 199.72C123.029 199.97 122.939 200.34 122.889 200.64C122.889 200.64 122.889 200.64 122.889 200.69C122.889 200.93 122.889 201.09 123.009 201.16C123.024 201.167 123.041 201.171 123.059 201.171C123.076 201.171 123.093 201.167 123.109 201.16V201.16L125.999 198.9L126.469 198.53L126.699 198.36L126.949 198.16L127.149 198.01L127.319 197.87C128.163 194.813 129.57 191.94 131.469 189.4L128.109 187.46C127.779 187.94 127.439 188.43 127.119 188.91Z" fill="url(#paint5_linear_603_260)"/>
<path id="Vector_20" d="M163.479 126.29C163.319 126.55 163.179 126.81 163.039 127.07C162.948 127.213 162.867 127.364 162.799 127.52C162.679 127.73 162.579 127.95 162.469 128.17C162.359 128.39 162.289 128.52 162.209 128.7C162.039 129.04 161.889 129.38 161.749 129.7C161.609 130.02 161.429 130.44 161.289 130.81C161.149 131.14 161.039 131.47 160.929 131.81C160.749 132.31 160.599 132.81 160.459 133.32C160.379 133.59 160.319 133.85 160.249 134.11C160.251 134.13 160.251 134.15 160.249 134.17C160.249 134.31 160.179 134.44 160.159 134.58C160.079 134.89 160.019 135.21 159.969 135.52C159.919 135.83 159.869 136.01 159.799 136.26C159.729 136.51 159.669 136.78 159.589 137.04C159.509 137.3 159.429 137.53 159.349 137.78C159.349 137.78 159.349 137.78 159.349 137.85C159.249 138.12 159.139 138.4 159.019 138.68C158.899 138.96 158.799 139.23 158.659 139.52C158.625 139.595 158.595 139.672 158.569 139.75C158.469 139.96 158.359 140.17 158.259 140.39L157.729 141.39C157.609 141.63 157.489 141.85 157.359 142.08L160.729 144.02C161.94 141.977 162.824 139.757 163.349 137.44C163.985 134.166 165.183 131.026 166.889 128.16L163.479 126.29Z" fill="url(#paint6_linear_603_260)"/>
<path id="Vector_21" d="M183.47 133.77C183.303 133.669 183.115 133.607 182.92 133.59C183.246 134.111 183.685 134.552 184.204 134.881C184.723 135.21 185.31 135.418 185.92 135.49C186.209 135.494 186.495 135.555 186.76 135.67L183.47 133.77Z" fill="url(#paint7_linear_603_260)"/>
<path id="Vector_22" opacity="0.4" d="M183.47 133.77C183.303 133.669 183.115 133.607 182.92 133.59C183.246 134.111 183.685 134.552 184.204 134.881C184.723 135.21 185.31 135.418 185.92 135.49C186.209 135.494 186.495 135.555 186.76 135.67L183.47 133.77Z" fill="white"/>
<path id="Vector_23" d="M196 148.38C195.472 148.122 194.89 147.996 194.302 148.014C193.715 148.031 193.141 148.191 192.63 148.48C188.72 150.2 187.03 150.98 185.01 151.82C184.62 154.42 186.15 154.66 186.91 154.35C189.75 153.23 191.2 152.54 196 150.43C196.507 150.146 197.075 149.987 197.656 149.968C198.238 149.949 198.815 150.07 199.34 150.32L196 148.38Z" fill="url(#paint8_linear_603_260)"/>
<path id="Vector_24" opacity="0.4" d="M196 148.38C195.472 148.122 194.89 147.996 194.302 148.014C193.715 148.031 193.141 148.191 192.63 148.48C188.72 150.2 187.03 150.98 185.01 151.82C184.62 154.42 186.15 154.66 186.91 154.35C189.75 153.23 191.2 152.54 196 150.43C196.507 150.146 197.075 149.987 197.656 149.968C198.238 149.949 198.815 150.07 199.34 150.32L196 148.38Z" fill="white"/>
<path id="Vector_25" d="M149.519 172.62C148.795 174.204 147.777 175.636 146.519 176.84L135.999 184.75C134.317 186.12 132.801 187.68 131.479 189.4L128.119 187.46C129.438 185.735 130.955 184.17 132.639 182.8L143.179 174.9C144.415 173.688 145.415 172.257 146.129 170.68L149.519 172.62Z" fill="url(#paint9_linear_603_260)"/>
<path id="Vector_26" opacity="0.4" d="M149.519 172.62C148.795 174.204 147.777 175.636 146.519 176.84L135.999 184.75C134.317 186.12 132.801 187.68 131.479 189.4L128.119 187.46C129.438 185.735 130.955 184.17 132.639 182.8L143.179 174.9C144.415 173.688 145.415 172.257 146.129 170.68L149.519 172.62Z" fill="white"/>
<path id="Vector_27" d="M160.68 144.1C159.229 146.783 157.441 149.27 155.36 151.5C154.705 152.141 154.121 152.852 153.62 153.62L150.26 151.68C150.753 150.906 151.337 150.194 152 149.56C154.077 147.329 155.862 144.842 157.31 142.16L160.68 144.1Z" fill="url(#paint10_linear_603_260)"/>
<path id="Vector_28" opacity="0.4" d="M160.68 144.1C159.229 146.783 157.441 149.27 155.36 151.5C154.705 152.141 154.121 152.852 153.62 153.62L150.26 151.68C150.753 150.906 151.337 150.194 152 149.56C154.077 147.329 155.862 144.842 157.31 142.16L160.68 144.1Z" fill="white"/>
<path id="Vector_29" d="M179.659 119.27C178.419 118.62 176.769 118.73 174.829 119.75C171.949 121.26 169.049 124.46 166.829 128.24L163.469 126.24C165.669 122.46 168.569 119.24 171.469 117.75C172.411 117.218 173.467 116.92 174.549 116.88C175.196 116.872 175.834 117.034 176.399 117.35L179.659 119.27Z" fill="url(#paint11_linear_603_260)"/>
<path id="Vector_30" opacity="0.4" d="M179.659 119.27C178.419 118.62 176.769 118.73 174.829 119.75C171.949 121.26 169.049 124.46 166.829 128.24L163.469 126.24C165.669 122.46 168.569 119.24 171.469 117.75C172.411 117.218 173.467 116.92 174.549 116.88C175.196 116.872 175.834 117.034 176.399 117.35L179.659 119.27Z" fill="white"/>
<path id="Vector_31" opacity="0.15" d="M131.509 189.4C129.61 191.94 128.203 194.813 127.359 197.87L127.189 198.01L126.989 198.16L126.739 198.36L126.509 198.53L126.039 198.9L123.189 201.18C123.173 201.187 123.156 201.191 123.139 201.191C123.122 201.191 123.104 201.187 123.089 201.18C122.979 201.11 122.929 200.95 122.969 200.71C122.969 200.71 122.969 200.71 122.969 200.66C122.969 200.36 123.079 200.05 123.149 199.74C123.219 199.43 123.249 199.23 123.299 198.98C123.452 198.253 123.622 197.533 123.809 196.82C123.889 196.51 123.969 196.22 124.049 195.93C124.169 195.48 124.309 195.04 124.459 194.59C124.609 194.14 124.719 193.83 124.869 193.45C125.019 193.07 125.159 192.7 125.329 192.33C125.499 191.96 125.629 191.64 125.789 191.33C125.949 191.02 126.059 190.81 126.199 190.55C126.489 190.01 126.809 189.47 127.199 188.93C127.589 188.39 127.859 187.93 128.199 187.48L131.509 189.4Z" fill="black"/>
<path id="Vector_32" opacity="0.15" d="M153.619 153.62C153.08 154.387 152.721 155.265 152.569 156.19L150.569 167.73L149.909 171.42C149.837 171.832 149.72 172.234 149.559 172.62L146.199 170.68C146.199 170.58 146.279 170.48 146.309 170.38C146.364 170.236 146.41 170.089 146.449 169.94C146.449 169.78 146.529 169.63 146.559 169.48L147.199 165.79L149.249 154.25C149.247 154.233 149.247 154.217 149.249 154.2C149.249 154.2 149.249 154.14 149.249 154.08C149.418 153.331 149.708 152.615 150.109 151.96L150.279 151.68L153.619 153.62Z" fill="black"/>
<path id="Vector_33" opacity="0.15" d="M166.839 128.24C165.132 131.106 163.934 134.246 163.299 137.52C162.773 139.837 161.889 142.057 160.679 144.1L157.309 142.16C157.439 141.93 157.559 141.71 157.679 141.47L158.209 140.47C158.309 140.25 158.419 140.04 158.519 139.83C158.544 139.752 158.574 139.675 158.609 139.6C158.739 139.32 158.859 139.03 158.969 138.76C159.079 138.49 159.199 138.2 159.299 137.93C159.299 137.93 159.299 137.88 159.299 137.86C159.379 137.61 159.469 137.37 159.539 137.12C159.609 136.87 159.689 136.6 159.749 136.34C159.809 136.08 159.869 135.84 159.919 135.6C159.969 135.36 160.029 134.97 160.109 134.66C160.109 134.52 160.169 134.39 160.199 134.25C160.2 134.23 160.2 134.21 160.199 134.19C160.269 133.93 160.329 133.67 160.409 133.4C160.549 132.89 160.699 132.4 160.879 131.89C160.989 131.55 161.099 131.22 161.239 130.89C161.379 130.52 161.539 130.15 161.699 129.78C161.859 129.41 161.989 129.1 162.159 128.78C162.239 128.6 162.329 128.43 162.419 128.25C162.509 128.07 162.629 127.81 162.749 127.6C162.817 127.444 162.897 127.294 162.989 127.15C163.129 126.89 163.269 126.63 163.429 126.37L166.839 128.24Z" fill="black"/>
<path id="Vector_34" d="M123.158 201.18L125.998 198.9C124.868 199.81 123.328 201 123.158 201.18Z" fill="url(#paint12_linear_603_260)"/>
<path id="Vector_35" d="M199.349 150.34C198.823 150.089 198.244 149.968 197.662 149.985C197.079 150.003 196.509 150.159 195.999 150.44C191.209 152.56 189.759 153.25 186.919 154.38C186.159 154.68 184.629 154.44 185.019 151.84C185.015 151.783 185.015 151.727 185.019 151.67L185.669 147.98L187.489 137.92C187.489 137.92 187.899 136.33 186.849 135.74H186.769C186.511 135.613 186.226 135.551 185.939 135.56C185.327 135.485 184.74 135.273 184.221 134.941C183.702 134.609 183.263 134.164 182.939 133.64C182.377 132.805 181.988 131.866 181.794 130.879C181.6 129.892 181.605 128.875 181.809 127.89C182.579 123.57 181.739 120.55 179.809 119.43L179.659 119.33C178.419 118.68 176.769 118.79 174.829 119.81C169.719 122.49 164.559 130.44 163.299 137.58C162.509 142.08 157.979 149.01 155.359 151.58C152.739 154.15 152.569 156.27 152.569 156.27L150.569 167.81L149.909 171.5C149.429 174.26 146.599 176.93 146.599 176.93L135.999 184.75C131.793 188.096 128.758 192.689 127.329 197.87C127.329 197.87 123.329 200.93 123.129 201.18L124.479 200.41L197.199 158.6C197.199 158.6 198.039 158.15 198.199 158.03C198.359 157.91 201.309 155.15 201.309 155.15C201.259 152.77 200.569 151.07 199.349 150.34ZM178.349 129.13C177.569 133.52 174.409 138.41 171.269 140.06C169.099 141.19 167.509 140.49 166.979 138.49C166.746 137.369 166.746 136.211 166.979 135.09C167.749 130.7 170.929 125.81 174.069 124.17C174.359 124.012 174.664 123.881 174.979 123.78C177.549 123 178.999 125.19 178.329 129.13H178.349Z" fill="url(#paint13_linear_603_260)"/>
<path id="Vector_36" d="M123.17 201.19L197.25 158.61L198.25 158.04C198.43 157.93 201.36 155.15 201.36 155.15L127.36 197.87C127.36 197.87 122.88 201.35 123.17 201.19Z" fill="url(#paint14_linear_603_260)"/>
<path id="Vector_37" opacity="0.3" d="M123.17 201.19L197.25 158.61L198.25 158.04C198.43 157.93 201.36 155.15 201.36 155.15L127.36 197.87C127.36 197.87 122.88 201.35 123.17 201.19Z" fill="black"/>
<path id="Vector_38" d="M174.999 123.78C174.684 123.881 174.379 124.012 174.089 124.17C170.949 125.81 167.769 130.7 166.999 135.09C166.766 136.211 166.766 137.369 166.999 138.49C167.529 140.49 169.119 141.19 171.289 140.06C174.429 138.41 177.589 133.52 178.369 129.13C178.999 125.19 177.549 123 174.999 123.78ZM167.199 138.41C166.978 137.328 166.978 136.212 167.199 135.13C167.969 130.79 171.099 125.96 174.199 124.35C174.456 124.214 174.724 124.097 174.999 124C175.203 125.057 175.203 126.143 174.999 127.2C174.229 131.59 171.059 136.48 167.909 138.13C167.68 138.251 167.443 138.354 167.199 138.44V138.41Z" fill="url(#paint15_linear_603_260)"/>
<path id="Vector_39" opacity="0.4" d="M174.999 123.78C174.684 123.881 174.379 124.012 174.089 124.17C170.949 125.81 167.769 130.7 166.999 135.09C166.766 136.211 166.766 137.369 166.999 138.49C167.529 140.49 169.119 141.19 171.289 140.06C174.429 138.41 177.589 133.52 178.369 129.13C178.999 125.19 177.549 123 174.999 123.78ZM167.199 138.41C166.978 137.328 166.978 136.212 167.199 135.13C167.969 130.79 171.099 125.96 174.199 124.35C174.456 124.214 174.724 124.097 174.999 124C175.203 125.057 175.203 126.143 174.999 127.2C174.229 131.59 171.059 136.48 167.909 138.13C167.68 138.251 167.443 138.354 167.199 138.44V138.41Z" fill="black"/>
<path id="Vector_40" d="M116.67 257.69C116.512 257.691 116.357 257.649 116.22 257.57C116.055 257.464 115.923 257.314 115.839 257.138C115.754 256.961 115.72 256.765 115.74 256.57V252.3C115.755 251.916 115.863 251.542 116.054 251.209C116.246 250.877 116.516 250.596 116.84 250.39L120.57 248.24C120.725 248.138 120.905 248.081 121.09 248.075C121.275 248.069 121.459 248.115 121.62 248.207C121.78 248.299 121.912 248.435 122.001 248.598C122.089 248.761 122.13 248.945 122.12 249.13V253.44C122.107 253.824 122 254.199 121.808 254.532C121.616 254.865 121.346 255.146 121.02 255.35L117.29 257.51C117.103 257.623 116.889 257.685 116.67 257.69V257.69ZM121.19 248.95C121.131 248.967 121.074 248.99 121.02 249.02L117.29 251.17C117.103 251.296 116.947 251.464 116.834 251.66C116.721 251.856 116.655 252.075 116.64 252.3V256.61C116.623 256.669 116.623 256.731 116.64 256.79C116.7 256.78 116.757 256.76 116.81 256.73L120.54 254.57C120.727 254.444 120.883 254.276 120.996 254.08C121.109 253.885 121.175 253.666 121.19 253.44V249.13C121.195 249.087 121.195 249.043 121.19 249V248.95Z" fill="#455A64"/>
<path id="Vector_41" d="M125.288 247.62L139.988 239.13C140.478 238.85 140.868 239.07 140.868 239.63V240.78C140.851 241.083 140.762 241.378 140.609 241.64C140.456 241.903 140.243 242.125 139.988 242.29L125.288 250.78C124.808 251.06 124.408 250.84 124.408 250.28V249.13C124.426 248.827 124.515 248.532 124.667 248.27C124.82 248.007 125.033 247.785 125.288 247.62V247.62Z" fill="#E0E0E0"/>
<path id="Vector_42" d="M153.099 236.66C152.941 236.662 152.786 236.62 152.649 236.54C152.483 236.435 152.349 236.286 152.262 236.109C152.176 235.933 152.14 235.736 152.159 235.54V231.23C152.176 230.846 152.286 230.471 152.479 230.138C152.673 229.806 152.944 229.525 153.269 229.32L156.999 227.17C157.154 227.059 157.336 226.995 157.526 226.984C157.715 226.974 157.904 227.017 158.069 227.11C158.231 227.207 158.361 227.348 158.446 227.516C158.531 227.684 158.567 227.872 158.549 228.06V232.37C158.536 232.754 158.429 233.129 158.237 233.462C158.045 233.795 157.775 234.076 157.449 234.28L153.719 236.44C153.536 236.567 153.322 236.643 153.099 236.66V236.66ZM157.609 227.92C157.555 227.94 157.501 227.963 157.449 227.99L153.719 230.14C153.531 230.266 153.373 230.433 153.259 230.629C153.144 230.824 153.076 231.044 153.059 231.27V235.58C153.04 235.638 153.04 235.702 153.059 235.76C153.119 235.748 153.176 235.728 153.229 235.7L156.959 233.54C157.148 233.415 157.305 233.248 157.417 233.051C157.53 232.855 157.596 232.636 157.609 232.41V228.1C157.627 228.041 157.627 227.979 157.609 227.92V227.92Z" fill="#455A64"/>
<path id="Vector_43" d="M161.72 226.59L176.42 218.1C176.91 217.82 177.3 218.04 177.3 218.6V219.75C177.282 220.053 177.193 220.348 177.041 220.61C176.888 220.873 176.675 221.095 176.42 221.26L161.72 229.75C161.23 230.03 160.84 229.81 160.84 229.25V228.1C160.863 227.798 160.954 227.505 161.106 227.244C161.259 226.982 161.468 226.759 161.72 226.59Z" fill="#E0E0E0"/>
<path id="Vector_44" d="M189.519 215.63C189.361 215.631 189.205 215.589 189.069 215.51C188.906 215.402 188.775 215.253 188.69 215.076C188.606 214.9 188.571 214.705 188.589 214.51V210.2C188.604 209.817 188.713 209.443 188.904 209.11C189.096 208.778 189.365 208.496 189.689 208.29L193.419 206.14C193.574 206.034 193.756 205.974 193.944 205.967C194.132 205.96 194.318 206.007 194.481 206.101C194.644 206.195 194.777 206.333 194.865 206.499C194.953 206.665 194.992 206.853 194.979 207.04V211.34C194.963 211.725 194.854 212.1 194.661 212.433C194.467 212.766 194.195 213.046 193.869 213.25L190.139 215.41C189.956 215.538 189.741 215.614 189.519 215.63V215.63ZM190.139 209.11C189.953 209.238 189.798 209.406 189.685 209.601C189.573 209.797 189.506 210.015 189.489 210.24V214.55C189.469 214.608 189.469 214.672 189.489 214.73C189.546 214.724 189.601 214.703 189.649 214.67L193.379 212.51C193.567 212.384 193.725 212.217 193.839 212.021C193.954 211.826 194.022 211.606 194.039 211.38V207.08C194.057 207.018 194.057 206.952 194.039 206.89C194.039 206.89 193.979 206.89 193.869 206.96L190.139 209.11Z" fill="#455A64"/>
<path id="Vector_45" d="M198.15 205.56L212.85 197.07C213.33 196.79 213.73 197.01 213.73 197.57V198.72C213.707 199.022 213.616 199.315 213.463 199.576C213.311 199.838 213.101 200.061 212.85 200.23L198.15 208.72C197.66 209 197.27 208.78 197.27 208.22V207.07C197.287 206.767 197.376 206.472 197.529 206.21C197.682 205.947 197.894 205.725 198.15 205.56Z" fill="#E0E0E0"/>
<path id="Vector_46" d="M125.33 226.58V228.26C125.33 229.18 125.97 229.55 126.76 229.09L212.76 179.48C213.177 179.206 213.524 178.838 213.772 178.406C214.021 177.973 214.164 177.488 214.19 176.99V175.3C214.19 174.39 213.55 174.02 212.76 174.47L126.76 224.09C126.343 224.364 125.996 224.732 125.748 225.164C125.5 225.597 125.356 226.082 125.33 226.58Z" fill="#E0E0E0"/>
<path id="Vector_47" d="M118.779 213.46V215.14C118.779 216.06 119.419 216.43 120.219 215.97L206.169 166.36C206.589 166.088 206.939 165.721 207.189 165.288C207.439 164.855 207.583 164.369 207.609 163.87V162.18C207.609 161.27 206.969 160.9 206.169 161.35L120.219 211C119.803 211.268 119.456 211.631 119.206 212.058C118.956 212.486 118.81 212.966 118.779 213.46V213.46Z" fill="#455A64"/>
<path id="Vector_48" d="M125.33 236.75V238.44C125.33 239.35 125.97 239.72 126.76 239.27L212.76 189.66C213.177 189.386 213.524 189.018 213.772 188.586C214.021 188.153 214.164 187.668 214.19 187.17V185.48C214.19 184.57 213.55 184.2 212.76 184.65L126.76 234.27C126.344 234.543 125.999 234.909 125.75 235.34C125.502 235.771 125.358 236.254 125.33 236.75V236.75Z" fill="#E0E0E0"/>
<path id="Vector_49" d="M115.91 237.62C118.16 235.39 118.72 234.44 118.72 233.62C118.72 232.8 118.39 232.36 117.38 232.94C116.943 233.194 116.568 233.54 116.279 233.955C115.991 234.37 115.796 234.842 115.71 235.34L113.25 235.89C113.464 234.601 113.95 233.373 114.676 232.286C115.402 231.2 116.351 230.281 117.46 229.59C119.92 228.17 121.35 229.23 121.35 231.59C121.213 233.888 120.213 236.048 118.55 237.64V239.59L115.91 241.11V237.62Z" fill="#455A64"/>
<path id="Vector_50" d="M115.879 244.1C115.875 243.619 115.996 243.146 116.231 242.727C116.467 242.308 116.807 241.957 117.219 241.71C118.099 241.2 118.549 241.65 118.549 242.56C118.557 243.043 118.438 243.519 118.205 243.942C117.971 244.365 117.632 244.719 117.219 244.97C116.329 245.48 115.879 245 115.879 244.1Z" fill="#455A64"/>
<path id="Vector_51" d="M117.249 252.3L118.349 253.13L117.349 255.03C117.262 255.146 117.216 255.286 117.216 255.43C117.216 255.574 117.262 255.714 117.349 255.83C117.539 255.97 117.809 255.83 117.969 255.53L118.969 253.64L120.069 254.47C120.229 254.59 120.469 254.47 120.609 254.21C120.682 254.11 120.722 253.989 120.722 253.865C120.722 253.741 120.682 253.62 120.609 253.52L119.509 252.69L120.509 250.79C120.595 250.674 120.641 250.534 120.641 250.39C120.641 250.246 120.595 250.106 120.509 249.99C120.319 249.85 120.049 249.99 119.889 250.29L118.889 252.19L117.789 251.36C117.629 251.24 117.389 251.36 117.249 251.61C117.175 251.71 117.135 251.831 117.135 251.955C117.135 252.079 117.175 252.2 117.249 252.3Z" fill="url(#paint16_linear_603_260)"/>
<path id="Vector_52" d="M116.67 295.66C116.513 295.664 116.357 295.626 116.22 295.55C116.055 295.444 115.923 295.294 115.839 295.118C115.754 294.941 115.72 294.745 115.74 294.55V290.24C115.753 289.856 115.86 289.481 116.052 289.148C116.244 288.815 116.514 288.534 116.84 288.33L120.57 286.18C120.725 286.078 120.905 286.02 121.09 286.015C121.275 286.009 121.459 286.055 121.62 286.147C121.78 286.239 121.912 286.375 122.001 286.538C122.089 286.701 122.13 286.885 122.12 287.07V291.38C122.107 291.764 122 292.139 121.808 292.472C121.616 292.805 121.346 293.086 121.02 293.29L117.29 295.44C117.107 295.567 116.893 295.643 116.67 295.66V295.66ZM121.19 286.93C121.129 286.941 121.071 286.965 121.02 287L117.29 289.15C117.103 289.276 116.947 289.444 116.834 289.64C116.721 289.835 116.655 290.055 116.64 290.28V294.59C116.623 294.649 116.623 294.711 116.64 294.77C116.7 294.76 116.757 294.74 116.81 294.71L120.54 292.55C120.727 292.424 120.883 292.256 120.996 292.06C121.109 291.865 121.175 291.646 121.19 291.42V287.11C121.2 287.05 121.2 286.99 121.19 286.93Z" fill="#455A64"/>
<path id="Vector_53" d="M125.288 285.59L139.988 277.11C140.478 276.83 140.868 277.05 140.868 277.61V278.75C140.852 279.055 140.764 279.352 140.611 279.616C140.458 279.88 140.245 280.104 139.988 280.27L125.288 288.76C124.808 289.04 124.408 288.81 124.408 288.25V287.11C124.425 286.805 124.513 286.509 124.666 286.245C124.819 285.981 125.032 285.756 125.288 285.59V285.59Z" fill="#E0E0E0"/>
<path id="Vector_54" d="M153.099 274.63C152.942 274.635 152.786 274.597 152.649 274.52C152.483 274.415 152.349 274.266 152.262 274.089C152.176 273.913 152.14 273.716 152.159 273.52V269.21C152.174 268.825 152.284 268.45 152.477 268.117C152.671 267.784 152.943 267.504 153.269 267.3L156.999 265.15C157.154 265.039 157.336 264.975 157.526 264.964C157.715 264.954 157.904 264.997 158.069 265.09C158.231 265.187 158.361 265.328 158.446 265.496C158.531 265.664 158.567 265.852 158.549 266.04V270.35C158.536 270.734 158.429 271.109 158.237 271.442C158.045 271.775 157.775 272.056 157.449 272.26L153.719 274.41C153.536 274.537 153.322 274.613 153.099 274.63V274.63ZM157.609 265.9C157.552 265.914 157.498 265.938 157.449 265.97L153.719 268.12C153.531 268.246 153.373 268.413 153.259 268.609C153.144 268.804 153.076 269.024 153.059 269.25V273.56C153.04 273.618 153.04 273.682 153.059 273.74C153.119 273.728 153.176 273.708 153.229 273.68L156.959 271.52C157.147 271.394 157.303 271.226 157.415 271.03C157.528 270.834 157.594 270.615 157.609 270.39V266.08C157.627 266.021 157.627 265.959 157.609 265.9V265.9Z" fill="#455A64"/>
<path id="Vector_55" d="M161.72 264.56L176.42 256.08C176.91 255.8 177.3 256.02 177.3 256.58V257.72C177.284 258.025 177.196 258.322 177.043 258.586C176.89 258.85 176.676 259.074 176.42 259.24L161.72 267.73C161.23 268.01 160.84 267.73 160.84 267.22V266.08C160.861 265.776 160.952 265.482 161.104 265.218C161.257 264.955 161.467 264.73 161.72 264.56Z" fill="#E0E0E0"/>
<path id="Vector_56" d="M189.519 253.6C189.361 253.604 189.206 253.566 189.069 253.49C188.906 253.382 188.775 253.233 188.69 253.056C188.606 252.88 188.571 252.685 188.589 252.49V248.18C188.604 247.797 188.713 247.423 188.904 247.09C189.096 246.758 189.365 246.476 189.689 246.27L193.419 244.12C193.573 244.015 193.754 243.955 193.941 243.948C194.128 243.941 194.314 243.986 194.476 244.079C194.639 244.171 194.772 244.308 194.861 244.472C194.949 244.637 194.99 244.823 194.979 245.01V249.32C194.963 249.705 194.854 250.08 194.661 250.413C194.467 250.746 194.195 251.026 193.869 251.23L190.139 253.38C189.956 253.508 189.741 253.584 189.519 253.6ZM190.139 247.09C189.953 247.218 189.798 247.386 189.685 247.581C189.573 247.777 189.506 247.995 189.489 248.22V252.53C189.469 252.588 189.469 252.652 189.489 252.71C189.544 252.697 189.598 252.677 189.649 252.65L193.379 250.49C193.567 250.364 193.725 250.197 193.839 250.001C193.954 249.806 194.022 249.586 194.039 249.36V245.05C194.056 244.991 194.056 244.929 194.039 244.87C193.979 244.885 193.921 244.908 193.869 244.94L190.139 247.09Z" fill="#455A64"/>
<path id="Vector_57" d="M198.15 243.53L212.85 235.05C213.33 234.77 213.73 234.99 213.73 235.55V236.69C213.708 236.994 213.618 237.288 213.465 237.552C213.313 237.815 213.102 238.04 212.85 238.21L198.15 246.7C197.66 246.98 197.27 246.75 197.27 246.19V245.05C197.286 244.745 197.374 244.448 197.527 244.184C197.68 243.92 197.893 243.696 198.15 243.53V243.53Z" fill="#E0E0E0"/>
<path id="Vector_58" d="M125.33 264.55V266.24C125.33 267.15 125.97 267.52 126.76 267.07L212.76 217.46C213.177 217.186 213.524 216.818 213.772 216.386C214.021 215.953 214.164 215.468 214.19 214.97V213.28C214.19 212.37 213.55 212 212.76 212.45L126.76 262.07C126.344 262.343 125.999 262.709 125.75 263.14C125.502 263.571 125.358 264.054 125.33 264.55Z" fill="#E0E0E0"/>
<path id="Vector_59" d="M125.33 274.73V276.42C125.33 277.33 125.97 277.7 126.76 277.25L212.76 227.63C213.178 227.36 213.526 226.994 213.774 226.562C214.023 226.131 214.165 225.647 214.19 225.15V223.46C214.19 222.54 213.55 222.17 212.76 222.63L126.76 272.25C126.344 272.523 125.999 272.889 125.75 273.32C125.502 273.751 125.358 274.234 125.33 274.73V274.73Z" fill="#E0E0E0"/>
<path id="Vector_60" d="M115.91 275.6C118.16 273.37 118.72 272.42 118.72 271.6C118.72 270.78 118.39 270.34 117.38 270.92C116.943 271.174 116.568 271.52 116.279 271.935C115.991 272.35 115.796 272.822 115.71 273.32L113.25 273.87C113.464 272.581 113.95 271.353 114.676 270.266C115.402 269.18 116.351 268.261 117.46 267.57C119.92 266.15 121.35 267.21 121.35 269.62C121.213 271.917 120.213 274.078 118.55 275.67V277.62L115.91 279.14V275.6Z" fill="#455A64"/>
<path id="Vector_61" d="M115.879 282.08C115.875 281.599 115.996 281.126 116.231 280.707C116.467 280.288 116.807 279.937 117.219 279.69C118.099 279.18 118.549 279.63 118.549 280.54C118.556 281.023 118.436 281.499 118.203 281.921C117.97 282.344 117.631 282.698 117.219 282.95C116.329 283.46 115.879 283 115.879 282.08Z" fill="#455A64"/>
<path id="Vector_62" d="M153.678 269.21L154.778 270.04L153.778 271.94C153.692 272.055 153.646 272.196 153.646 272.34C153.646 272.484 153.692 272.624 153.778 272.74C153.958 272.88 154.238 272.74 154.398 272.44L155.398 270.55L156.498 271.38C156.658 271.5 156.898 271.38 157.028 271.12C157.102 271.02 157.142 270.899 157.142 270.775C157.142 270.651 157.102 270.53 157.028 270.43L155.928 269.6L156.928 267.7C157.009 267.58 157.048 267.436 157.039 267.291C157.03 267.147 156.973 267.009 156.878 266.9C156.698 266.77 156.418 266.9 156.258 267.2L155.258 269.1L154.158 268.27C154.008 268.15 153.768 268.27 153.628 268.52C153.56 268.624 153.528 268.749 153.537 268.873C153.546 268.998 153.595 269.116 153.678 269.21V269.21Z" fill="url(#paint17_linear_603_260)"/>
<path id="Vector_63" d="M116.669 333.64C116.511 333.641 116.355 333.599 116.219 333.52C116.057 333.423 115.927 333.282 115.842 333.114C115.757 332.946 115.721 332.758 115.739 332.57V328.26C115.752 327.876 115.859 327.501 116.051 327.168C116.243 326.835 116.513 326.554 116.839 326.35L120.569 324.2C120.723 324.098 120.903 324.041 121.089 324.035C121.274 324.029 121.457 324.075 121.618 324.167C121.779 324.259 121.911 324.395 121.999 324.558C122.088 324.721 122.129 324.905 122.119 325.09V329.4C122.106 329.784 121.998 330.159 121.807 330.492C121.615 330.825 121.344 331.106 121.019 331.31L117.289 333.46C117.101 333.573 116.888 333.635 116.669 333.64V333.64ZM121.189 324.91C121.128 324.921 121.07 324.945 121.019 324.98L117.289 327.13C117.101 327.256 116.945 327.424 116.833 327.62C116.72 327.815 116.654 328.035 116.639 328.26V332.57C116.623 332.629 116.623 332.691 116.639 332.75C116.7 332.739 116.758 332.715 116.809 332.68L120.539 330.53C120.726 330.404 120.882 330.236 120.995 330.04C121.108 329.845 121.174 329.626 121.189 329.4V325.09C121.198 325.03 121.198 324.97 121.189 324.91V324.91Z" fill="#455A64"/>
<path id="Vector_64" d="M125.288 323.57L139.988 315.08C140.478 314.8 140.868 315.03 140.868 315.59V316.73C140.852 317.035 140.764 317.332 140.611 317.596C140.458 317.86 140.245 318.084 139.988 318.25L125.288 326.74C124.808 327.02 124.408 326.79 124.408 326.23V325.09C124.425 324.785 124.513 324.489 124.666 324.225C124.819 323.961 125.032 323.736 125.288 323.57V323.57Z" fill="#E0E0E0"/>
<path id="Vector_65" d="M153.1 312.61C152.942 312.612 152.786 312.57 152.65 312.49C152.487 312.394 152.354 312.254 152.267 312.086C152.181 311.918 152.144 311.729 152.16 311.54V307.23C152.175 306.845 152.284 306.47 152.478 306.137C152.671 305.804 152.943 305.524 153.27 305.32L157 303.17C157.156 303.064 157.338 303.002 157.526 302.99C157.714 302.978 157.902 303.016 158.07 303.1C158.233 303.208 158.364 303.358 158.448 303.534C158.533 303.71 158.568 303.906 158.55 304.1V308.41C158.537 308.794 158.43 309.169 158.238 309.502C158.046 309.835 157.776 310.116 157.45 310.32L153.72 312.47C153.529 312.569 153.315 312.618 153.1 312.61V312.61ZM157.61 303.88C157.553 303.894 157.499 303.918 157.45 303.95L153.72 306.1C153.531 306.226 153.374 306.393 153.259 306.589C153.145 306.785 153.077 307.004 153.06 307.23V311.54C153.042 311.599 153.042 311.661 153.06 311.72C153.121 311.707 153.178 311.684 153.23 311.65L157 309.5C157.188 309.374 157.344 309.206 157.456 309.011C157.569 308.815 157.635 308.596 157.65 308.37V304.06C157.657 303.997 157.643 303.934 157.61 303.88V303.88Z" fill="#455A64"/>
<path id="Vector_66" d="M161.72 302.54L176.42 294.05C176.91 293.78 177.3 294 177.3 294.56V295.7C177.284 296.005 177.196 296.302 177.043 296.566C176.89 296.83 176.676 297.054 176.42 297.22L161.72 305.71C161.23 305.99 160.84 305.76 160.84 305.2V304.06C160.861 303.756 160.952 303.462 161.104 303.198C161.257 302.935 161.467 302.71 161.72 302.54Z" fill="#E0E0E0"/>
<path id="Vector_67" d="M189.518 291.58C189.36 291.581 189.205 291.539 189.068 291.46C188.907 291.363 188.776 291.222 188.691 291.054C188.607 290.886 188.571 290.697 188.588 290.51V286.2C188.602 285.816 188.709 285.441 188.901 285.108C189.092 284.775 189.363 284.494 189.688 284.29V284.29L193.418 282.14C193.571 282.031 193.751 281.967 193.939 281.956C194.126 281.944 194.313 281.986 194.477 282.076C194.642 282.165 194.779 282.299 194.871 282.463C194.963 282.626 195.007 282.813 194.998 283V287.31C194.983 287.695 194.874 288.07 194.681 288.403C194.487 288.736 194.215 289.016 193.888 289.22L190.158 291.37C189.969 291.498 189.747 291.571 189.518 291.58V291.58ZM190.138 285.07C189.952 285.198 189.798 285.366 189.685 285.561C189.573 285.757 189.505 285.975 189.488 286.2V290.51C189.471 290.569 189.471 290.631 189.488 290.69C189.545 290.676 189.599 290.652 189.648 290.62L193.378 288.47C193.567 288.344 193.725 288.177 193.839 287.981C193.953 287.785 194.022 287.566 194.038 287.34V283C194.056 282.941 194.056 282.879 194.038 282.82C193.98 282.833 193.922 282.853 193.868 282.88L190.138 285.07Z" fill="#455A64"/>
<path id="Vector_68" d="M198.15 281.51L212.85 273.02C213.33 272.75 213.73 273.02 213.73 273.53V274.67C213.708 274.974 213.618 275.268 213.465 275.532C213.313 275.795 213.102 276.02 212.85 276.19L198.15 284.68C197.66 284.96 197.27 284.73 197.27 284.17V283C197.29 282.7 197.38 282.41 197.533 282.151C197.686 281.892 197.897 281.673 198.15 281.51Z" fill="#E0E0E0"/>
<path id="Vector_69" d="M125.33 302.53V304.22C125.33 305.13 125.97 305.5 126.76 305.05L212.76 255.43C213.178 255.16 213.526 254.794 213.774 254.362C214.023 253.931 214.165 253.447 214.19 252.95V251.26C214.19 250.35 213.55 249.97 212.76 250.43L126.76 300.05C126.344 300.323 125.999 300.689 125.75 301.12C125.502 301.551 125.358 302.034 125.33 302.53V302.53Z" fill="#E0E0E0"/>
<path id="Vector_70" d="M125.33 312.71V314.4C125.33 315.31 125.97 315.68 126.76 315.22L212.76 265.61C213.177 265.338 213.524 264.972 213.772 264.541C214.021 264.11 214.164 263.627 214.19 263.13V261.44C214.19 260.52 213.55 260.15 212.76 260.61L126.76 310.23C126.343 310.502 125.997 310.868 125.748 311.299C125.5 311.73 125.356 312.213 125.33 312.71V312.71Z" fill="#E0E0E0"/>
<path id="Vector_71" d="M115.91 313.58C118.16 311.35 118.72 310.4 118.72 309.58C118.72 308.76 118.39 308.31 117.38 308.9C116.943 309.154 116.568 309.5 116.279 309.915C115.991 310.33 115.796 310.802 115.71 311.3L113.25 311.84C113.465 310.553 113.952 309.326 114.678 308.242C115.404 307.158 116.352 306.24 117.46 305.55C119.92 304.13 121.35 305.19 121.35 307.55C121.213 309.847 120.213 312.008 118.55 313.6V315.55L115.91 317.07V313.58Z" fill="#455A64"/>
<path id="Vector_72" d="M115.879 320.06C115.874 319.578 115.995 319.103 116.23 318.682C116.465 318.261 116.806 317.909 117.219 317.66C118.099 317.16 118.549 317.61 118.549 318.52C118.555 319.002 118.435 319.478 118.202 319.9C117.969 320.323 117.63 320.678 117.219 320.93C116.329 321.44 115.879 321 115.879 320.06Z" fill="#455A64"/>
<path id="Vector_73" d="M190.11 286.16L191.2 286.99L190.2 288.89C190.112 289.005 190.065 289.145 190.065 289.29C190.065 289.434 190.112 289.575 190.2 289.69C190.38 289.83 190.66 289.69 190.82 289.39L191.82 287.49L192.92 288.32C193.08 288.44 193.31 288.32 193.45 288.07C193.525 287.971 193.566 287.85 193.566 287.725C193.566 287.6 193.525 287.479 193.45 287.38L192.35 286.55L193.35 284.65C193.426 284.528 193.462 284.385 193.453 284.242C193.444 284.099 193.391 283.961 193.3 283.85C193.12 283.71 192.84 283.85 192.68 284.15L191.68 286.05L190.58 285.21C190.42 285.09 190.18 285.21 190.05 285.47C189.983 285.576 189.952 285.7 189.963 285.825C189.974 285.95 190.026 286.067 190.11 286.16V286.16Z" fill="url(#paint18_linear_603_260)"/>
<path id="Vector_74" d="M116.669 371.62C116.511 371.621 116.355 371.579 116.219 371.5C116.057 371.403 115.927 371.262 115.842 371.094C115.757 370.926 115.721 370.738 115.739 370.55V366.24C115.752 365.856 115.859 365.481 116.051 365.148C116.243 364.815 116.513 364.534 116.839 364.33L120.569 362.17C120.727 362.069 120.908 362.01 121.096 362C121.283 361.989 121.47 362.027 121.639 362.11C121.803 362.216 121.935 362.366 122.02 362.542C122.105 362.719 122.139 362.915 122.119 363.11V367.42C122.103 367.804 121.995 368.178 121.803 368.51C121.612 368.843 121.342 369.124 121.019 369.33L117.289 371.48C117.098 371.579 116.884 371.628 116.669 371.62V371.62ZM121.189 362.89C121.129 362.9 121.071 362.92 121.019 362.95L117.289 365.11C117.101 365.236 116.945 365.404 116.833 365.6C116.72 365.796 116.654 366.015 116.639 366.24V370.55C116.623 370.609 116.623 370.671 116.639 370.73C116.698 370.714 116.755 370.69 116.809 370.66L120.539 368.51C120.726 368.384 120.882 368.216 120.995 368.021C121.108 367.825 121.174 367.606 121.189 367.38V363.07C121.2 363.011 121.2 362.95 121.189 362.89Z" fill="#455A64"/>
<path id="Vector_75" d="M125.288 361.55L139.988 353.06C140.478 352.78 140.868 353.01 140.868 353.57V354.71C140.852 355.015 140.764 355.312 140.611 355.576C140.458 355.84 140.245 356.064 139.988 356.23L125.288 364.72C124.808 365 124.408 364.72 124.408 364.21V363.07C124.425 362.765 124.513 362.469 124.666 362.205C124.819 361.941 125.032 361.716 125.288 361.55V361.55Z" fill="#E0E0E0"/>
<path id="Vector_76" d="M153.099 350.59C152.941 350.592 152.786 350.55 152.649 350.47C152.478 350.371 152.34 350.223 152.252 350.045C152.165 349.867 152.133 349.667 152.159 349.47V345.16C152.175 344.775 152.284 344.4 152.477 344.067C152.671 343.734 152.943 343.454 153.269 343.25L156.999 341.09C157.155 340.987 157.336 340.93 157.522 340.924C157.709 340.919 157.893 340.965 158.054 341.059C158.215 341.153 158.347 341.289 158.434 341.454C158.522 341.618 158.562 341.804 158.549 341.99V346.3C158.536 346.684 158.429 347.059 158.237 347.392C158.046 347.725 157.775 348.006 157.449 348.21L153.719 350.36C153.537 350.491 153.323 350.571 153.099 350.59ZM157.609 341.86C157.554 341.873 157.5 341.893 157.449 341.92L153.719 344.08C153.531 344.206 153.373 344.373 153.259 344.569C153.144 344.765 153.076 344.984 153.059 345.21V349.52C153.042 349.579 153.042 349.641 153.059 349.7C153.118 349.682 153.175 349.658 153.229 349.63L156.959 347.48C157.147 347.354 157.303 347.186 157.416 346.991C157.528 346.795 157.595 346.576 157.609 346.35V342C157.621 341.954 157.621 341.906 157.609 341.86V341.86Z" fill="#455A64"/>
<path id="Vector_77" d="M161.72 340.52L176.42 332.03C176.91 331.75 177.3 332.03 177.3 332.54V333.68C177.284 333.985 177.196 334.282 177.043 334.546C176.89 334.81 176.676 335.034 176.42 335.2L161.72 343.69C161.23 343.97 160.84 343.74 160.84 343.18V342C160.867 341.703 160.96 341.417 161.112 341.16C161.265 340.904 161.472 340.686 161.72 340.52Z" fill="#E0E0E0"/>
<path id="Vector_78" d="M189.518 329.56C189.36 329.561 189.205 329.519 189.068 329.44C188.907 329.343 188.776 329.202 188.691 329.034C188.607 328.866 188.571 328.677 188.588 328.49V324.18C188.602 323.796 188.709 323.421 188.901 323.088C189.092 322.755 189.363 322.474 189.688 322.27L193.418 320.11C193.578 320.009 193.762 319.95 193.951 319.939C194.14 319.929 194.328 319.967 194.498 320.05C194.661 320.158 194.792 320.307 194.877 320.484C194.961 320.66 194.996 320.855 194.978 321.05V325.36C194.961 325.744 194.852 326.119 194.658 326.452C194.465 326.784 194.194 327.065 193.868 327.27L190.138 329.42C189.948 329.52 189.734 329.568 189.518 329.56ZM190.138 323.05C189.952 323.178 189.798 323.346 189.685 323.541C189.573 323.737 189.505 323.955 189.488 324.18V328.49C189.471 328.549 189.471 328.611 189.488 328.67C189.543 328.65 189.597 328.627 189.648 328.6L193.378 326.45C193.567 326.324 193.725 326.157 193.839 325.961C193.953 325.765 194.022 325.546 194.038 325.32V321C194.058 320.942 194.058 320.878 194.038 320.82C193.98 320.833 193.922 320.853 193.868 320.88L190.138 323.05Z" fill="#455A64"/>
<path id="Vector_79" d="M198.15 319.49L212.85 311C213.33 310.72 213.73 310.95 213.73 311.51V312.65C213.708 312.954 213.618 313.248 213.465 313.512C213.313 313.775 213.102 314 212.85 314.17L198.15 322.66C197.66 322.94 197.27 322.66 197.27 322.15V321C197.287 320.697 197.376 320.402 197.529 320.14C197.682 319.877 197.894 319.655 198.15 319.49Z" fill="#E0E0E0"/>
<path id="Vector_80" d="M125.33 340.51V342.2C125.33 343.11 125.97 343.48 126.76 343.02L212.76 293.41C213.177 293.138 213.524 292.772 213.772 292.341C214.021 291.91 214.164 291.427 214.19 290.93V289.24C214.19 288.32 213.55 287.95 212.76 288.41L126.76 338.03C126.343 338.302 125.997 338.668 125.748 339.099C125.5 339.53 125.356 340.013 125.33 340.51V340.51Z" fill="#E0E0E0"/>
<path id="Vector_81" d="M125.33 350.69V352.38C125.33 353.29 125.97 353.66 126.76 353.2L212.76 303.59C213.176 303.317 213.522 302.951 213.77 302.52C214.018 302.089 214.162 301.606 214.19 301.11V299.42C214.19 298.5 213.55 298.13 212.76 298.59L126.76 348.21C126.343 348.482 125.997 348.848 125.748 349.279C125.5 349.71 125.356 350.193 125.33 350.69V350.69Z" fill="#E0E0E0"/>
<path id="Vector_82" d="M115.91 351.56C118.16 349.33 118.72 348.38 118.72 347.56C118.72 346.74 118.39 346.29 117.38 346.88C116.944 347.133 116.569 347.478 116.281 347.89C115.993 348.303 115.798 348.774 115.71 349.27L113.25 349.82C113.465 348.533 113.952 347.306 114.678 346.222C115.404 345.137 116.352 344.22 117.46 343.53C119.92 342.11 121.35 343.17 121.35 345.58C121.213 347.877 120.213 350.038 118.55 351.63V353.58L115.91 355.1V351.56Z" fill="#455A64"/>
<path id="Vector_83" d="M115.879 358C115.874 357.518 115.995 357.043 116.23 356.622C116.465 356.201 116.806 355.849 117.219 355.6C118.099 355.1 118.549 355.54 118.549 356.46C118.556 356.941 118.437 357.416 118.203 357.837C117.97 358.258 117.631 358.611 117.219 358.86C116.329 359.42 115.879 359 115.879 358Z" fill="#455A64"/>
<path id="Vector_84" d="M190.11 324.3L191.2 325.13L190.2 327.03C190.112 327.145 190.065 327.286 190.065 327.43C190.065 327.575 190.112 327.715 190.2 327.83C190.38 327.97 190.66 327.83 190.82 327.53L191.82 325.63L192.92 326.47C193.08 326.59 193.31 326.47 193.45 326.21C193.525 326.111 193.566 325.99 193.566 325.865C193.566 325.74 193.525 325.619 193.45 325.52L192.35 324.69L193.35 322.79C193.426 322.668 193.462 322.526 193.453 322.382C193.444 322.239 193.391 322.102 193.3 321.99C193.12 321.85 192.84 321.99 192.68 322.29L191.68 324.19L190.58 323.35C190.42 323.24 190.18 323.35 190.05 323.61C189.983 323.716 189.952 323.841 189.963 323.965C189.974 324.09 190.026 324.208 190.11 324.3V324.3Z" fill="url(#paint19_linear_603_260)"/>
</g>
</g>
<g id="freepik--sad-face--inject-8">
<g id="freepik--sad-face--inject-8_2">
<path id="Vector_85" d="M287.53 162.46L280.18 158.22L280.11 158.17C276.45 156.1 271.44 156.41 265.89 159.62C260.69 162.62 255.95 167.62 252.38 173.39C248.25 180.05 245.66 187.75 245.66 194.66C245.66 201.11 247.91 205.66 251.56 207.75L259.03 212.02C262.71 214.37 267.92 214.16 273.69 210.83C284.87 204.37 293.93 188.68 293.93 175.78C293.92 169.09 291.46 164.46 287.53 162.46Z" fill="url(#paint20_linear_603_260)"/>
<path id="Vector_86" opacity="0.1" d="M258.87 212L251.55 207.81C247.9 205.69 245.65 201.16 245.65 194.72C245.65 187.81 248.24 180.11 252.37 173.45L260.18 177.96C256.05 184.61 253.46 192.31 253.46 199.21C253.44 205.33 255.5 209.74 258.87 212Z" fill="black"/>
<path id="Vector_87" opacity="0.4" d="M287.38 162.38C283.78 160.63 278.97 161.07 273.68 164.12C268.39 167.17 263.74 172.12 260.16 177.92L252.35 173.41C255.92 167.62 260.67 162.63 265.86 159.64C271.41 156.43 276.42 156.13 280.08 158.19L280.15 158.24L287.38 162.38Z" fill="white"/>
<path id="Vector_88" d="M269.21 181.46C269.224 182.239 269.058 183.01 268.725 183.715C268.392 184.419 267.901 185.037 267.29 185.52C266.23 186.13 265.37 185.31 265.37 183.68C265.356 182.901 265.522 182.13 265.855 181.425C266.188 180.721 266.679 180.103 267.29 179.62C268.35 179 269.21 179.83 269.21 181.46Z" fill="#455A64"/>
<path id="Vector_89" d="M280.14 175.15C280.154 175.929 279.988 176.7 279.655 177.405C279.322 178.109 278.831 178.727 278.22 179.21C277.16 179.82 276.3 179 276.3 177.37C276.286 176.591 276.452 175.82 276.785 175.115C277.118 174.411 277.609 173.793 278.22 173.31C279.28 172.7 280.14 173.52 280.14 175.15Z" fill="#455A64"/>
<path id="Vector_90" d="M262.681 205.84C262.605 205.85 262.527 205.85 262.451 205.84C262.309 205.812 262.175 205.755 262.055 205.674C261.935 205.593 261.833 205.489 261.754 205.368C261.675 205.247 261.621 205.112 261.594 204.969C261.568 204.827 261.57 204.681 261.601 204.54C263.341 196.27 267.771 189.03 272.881 186.08C273.921 185.389 275.109 184.952 276.349 184.803C277.589 184.653 278.846 184.796 280.021 185.22C282.431 186.22 284.291 188.63 285.251 192.05C285.299 192.322 285.245 192.602 285.097 192.836C284.95 193.07 284.721 193.241 284.455 193.314C284.188 193.388 283.904 193.36 283.657 193.235C283.411 193.111 283.219 192.898 283.121 192.64C282.361 189.9 280.961 187.99 279.191 187.26C278.327 186.977 277.41 186.896 276.51 187.024C275.61 187.153 274.751 187.486 274.001 188C269.481 190.61 265.371 197.44 263.781 205C263.72 205.244 263.578 205.46 263.378 205.612C263.178 205.765 262.932 205.845 262.681 205.84V205.84Z" fill="#455A64"/>
</g>
</g>
<g id="freepik--happy-face--inject-8">
<g id="freepik--happy-face--inject-8_2">
<path id="Vector_91" d="M287.53 98.48L280.18 94.24H280.11C276.45 92.17 271.44 92.48 265.89 95.69C260.69 98.69 255.95 103.69 252.38 109.46C248.25 116.12 245.66 123.82 245.66 130.73C245.66 137.18 247.91 141.73 251.56 143.82L259.03 148.09C262.71 150.44 267.92 150.23 273.69 146.9C284.87 140.44 293.93 124.75 293.93 111.9C293.92 105.11 291.46 100.48 287.53 98.48Z" fill="url(#paint21_linear_603_260)"/>
<path id="Vector_92" opacity="0.1" d="M258.87 148L251.55 143.81C247.9 141.69 245.65 137.16 245.65 130.72C245.65 123.81 248.24 116.11 252.37 109.45L260.18 113.96C256.05 120.61 253.46 128.31 253.46 135.21C253.44 141.35 255.5 145.76 258.87 148Z" fill="black"/>
<path id="Vector_93" opacity="0.4" d="M287.38 98.4001C283.78 96.6501 278.97 97.0901 273.68 100.14C268.39 103.19 263.74 108.14 260.16 113.94L252.35 109.43C255.92 103.64 260.67 98.6501 265.86 95.6601C271.41 92.4501 276.42 92.1501 280.08 94.2101H280.15L287.38 98.4001Z" fill="white"/>
<path id="Vector_94" d="M269.09 138.69C268.14 138.693 267.199 138.509 266.32 138.15C263.71 137.08 261.71 134.47 260.68 130.78C260.61 130.481 260.658 130.167 260.814 129.903C260.971 129.64 261.223 129.446 261.518 129.364C261.813 129.281 262.129 129.316 262.4 129.46C262.67 129.605 262.874 129.849 262.97 130.14C263.8 133.14 265.31 135.14 267.22 135.95C268.154 136.262 269.147 136.353 270.122 136.215C271.097 136.078 272.028 135.717 272.84 135.16C277.71 132.35 282.15 124.97 283.84 116.81C283.907 116.502 284.092 116.233 284.356 116.061C284.62 115.889 284.941 115.828 285.25 115.89C285.403 115.922 285.548 115.984 285.677 116.072C285.806 116.161 285.916 116.273 286.002 116.404C286.087 116.535 286.146 116.682 286.175 116.835C286.204 116.989 286.202 117.147 286.17 117.3C284.29 126.22 279.51 134.04 274 137.23C272.517 138.135 270.825 138.638 269.09 138.69V138.69Z" fill="#455A64"/>
<path id="Vector_95" d="M268.87 118.89C268.884 119.732 268.705 120.565 268.346 121.326C267.987 122.088 267.458 122.756 266.8 123.28C265.65 123.94 264.73 123.05 264.73 121.28C264.713 120.44 264.891 119.607 265.25 118.847C265.609 118.087 266.14 117.421 266.8 116.9C267.94 116.24 268.87 117.13 268.87 118.89Z" fill="#455A64"/>
<path id="Vector_96" d="M280.67 112.08C280.685 112.92 280.505 113.752 280.146 114.512C279.787 115.271 279.258 115.938 278.6 116.46C277.46 117.12 276.53 116.23 276.53 114.46C276.516 113.62 276.695 112.788 277.054 112.028C277.413 111.269 277.942 110.602 278.6 110.08C279.74 109.42 280.67 110.32 280.67 112.08Z" fill="#455A64"/>
</g>
</g>
<g id="freepik--Chart--inject-8">
<g id="freepik--chart--inject-8">
<path id="Vector_97" d="M302.57 278.56L249.57 309.16C249.037 309.431 248.447 309.573 247.85 309.573C247.252 309.573 246.662 309.431 246.13 309.16L243.32 307.53C242.816 307.202 242.398 306.759 242.099 306.237C241.8 305.716 241.629 305.13 241.6 304.53V243.33C241.629 242.73 241.8 242.145 242.099 241.623C242.398 241.102 242.816 240.658 243.32 240.33L296.32 209.73C296.851 209.459 297.438 209.317 298.035 209.317C298.631 209.317 299.219 209.459 299.75 209.73L302.56 211.37C303.064 211.697 303.484 212.14 303.783 212.662C304.082 213.184 304.252 213.769 304.28 214.37V275.58C304.249 276.176 304.078 276.757 303.781 277.274C303.484 277.792 303.069 278.233 302.57 278.56V278.56Z" fill="#455A64"/>
<path id="Vector_98" d="M249.279 309.29C248.775 309.493 248.233 309.586 247.69 309.563C247.147 309.541 246.615 309.403 246.129 309.16L243.319 307.52C242.816 307.192 242.398 306.749 242.101 306.227C241.803 305.706 241.635 305.12 241.609 304.52V243.32C241.624 242.719 241.797 242.133 242.109 241.62L248.349 245.25C248.041 245.762 247.869 246.343 247.849 246.94V308.14C247.849 309.15 248.459 309.61 249.279 309.29Z" fill="#263238"/>
<path id="Vector_99" d="M302.57 278.56L249.57 309.16C248.62 309.71 247.85 309.27 247.85 308.16V247C247.879 246.4 248.05 245.815 248.349 245.293C248.648 244.772 249.066 244.328 249.57 244L302.57 213.4C303.52 212.85 304.29 213.3 304.29 214.4V275.61C304.253 276.202 304.078 276.777 303.78 277.289C303.481 277.801 303.067 278.237 302.57 278.56Z" fill="#37474F"/>
<path id="Vector_100" fill-rule="evenodd" clip-rule="evenodd" d="M274.619 263.31L260.219 283.71C266.579 290.14 278.819 285.31 287.559 272.92C292.809 265.49 295.629 257.47 295.629 249.98L278.199 260C276.816 260.878 275.603 262 274.619 263.31Z" fill="url(#paint22_linear_603_260)"/>
<path id="Vector_101" opacity="0.3" fill-rule="evenodd" clip-rule="evenodd" d="M274.619 263.31L260.219 283.71C266.579 290.14 278.819 285.31 287.559 272.92C292.809 265.49 295.629 257.47 295.629 249.98L278.199 260C276.816 260.878 275.603 262 274.619 263.31Z" fill="black"/>
<path id="Vector_102" d="M259.49 283.19L273.89 262.79C274.948 261.386 276.256 260.189 277.75 259.26L295.18 249.2C295.317 249.121 295.472 249.08 295.63 249.08C295.788 249.08 295.943 249.121 296.08 249.2C296.217 249.279 296.33 249.393 296.409 249.53C296.488 249.667 296.53 249.822 296.53 249.98C296.53 257.7 293.68 265.82 288.3 273.44C282.51 281.64 275.07 286.86 268.4 287.44C266.793 287.626 265.165 287.447 263.638 286.915C262.111 286.383 260.723 285.513 259.58 284.37C259.442 284.23 259.353 284.049 259.328 283.854C259.302 283.659 259.342 283.461 259.44 283.29C259.445 283.252 259.463 283.217 259.49 283.19V283.19ZM294.69 251.56L278.69 260.82C277.418 261.614 276.3 262.63 275.39 263.82L261.44 283.57C262.387 284.346 263.481 284.923 264.656 285.267C265.831 285.61 267.064 285.714 268.28 285.57C274.34 285.07 281.46 280.01 286.85 272.36C287.77 271.07 288.6 269.76 289.36 268.45C292.439 263.317 294.265 257.531 294.69 251.56Z" fill="white"/>
<path id="Vector_103" fill-rule="evenodd" clip-rule="evenodd" d="M275.269 258.93L269.999 243.28C259.719 253.07 254.089 269.07 257.429 279.01C257.966 280.777 258.92 282.389 260.209 283.71L274.609 263.31C275.018 262.666 275.287 261.944 275.401 261.19C275.514 260.435 275.47 259.666 275.269 258.93Z" fill="url(#paint23_linear_603_260)"/>
<path id="Vector_104" d="M269.389 242.63C269.497 242.525 269.629 242.448 269.775 242.408C269.92 242.368 270.073 242.365 270.219 242.4C270.366 242.439 270.501 242.513 270.612 242.616C270.724 242.718 270.809 242.847 270.859 242.99L276.119 258.64C276.363 259.51 276.422 260.422 276.291 261.316C276.16 262.21 275.842 263.067 275.359 263.83L260.999 284.23C260.921 284.335 260.822 284.422 260.709 284.485C260.595 284.549 260.469 284.588 260.339 284.6C260.207 284.614 260.074 284.598 259.949 284.553C259.825 284.508 259.712 284.435 259.619 284.34C258.238 282.934 257.209 281.221 256.619 279.34C254.189 272.11 256.349 261.77 261.529 252.8C263.649 249.052 266.296 245.627 269.389 242.63V242.63ZM273.889 262.79C274.214 262.26 274.427 261.669 274.517 261.054C274.606 260.438 274.57 259.811 274.409 259.21L269.609 244.93C260.229 254.55 255.169 269.43 258.289 278.73C258.688 280.009 259.315 281.205 260.139 282.26L273.889 262.79Z" fill="white"/>
<path id="Vector_105" fill-rule="evenodd" clip-rule="evenodd" d="M277.49 259.25L291.89 238.85C286.81 233.71 278.23 235.44 270.01 243.28L275.27 258.93C275.7 260.23 276.7 260.37 277.49 259.25Z" fill="url(#paint24_linear_603_260)"/>
<path id="Vector_106" opacity="0.1" fill-rule="evenodd" clip-rule="evenodd" d="M277.49 259.25L291.89 238.85C286.81 233.71 278.23 235.44 270.01 243.28L275.27 258.93C275.7 260.23 276.7 260.37 277.49 259.25Z" fill="black"/>
<path id="Vector_107" d="M269.39 242.63C277.99 234.43 287.08 232.7 292.53 238.22C292.678 238.37 292.77 238.567 292.788 238.777C292.807 238.987 292.75 239.197 292.63 239.37L278.22 259.77C278.042 260.168 277.739 260.497 277.356 260.708C276.974 260.918 276.534 260.997 276.102 260.934C275.671 260.87 275.272 260.667 274.966 260.356C274.661 260.045 274.465 259.643 274.41 259.21L269.15 243.56C269.11 243.44 269.097 243.312 269.111 243.186C269.125 243.06 269.165 242.939 269.23 242.83C269.268 242.753 269.323 242.685 269.39 242.63V242.63ZM290.7 239C286.03 235 278.45 236.71 271.04 243.56L276.12 258.66C276.175 258.828 276.256 258.987 276.36 259.13C276.522 259.042 276.657 258.91 276.75 258.75L290.7 239Z" fill="white"/>
<path id="Vector_108" fill-rule="evenodd" clip-rule="evenodd" d="M278.2 260L295.63 250C295.63 245 294.43 241.45 291.89 238.87L277.49 259.27C276.7 260.37 277 260.72 278.2 260Z" fill="url(#paint25_linear_603_260)"/>
<path id="Vector_109" opacity="0.2" fill-rule="evenodd" clip-rule="evenodd" d="M278.2 260L295.63 250C295.63 245 294.43 241.45 291.89 238.87L277.49 259.27C276.7 260.37 277 260.72 278.2 260Z" fill="black"/>
<path id="Vector_110" d="M276.75 258.73L291.16 238.33C291.236 238.224 291.335 238.135 291.449 238.071C291.563 238.007 291.69 237.969 291.82 237.96C291.95 237.947 292.082 237.964 292.205 238.009C292.328 238.054 292.439 238.126 292.53 238.22C295.26 240.98 296.53 244.72 296.53 249.98C296.53 250.138 296.489 250.293 296.41 250.43C296.331 250.567 296.217 250.681 296.08 250.76L278.66 260.82C278.28 261.04 277.14 261.7 276.44 260.93C276.245 260.673 276.139 260.358 276.139 260.035C276.139 259.712 276.245 259.397 276.44 259.14L276.75 258.73ZM292 240.3L279.19 258.45L294.75 249.45C294.65 245.48 293.77 242.53 292 240.3Z" fill="white"/>
</g>
</g>
<g id="freepik--speech-bubbles--inject-8">
<g id="freepik--speach-bubbles--inject-8">
<path id="Vector_111" d="M413.749 186.5C412.825 186.054 411.808 185.831 410.781 185.85C409.755 185.869 408.747 186.13 407.839 186.61L316.699 239.23C315.821 239.813 315.091 240.595 314.57 241.512C314.049 242.429 313.751 243.456 313.699 244.51V270.51C313.66 271.55 313.905 272.581 314.408 273.492C314.911 274.403 315.653 275.16 316.554 275.68C317.455 276.201 318.482 276.466 319.522 276.446C320.563 276.427 321.578 276.124 322.459 275.57L413.599 222.95C414.478 222.366 415.208 221.585 415.729 220.667C416.25 219.75 416.548 218.723 416.599 217.67V191.67C416.563 190.645 416.286 189.643 415.791 188.745C415.296 187.847 414.597 187.078 413.749 186.5V186.5Z" fill="#263238"/>
<path id="Vector_112" d="M416.571 191.12C416.321 189.58 415.071 189.04 413.571 189.92L375.571 211.85L322.431 242.53C321.529 243.09 320.785 243.871 320.271 244.8L314.551 241.5C315.064 240.571 315.804 239.787 316.701 239.22L407.841 186.61C408.68 186.078 409.644 185.774 410.637 185.73C411.63 185.687 412.617 185.903 413.5 186.36C414.383 186.816 415.131 187.495 415.67 188.33C416.209 189.166 416.519 190.127 416.571 191.12V191.12Z" fill="#455A64"/>
<path id="Vector_113" d="M319.371 247.81V273.81C319.371 275.75 320.741 276.54 322.421 275.57L413.561 222.95C414.44 222.366 415.169 221.585 415.69 220.667C416.212 219.75 416.51 218.723 416.561 217.67V191.67C416.561 189.73 415.201 188.94 413.561 189.91L375.561 211.85L322.411 242.53C321.525 243.109 320.789 243.889 320.26 244.807C319.732 245.724 319.428 246.753 319.371 247.81V247.81Z" fill="#37474F"/>
<g id="freepik--stars--inject-8">
<path id="Vector_114" d="M334.87 244L336.36 247.16C336.377 247.205 336.404 247.247 336.438 247.281C336.472 247.316 336.513 247.343 336.558 247.361C336.603 247.378 336.652 247.387 336.7 247.385C336.749 247.383 336.796 247.371 336.84 247.35L340.17 246.08C340.7 245.87 340.91 246.62 340.53 247.34L338.12 251.86C337.975 252.122 337.909 252.421 337.93 252.72L338.5 256.82C338.59 257.47 338.04 258.32 337.57 258.26L334.57 257.89C334.449 257.896 334.332 257.93 334.227 257.991C334.123 258.052 334.035 258.138 333.97 258.24L330.97 262.05C330.5 262.65 329.97 262.43 330.04 261.68L330.61 256.93C330.635 256.814 330.631 256.694 330.598 256.581C330.564 256.467 330.503 256.364 330.42 256.28L328.01 254.54C327.63 254.26 327.84 253.27 328.37 252.87L331.7 250.3C331.933 250.105 332.101 249.843 332.18 249.55L333.67 244.67C334 243.9 334.63 243.51 334.87 244Z" fill="url(#paint26_linear_603_260)"/>
<path id="Vector_115" d="M351.721 234.36L353.211 237.52C353.227 237.566 353.253 237.609 353.287 237.644C353.321 237.68 353.362 237.707 353.407 237.725C353.453 237.743 353.502 237.751 353.551 237.749C353.6 237.746 353.648 237.733 353.691 237.71L357.021 236.44C357.551 236.23 357.761 236.98 357.381 237.7L355.001 242.22C354.855 242.486 354.789 242.788 354.811 243.09L355.381 247.18C355.471 247.83 354.921 248.68 354.451 248.62L351.451 248.26C351.33 248.261 351.212 248.293 351.107 248.352C351.002 248.412 350.914 248.497 350.851 248.6L347.851 252.41C347.381 253.01 346.851 252.8 346.921 252.04L347.491 247.29C347.516 247.174 347.512 247.054 347.478 246.941C347.445 246.827 347.384 246.724 347.301 246.64L344.891 244.9C344.511 244.62 344.721 243.64 345.251 243.23L348.581 240.66C348.814 240.465 348.982 240.203 349.061 239.91L350.551 235.03C350.801 234.25 351.481 233.86 351.721 234.36Z" fill="url(#paint27_linear_603_260)"/>
<path id="Vector_116" d="M368.569 224.72L370.059 227.88C370.077 227.925 370.103 227.967 370.137 228.001C370.171 228.036 370.212 228.063 370.258 228.081C370.303 228.098 370.351 228.107 370.4 228.105C370.448 228.103 370.496 228.091 370.539 228.07L373.869 226.79C374.399 226.59 374.609 227.33 374.229 228.05L371.819 232.57C371.674 232.836 371.609 233.138 371.629 233.44L372.199 237.53C372.289 238.18 371.739 239.04 371.269 238.98L368.269 238.61C368.149 238.616 368.031 238.65 367.926 238.711C367.822 238.772 367.734 238.858 367.669 238.96L364.669 242.76C364.199 243.37 363.669 243.15 363.739 242.4L364.309 237.65C364.334 237.533 364.33 237.411 364.297 237.296C364.264 237.181 364.203 237.076 364.119 236.99L361.709 235.25C361.329 234.98 361.539 233.99 362.069 233.58L365.399 231.01C365.633 230.815 365.8 230.553 365.879 230.26L367.369 225.38C367.649 224.61 368.329 224.21 368.569 224.72Z" fill="url(#paint28_linear_603_260)"/>
<path id="Vector_117" d="M385.421 215.07L386.911 218.23C386.928 218.275 386.955 218.317 386.989 218.351C387.023 218.386 387.064 218.413 387.109 218.431C387.154 218.448 387.203 218.457 387.251 218.455C387.3 218.453 387.347 218.441 387.391 218.42L390.721 217.14C391.251 216.94 391.461 217.68 391.081 218.4L388.671 222.92C388.526 223.186 388.46 223.488 388.481 223.79L389.051 227.88C389.141 228.53 388.591 229.39 388.121 229.33L385.121 228.96C385 228.966 384.882 229 384.778 229.061C384.673 229.122 384.585 229.207 384.521 229.31L381.521 233.11C381.051 233.72 380.521 233.5 380.591 232.75L381.161 228C381.186 227.884 381.182 227.764 381.148 227.651C381.115 227.537 381.054 227.434 380.971 227.35L378.561 225.61C378.181 225.33 378.391 224.34 378.921 223.93L382.251 221.37C382.48 221.171 382.647 220.911 382.731 220.62L384.221 215.74C384.501 215 385.181 214.57 385.421 215.07Z" fill="url(#paint29_linear_603_260)"/>
<path id="Vector_118" d="M402.27 205.42L403.76 208.58C403.777 208.625 403.803 208.667 403.838 208.701C403.872 208.736 403.913 208.763 403.958 208.781C404.003 208.798 404.051 208.807 404.1 208.805C404.148 208.803 404.196 208.791 404.24 208.77L407.57 207.5C408.1 207.29 408.31 208.04 407.93 208.76L405.52 213.28C405.374 213.542 405.308 213.841 405.33 214.14L405.9 218.24C405.99 218.89 405.44 219.74 404.97 219.68L401.97 219.31C401.849 219.316 401.731 219.35 401.627 219.411C401.522 219.472 401.434 219.558 401.37 219.66L398.37 223.47C397.9 224.07 397.37 223.85 397.44 223.1L398.01 218.35C398.035 218.234 398.03 218.114 397.997 218.001C397.964 217.887 397.903 217.784 397.82 217.7L395.45 216C395.07 215.72 395.28 214.73 395.81 214.33L399.14 211.76C399.373 211.565 399.54 211.303 399.62 211.01L401.11 206.13C401.35 205.31 402 204.92 402.27 205.42Z" fill="url(#paint30_linear_603_260)"/>
</g>
<path id="Vector_119" d="M332.359 227.37L327.359 224.49C327.26 224.446 327.176 224.373 327.119 224.28L326.199 222.68L329.199 220.97L329.109 221.23L332.359 227.37Z" fill="url(#paint31_linear_603_260)"/>
<path id="Vector_120" opacity="0.2" d="M332.359 227.37L327.359 224.49C327.26 224.446 327.176 224.373 327.119 224.28L326.199 222.68L329.199 220.97L329.109 221.23L332.359 227.37Z" fill="black"/>
<path id="Vector_121" d="M328.73 221.21L332.19 227.21C332.239 227.296 332.311 227.367 332.399 227.413C332.487 227.459 332.586 227.478 332.685 227.469C332.784 227.459 332.877 227.421 332.955 227.359C333.032 227.297 333.09 227.214 333.12 227.12L336.77 216.59L328.73 221.21Z" fill="url(#paint32_linear_603_260)"/>
<path id="Vector_122" d="M415.999 137.6C415.955 136.764 415.714 135.95 415.295 135.225C414.876 134.5 414.292 133.885 413.589 133.43V133.43C412.841 133.055 412.016 132.86 411.179 132.86C410.342 132.86 409.517 133.055 408.769 133.43L316.109 186.9C315.408 187.359 314.824 187.976 314.405 188.702C313.987 189.428 313.745 190.243 313.699 191.08V221.58C313.745 222.417 313.987 223.231 314.405 223.958C314.824 224.684 315.408 225.301 316.109 225.76V225.76C316.856 226.139 317.682 226.337 318.519 226.337C319.357 226.337 320.183 226.139 320.929 225.76L413.819 172.14C415.989 170.9 416.009 169.66 416.009 168.14L415.999 137.6Z" fill="url(#paint33_linear_603_260)"/>
<path id="Vector_123" opacity="0.2" d="M313.66 221.57C313.706 222.407 313.947 223.221 314.366 223.948C314.785 224.674 315.369 225.291 316.07 225.75V225.75C316.748 226.095 317.492 226.293 318.253 226.329C319.013 226.365 319.772 226.239 320.48 225.96C319.35 226.39 318.48 225.74 318.48 224.36V193.85C318.508 193.012 318.753 192.195 319.19 191.48L314.36 188.69C313.931 189.412 313.69 190.23 313.66 191.07V221.57Z" fill="black"/>
<path id="Vector_124" opacity="0.4" d="M415.891 136.92C415.611 135.92 414.671 135.57 413.561 136.21L320.891 189.68C320.176 190.12 319.589 190.741 319.191 191.48L314.371 188.69C314.778 187.957 315.362 187.338 316.071 186.89L408.731 133.43C409.478 133.051 410.304 132.853 411.141 132.853C411.979 132.853 412.804 133.051 413.551 133.43V133.43C414.158 133.821 414.679 134.333 415.082 134.933C415.484 135.533 415.76 136.209 415.891 136.92V136.92Z" fill="white"/>
<path id="Vector_125" d="M325.001 194.39L408.211 146.25C409.021 145.79 409.681 146 409.681 146.73C409.621 147.18 409.457 147.609 409.202 147.984C408.947 148.359 408.607 148.669 408.211 148.89L325.001 197C324.201 197.47 323.541 197.26 323.541 196.53C323.604 196.085 323.768 195.661 324.022 195.29C324.275 194.919 324.61 194.611 325.001 194.39Z" fill="white"/>
<path id="Vector_126" d="M325.001 208L396.371 166.8C397.181 166.33 397.831 166.54 397.831 167.27C397.772 167.72 397.61 168.15 397.357 168.527C397.103 168.904 396.766 169.216 396.371 169.44L325.001 210.63C324.201 211.1 323.541 210.88 323.541 210.15C323.608 209.705 323.773 209.281 324.026 208.909C324.279 208.537 324.612 208.226 325.001 208Z" fill="white"/>
<path id="Vector_127" d="M325.001 214.62L406.511 167.5C407.311 167.03 407.971 167.25 407.971 167.98C407.906 168.427 407.741 168.853 407.488 169.227C407.235 169.601 406.901 169.913 406.511 170.14L325.001 217.25C324.201 217.72 323.541 217.51 323.541 216.78C323.601 216.332 323.764 215.903 324.018 215.529C324.271 215.154 324.607 214.843 325.001 214.62Z" fill="white"/>
<path id="Vector_128" d="M325.001 201L406.511 153.88C407.311 153.41 407.971 153.63 407.971 154.36C407.91 154.808 407.747 155.236 407.494 155.611C407.24 155.985 406.904 156.296 406.511 156.52L325.001 203.68C324.201 204.14 323.541 203.93 323.541 203.2C323.595 202.744 323.756 202.308 324.009 201.926C324.263 201.544 324.602 201.227 325.001 201V201Z" fill="white"/>
<path id="Vector_129" d="M413.749 85.1898C412.825 84.7436 411.808 84.5211 410.781 84.5402C409.755 84.5593 408.747 84.8195 407.839 85.2998L316.699 137.91C315.822 138.495 315.094 139.277 314.573 140.194C314.052 141.111 313.753 142.137 313.699 143.19V169.19C313.66 170.23 313.905 171.261 314.408 172.172C314.911 173.083 315.653 173.84 316.554 174.36C317.455 174.881 318.482 175.146 319.522 175.126C320.563 175.107 321.578 174.804 322.459 174.25L413.599 121.63C414.478 121.046 415.208 120.265 415.729 119.347C416.25 118.43 416.548 117.403 416.599 116.35V90.3498C416.561 89.3266 416.284 88.3267 415.789 87.4305C415.294 86.5342 414.595 85.7668 413.749 85.1898V85.1898Z" fill="#263238"/>
<path id="Vector_130" d="M416.571 89.8098C416.321 88.2698 415.071 87.7298 413.571 88.5998L375.571 110.53L322.431 141.21C321.531 141.776 320.788 142.56 320.271 143.49L314.551 140.19C315.061 139.259 315.802 138.474 316.701 137.91L407.841 85.2998C408.68 84.7675 409.644 84.4643 410.637 84.4204C411.63 84.3764 412.617 84.5934 413.5 85.0495C414.383 85.5057 415.131 86.1852 415.67 87.0204C416.209 87.8555 416.519 88.8173 416.571 89.8098Z" fill="#455A64"/>
<path id="Vector_131" d="M319.371 146.5V172.5C319.371 174.44 320.741 175.23 322.421 174.26L413.561 121.64C414.44 121.056 415.169 120.275 415.69 119.357C416.212 118.44 416.51 117.413 416.561 116.36V90.3598C416.561 88.4198 415.201 87.6298 413.561 88.5998L375.561 110.53L322.411 141.22C321.525 141.799 320.789 142.579 320.26 143.497C319.732 144.414 319.428 145.443 319.371 146.5V146.5Z" fill="#37474F"/>
<g id="freepik--stars--inject-8_2">
<path id="Vector_132" d="M334.87 142.7L336.36 145.86C336.377 145.905 336.404 145.947 336.438 145.981C336.472 146.016 336.513 146.043 336.558 146.061C336.603 146.078 336.652 146.087 336.7 146.085C336.749 146.083 336.796 146.071 336.84 146.05L340.17 144.77C340.7 144.57 340.91 145.32 340.53 146.03L338.12 150.55C337.975 150.816 337.909 151.118 337.93 151.42L338.5 155.51C338.59 156.16 338.04 157.02 337.57 156.96L334.57 156.59C334.449 156.596 334.332 156.63 334.227 156.691C334.123 156.752 334.035 156.837 333.97 156.94L330.97 160.74C330.5 161.35 329.97 161.13 330.04 160.38L330.61 155.63C330.635 155.514 330.631 155.394 330.598 155.281C330.564 155.167 330.503 155.064 330.42 154.98L328.01 153.24C327.63 152.96 327.84 151.97 328.37 151.56L331.7 149C331.931 148.803 332.098 148.542 332.18 148.25L333.67 143.37C334 142.59 334.63 142.2 334.87 142.7Z" fill="url(#paint34_linear_603_260)"/>
<path id="Vector_133" d="M351.721 133.05L353.211 136.21C353.228 136.255 353.255 136.297 353.289 136.331C353.323 136.366 353.364 136.393 353.409 136.411C353.454 136.428 353.503 136.437 353.551 136.435C353.6 136.433 353.647 136.421 353.691 136.4L357.021 135.13C357.551 134.92 357.761 135.67 357.381 136.39L355.001 140.91C354.856 141.172 354.79 141.471 354.811 141.77L355.381 145.87C355.471 146.52 354.921 147.37 354.451 147.31L351.451 146.94C351.33 146.946 351.213 146.98 351.108 147.041C351.004 147.102 350.915 147.188 350.851 147.29L347.851 151.1C347.381 151.7 346.851 151.49 346.921 150.73L347.491 145.98C347.516 145.864 347.512 145.744 347.478 145.631C347.445 145.517 347.384 145.414 347.301 145.33L344.891 143.59C344.511 143.31 344.721 142.32 345.251 141.92L348.581 139.35C348.814 139.155 348.982 138.893 349.061 138.6L350.551 133.72C350.801 132.94 351.481 132.55 351.721 133.05Z" fill="url(#paint35_linear_603_260)"/>
<path id="Vector_134" d="M368.569 123.4L370.059 126.57C370.077 126.615 370.103 126.656 370.137 126.691C370.171 126.726 370.212 126.753 370.258 126.77C370.303 126.788 370.351 126.797 370.4 126.795C370.448 126.793 370.496 126.781 370.539 126.76L373.869 125.48C374.399 125.28 374.609 126.02 374.229 126.74L371.819 131.26C371.673 131.525 371.607 131.828 371.629 132.13L372.199 136.22C372.289 136.87 371.739 137.72 371.269 137.67L368.269 137.3C368.149 137.301 368.03 137.333 367.925 137.392C367.82 137.452 367.732 137.537 367.669 137.64L364.669 141.45C364.199 142.05 363.669 141.84 363.739 141.08L364.309 136.33C364.333 136.214 364.329 136.094 364.296 135.981C364.262 135.868 364.202 135.764 364.119 135.68L361.709 133.94C361.329 133.67 361.539 132.68 362.069 132.27L365.399 129.7C365.633 129.505 365.8 129.243 365.879 128.95L367.369 124.07C367.649 123.3 368.329 122.9 368.569 123.4Z" fill="url(#paint36_linear_603_260)"/>
<path id="Vector_135" d="M385.42 113.76L386.91 116.92C386.928 116.965 386.954 117.007 386.988 117.041C387.022 117.076 387.063 117.103 387.108 117.121C387.154 117.138 387.202 117.147 387.25 117.145C387.299 117.143 387.347 117.131 387.39 117.11L390.72 115.83C391.25 115.63 391.46 116.37 391.08 117.09L388.67 121.61C388.525 121.876 388.459 122.178 388.48 122.48L389.05 126.57C389.14 127.22 388.59 128.08 388.12 128.02L385.12 127.65C384.999 127.656 384.882 127.69 384.777 127.751C384.673 127.812 384.585 127.898 384.52 128L381.52 131.8C381.05 132.41 380.52 132.19 380.59 131.44L381.16 126.69C381.194 126.571 381.198 126.445 381.17 126.324C381.142 126.204 381.083 126.092 381 126L378.59 124.26C378.21 123.99 378.42 123 378.95 122.59L382.28 120.03C382.511 119.829 382.678 119.565 382.76 119.27L384.25 114.39C384.5 113.65 385.18 113.25 385.42 113.76Z" fill="url(#paint37_linear_603_260)"/>
<path id="Vector_136" d="M402.271 104.11L403.761 107.27C403.778 107.315 403.804 107.356 403.839 107.391C403.873 107.426 403.914 107.453 403.959 107.471C404.004 107.488 404.052 107.497 404.101 107.495C404.149 107.493 404.197 107.481 404.241 107.46L407.571 106.18C408.101 105.98 408.311 106.73 407.931 107.44L405.521 112C405.376 112.266 405.31 112.568 405.331 112.87L405.901 116.96C405.991 117.61 405.441 118.47 404.971 118.41L401.971 118.04C401.85 118.046 401.732 118.08 401.628 118.141C401.523 118.202 401.435 118.287 401.371 118.39L398.371 122.19C397.901 122.8 397.371 122.58 397.441 121.83L398.011 117.08C398.036 116.964 398.031 116.844 397.998 116.731C397.965 116.617 397.904 116.514 397.821 116.43L395.411 114.69C395.031 114.41 395.241 113.42 395.771 113.01L399.101 110.45C399.334 110.255 399.501 109.993 399.581 109.7L401.071 104.82C401.351 104 402.001 103.61 402.271 104.11Z" fill="#455A64"/>
</g>
<path id="Vector_137" d="M332.359 126.06L327.359 123.18C327.26 123.136 327.176 123.062 327.119 122.97L326.199 121.37L329.199 119.66L329.109 119.92L332.359 126.06Z" fill="url(#paint38_linear_603_260)"/>
<path id="Vector_138" opacity="0.2" d="M332.359 126.06L327.359 123.18C327.26 123.136 327.176 123.062 327.119 122.97L326.199 121.37L329.199 119.66L329.109 119.92L332.359 126.06Z" fill="black"/>
<path id="Vector_139" d="M328.73 119.9L332.19 125.9C332.239 125.986 332.311 126.057 332.399 126.103C332.487 126.149 332.586 126.168 332.685 126.159C332.784 126.149 332.877 126.111 332.955 126.049C333.032 125.987 333.09 125.904 333.12 125.81L336.77 115.28L328.73 119.9Z" fill="url(#paint39_linear_603_260)"/>
<path id="Vector_140" d="M416 36.2899C415.955 35.4529 415.713 34.6384 415.294 33.9122C414.876 33.186 414.292 32.5686 413.59 32.1099V32.1099C412.843 31.7305 412.018 31.5327 411.18 31.5327C410.343 31.5327 409.517 31.7305 408.77 32.1099L316.07 85.5799C315.369 86.0386 314.785 86.656 314.366 87.3822C313.947 88.1084 313.706 88.9229 313.66 89.7599V120.26C313.706 121.097 313.947 121.911 314.366 122.638C314.785 123.364 315.369 123.981 316.07 124.44V124.44C316.817 124.819 317.643 125.017 318.48 125.017C319.318 125.017 320.143 124.819 320.89 124.44L413.78 70.8099C415.95 69.5799 415.97 68.3399 415.97 66.8099L416 36.2899Z" fill="url(#paint40_linear_603_260)"/>
<path id="Vector_141" opacity="0.2" d="M313.66 120.26C313.706 121.097 313.947 121.911 314.366 122.638C314.785 123.364 315.369 123.981 316.07 124.44V124.44C316.748 124.786 317.493 124.983 318.253 125.018C319.014 125.052 319.773 124.924 320.48 124.64C319.35 125.07 318.48 124.43 318.48 123.05V92.5399C318.509 91.6989 318.754 90.8794 319.19 90.1599L314.36 87.3799C313.931 88.1018 313.69 88.9203 313.66 89.7599V120.26Z" fill="black"/>
<path id="Vector_142" opacity="0.4" d="M415.891 35.61C415.611 34.61 414.671 34.26 413.561 34.9L320.891 88.37C320.176 88.8099 319.589 89.4308 319.191 90.17L314.371 87.38C314.778 86.647 315.362 86.028 316.071 85.58L408.731 32.11C409.479 31.7352 410.304 31.54 411.141 31.54C411.978 31.54 412.803 31.7352 413.551 32.11V32.11C414.16 32.5026 414.681 33.0157 415.084 33.6177C415.486 34.2197 415.761 34.8977 415.891 35.61V35.61Z" fill="white"/>
<path id="Vector_143" d="M325.001 93.0698L408.211 44.9398C409.021 44.4798 409.681 44.6898 409.681 45.4198C409.621 45.8695 409.457 46.2991 409.202 46.6741C408.947 47.0491 408.607 47.3593 408.211 47.5798L325.001 95.7098C324.201 96.1798 323.541 95.9698 323.541 95.2398C323.605 94.7914 323.769 94.3632 324.022 93.9874C324.275 93.6115 324.61 93.2979 325.001 93.0698V93.0698Z" fill="white"/>
<path id="Vector_144" d="M325.001 106.68L396.371 65.4799C397.181 65.0099 397.831 65.2199 397.831 65.9499C397.773 66.3989 397.611 66.8282 397.357 67.2032C397.104 67.5783 396.766 67.8888 396.371 68.1099L325.001 109.32C324.201 109.78 323.541 109.57 323.541 108.84C323.602 108.392 323.765 107.964 324.018 107.589C324.272 107.215 324.608 106.903 325.001 106.68V106.68Z" fill="white"/>
<path id="Vector_145" d="M325.001 113.3L406.511 66.1898C407.311 65.7198 407.971 65.9398 407.971 66.6598C407.907 67.1083 407.743 67.5365 407.49 67.9123C407.237 68.2882 406.902 68.6018 406.511 68.8298L325.001 115.94C324.201 116.41 323.541 116.2 323.541 115.47C323.605 115.021 323.769 114.593 324.022 114.217C324.275 113.842 324.61 113.528 325.001 113.3V113.3Z" fill="white"/>
<path id="Vector_146" d="M325.001 99.7298L406.511 52.6098C407.311 52.1398 407.971 52.3598 407.971 53.0898C407.906 53.5365 407.741 53.9627 407.488 54.3367C407.235 54.7107 406.901 55.0228 406.511 55.2498L325.001 102.36C324.201 102.83 323.541 102.62 323.541 101.89C323.601 101.441 323.764 101.013 324.018 100.638C324.271 100.264 324.607 99.9527 325.001 99.7298Z" fill="white"/>
</g>
</g>
<g id="freepik--Pencil--inject-8">
<g id="freepik--pencil--inject-8">
<path id="Vector_147" d="M359.58 283.5L394.63 276.63C394.851 276.594 395.078 276.626 395.28 276.724C395.482 276.821 395.649 276.978 395.758 277.174C395.868 277.37 395.914 277.594 395.891 277.817C395.868 278.04 395.777 278.251 395.63 278.42L371.86 305.34L359.58 283.5Z" fill="#FFA8A7"/>
<path id="Vector_148" d="M395.649 278.42C395.796 278.251 395.887 278.04 395.91 277.817C395.933 277.594 395.887 277.37 395.777 277.174C395.668 276.978 395.501 276.821 395.299 276.724C395.097 276.626 394.87 276.594 394.649 276.63L387.789 278C388.728 278.582 389.488 279.412 389.986 280.398C390.484 281.384 390.699 282.489 390.609 283.59V284.21L395.649 278.42Z" fill="url(#paint41_linear_603_260)"/>
<path id="Vector_149" d="M241.189 380.29L244.049 378.64L247.519 376.64L371.869 305.31C373.01 301.449 372.653 297.3 370.869 293.69C368.379 288.13 363.559 283.69 359.559 283.48L235.309 354.8L228.699 358.59C233.119 356.37 245.589 378 241.189 380.29Z" fill="#37474F"/>
<path id="Vector_150" d="M252.119 374.06L258.519 370.38C260.409 369.38 259.329 364.73 257.119 359.93C254.189 353.55 248.439 347.37 245.929 348.7L241.209 351.41L239.539 352.41C242.049 351.08 247.809 357.25 250.729 363.64C252.839 368.24 253.919 372.71 252.309 373.93C252.259 373.99 252.193 374.035 252.119 374.06Z" fill="#EBEBEB"/>
<path id="Vector_151" d="M253.709 373.13C258.099 370.8 245.529 349.13 241.129 351.47L234.719 355.13C239.109 352.81 251.719 374.46 247.289 376.79L253.709 373.13Z" fill="url(#paint42_linear_603_260)"/>
<path id="Vector_152" d="M241.189 380.29L247.519 376.67C251.849 374.41 239.889 353.41 235.309 354.8C235.217 354.817 235.129 354.851 235.049 354.9L228.699 358.59C233.119 356.37 245.589 378 241.189 380.29Z" fill="#EBEBEB"/>
<path id="Vector_153" opacity="0.15" d="M395.81 277.24L394.63 276.63L369.2 290.54L237.7 366C237.45 365.61 237.25 365.58 237.09 365.85C240.83 371.68 243.65 379.02 241.19 380.3L244.05 378.65L247.52 376.65L371.87 305.32L395.64 278.4C395.787 278.249 395.882 278.056 395.913 277.847C395.943 277.639 395.907 277.427 395.81 277.24Z" fill="black"/>
<path id="Vector_154" d="M214.319 395.66L241.189 380.29C243.069 379.29 242.029 374.71 239.859 369.94C236.949 363.55 231.219 357.31 228.699 358.59L201.719 374C196.359 377.09 201.289 388.71 207.259 393.91C209.479 395.9 211.999 396.77 214.319 395.66Z" fill="#F28F8F"/>
<path id="Vector_155" opacity="0.1" d="M215.92 387.33C214.38 381.27 209.48 375.33 204.97 374.06C204.307 373.826 203.599 373.753 202.903 373.849C202.207 373.945 201.544 374.206 200.97 374.61C196.97 378.36 201.64 389.02 207.29 393.94C209.46 395.86 211.89 396.72 214.21 395.71C216.19 394.53 217 391.43 215.92 387.33Z" fill="black"/>
</g>
</g>
</g>
<defs>
<linearGradient id="paint0_linear_603_260" x1="157.884" y1="110.89" x2="157.884" y2="176.14" gradientUnits="userSpaceOnUse">
<stop stop-color="#760074"/>
<stop offset="1" stop-color="#252D78"/>
</linearGradient>
<linearGradient id="paint1_linear_603_260" x1="160.332" y1="112.836" x2="160.332" y2="176.2" gradientUnits="userSpaceOnUse">
<stop stop-color="#760074"/>
<stop offset="1" stop-color="#252D78"/>
</linearGradient>
<linearGradient id="paint2_linear_603_260" x1="159.586" y1="140.53" x2="159.586" y2="167.39" gradientUnits="userSpaceOnUse">
<stop stop-color="#760074"/>
<stop offset="1" stop-color="#252D78"/>
</linearGradient>
<linearGradient id="paint3_linear_603_260" x1="160.688" y1="122.149" x2="160.688" y2="139.914" gradientUnits="userSpaceOnUse">
<stop stop-color="#760074"/>
<stop offset="1" stop-color="#252D78"/>
</linearGradient>
<linearGradient id="paint4_linear_603_260" x1="149.89" y1="151.68" x2="149.89" y2="172.62" gradientUnits="userSpaceOnUse">
<stop stop-color="#760074"/>
<stop offset="1" stop-color="#252D78"/>
</linearGradient>
<linearGradient id="paint5_linear_603_260" x1="127.179" y1="187.46" x2="127.179" y2="201.171" gradientUnits="userSpaceOnUse">
<stop stop-color="#760074"/>
<stop offset="1" stop-color="#252D78"/>
</linearGradient>
<linearGradient id="paint6_linear_603_260" x1="162.124" y1="126.29" x2="162.124" y2="144.02" gradientUnits="userSpaceOnUse">
<stop stop-color="#760074"/>
<stop offset="1" stop-color="#252D78"/>
</linearGradient>
<linearGradient id="paint7_linear_603_260" x1="184.84" y1="133.59" x2="184.84" y2="135.67" gradientUnits="userSpaceOnUse">
<stop stop-color="#760074"/>
<stop offset="1" stop-color="#252D78"/>
</linearGradient>
<linearGradient id="paint8_linear_603_260" x1="192.144" y1="148.012" x2="192.144" y2="154.456" gradientUnits="userSpaceOnUse">
<stop stop-color="#760074"/>
<stop offset="1" stop-color="#252D78"/>
</linearGradient>
<linearGradient id="paint9_linear_603_260" x1="138.819" y1="170.68" x2="138.819" y2="189.4" gradientUnits="userSpaceOnUse">
<stop stop-color="#760074"/>
<stop offset="1" stop-color="#252D78"/>
</linearGradient>
<linearGradient id="paint10_linear_603_260" x1="155.47" y1="142.16" x2="155.47" y2="153.62" gradientUnits="userSpaceOnUse">
<stop stop-color="#760074"/>
<stop offset="1" stop-color="#252D78"/>
</linearGradient>
<linearGradient id="paint11_linear_603_260" x1="171.564" y1="116.88" x2="171.564" y2="128.24" gradientUnits="userSpaceOnUse">
<stop stop-color="#760074"/>
<stop offset="1" stop-color="#252D78"/>
</linearGradient>
<linearGradient id="paint12_linear_603_260" x1="124.578" y1="198.9" x2="124.578" y2="201.18" gradientUnits="userSpaceOnUse">
<stop stop-color="#760074"/>
<stop offset="1" stop-color="#252D78"/>
</linearGradient>
<linearGradient id="paint13_linear_603_260" x1="162.219" y1="118.924" x2="162.219" y2="201.18" gradientUnits="userSpaceOnUse">
<stop stop-color="#760074"/>
<stop offset="1" stop-color="#252D78"/>
</linearGradient>
<linearGradient id="paint14_linear_603_260" x1="162.258" y1="155.15" x2="162.258" y2="201.195" gradientUnits="userSpaceOnUse">
<stop stop-color="#760074"/>
<stop offset="1" stop-color="#252D78"/>
</linearGradient>
<linearGradient id="paint15_linear_603_260" x1="172.67" y1="123.624" x2="172.67" y2="140.6" gradientUnits="userSpaceOnUse">
<stop stop-color="#760074"/>
<stop offset="1" stop-color="#252D78"/>
</linearGradient>
<linearGradient id="paint16_linear_603_260" x1="118.929" y1="249.936" x2="118.929" y2="255.885" gradientUnits="userSpaceOnUse">
<stop stop-color="#760074"/>
<stop offset="1" stop-color="#252D78"/>
</linearGradient>
<linearGradient id="paint17_linear_603_260" x1="155.339" y1="266.85" x2="155.339" y2="272.794" gradientUnits="userSpaceOnUse">
<stop stop-color="#760074"/>
<stop offset="1" stop-color="#252D78"/>
</linearGradient>
<linearGradient id="paint18_linear_603_260" x1="191.764" y1="283.795" x2="191.764" y2="289.744" gradientUnits="userSpaceOnUse">
<stop stop-color="#760074"/>
<stop offset="1" stop-color="#252D78"/>
</linearGradient>
<linearGradient id="paint19_linear_603_260" x1="191.764" y1="321.936" x2="191.764" y2="327.885" gradientUnits="userSpaceOnUse">
<stop stop-color="#760074"/>
<stop offset="1" stop-color="#252D78"/>
</linearGradient>
<linearGradient id="paint20_linear_603_260" x1="269.795" y1="156.86" x2="269.795" y2="213.587" gradientUnits="userSpaceOnUse">
<stop stop-color="#760074"/>
<stop offset="1" stop-color="#252D78"/>
</linearGradient>
<linearGradient id="paint21_linear_603_260" x1="269.795" y1="92.9297" x2="269.795" y2="149.657" gradientUnits="userSpaceOnUse">
<stop stop-color="#760074"/>
<stop offset="1" stop-color="#252D78"/>
</linearGradient>
<linearGradient id="paint22_linear_603_260" x1="277.924" y1="249.98" x2="277.924" y2="286.557" gradientUnits="userSpaceOnUse">
<stop stop-color="#760074"/>
<stop offset="1" stop-color="#252D78"/>
</linearGradient>
<linearGradient id="paint23_linear_603_260" x1="265.964" y1="243.28" x2="265.964" y2="283.71" gradientUnits="userSpaceOnUse">
<stop stop-color="#760074"/>
<stop offset="1" stop-color="#252D78"/>
</linearGradient>
<linearGradient id="paint24_linear_603_260" x1="280.95" y1="235.925" x2="280.95" y2="260.006" gradientUnits="userSpaceOnUse">
<stop stop-color="#760074"/>
<stop offset="1" stop-color="#252D78"/>
</linearGradient>
<linearGradient id="paint25_linear_603_260" x1="286.34" y1="238.87" x2="286.34" y2="260.377" gradientUnits="userSpaceOnUse">
<stop stop-color="#760074"/>
<stop offset="1" stop-color="#252D78"/>
</linearGradient>
<linearGradient id="paint26_linear_603_260" x1="334.27" y1="243.783" x2="334.27" y2="262.395" gradientUnits="userSpaceOnUse">
<stop stop-color="#760074"/>
<stop offset="1" stop-color="#252D78"/>
</linearGradient>
<linearGradient id="paint27_linear_603_260" x1="351.136" y1="234.137" x2="351.136" y2="252.758" gradientUnits="userSpaceOnUse">
<stop stop-color="#760074"/>
<stop offset="1" stop-color="#252D78"/>
</linearGradient>
<linearGradient id="paint28_linear_603_260" x1="367.969" y1="224.492" x2="367.969" y2="243.113" gradientUnits="userSpaceOnUse">
<stop stop-color="#760074"/>
<stop offset="1" stop-color="#252D78"/>
</linearGradient>
<linearGradient id="paint29_linear_603_260" x1="384.821" y1="214.854" x2="384.821" y2="233.463" gradientUnits="userSpaceOnUse">
<stop stop-color="#760074"/>
<stop offset="1" stop-color="#252D78"/>
</linearGradient>
<linearGradient id="paint30_linear_603_260" x1="401.69" y1="205.198" x2="401.69" y2="223.815" gradientUnits="userSpaceOnUse">
<stop stop-color="#760074"/>
<stop offset="1" stop-color="#252D78"/>
</linearGradient>
<linearGradient id="paint31_linear_603_260" x1="329.279" y1="220.97" x2="329.279" y2="227.37" gradientUnits="userSpaceOnUse">
<stop stop-color="#760074"/>
<stop offset="1" stop-color="#252D78"/>
</linearGradient>
<linearGradient id="paint32_linear_603_260" x1="332.75" y1="216.59" x2="332.75" y2="227.471" gradientUnits="userSpaceOnUse">
<stop stop-color="#760074"/>
<stop offset="1" stop-color="#252D78"/>
</linearGradient>
<linearGradient id="paint33_linear_603_260" x1="364.854" y1="132.86" x2="364.854" y2="226.337" gradientUnits="userSpaceOnUse">
<stop stop-color="#760074"/>
<stop offset="1" stop-color="#252D78"/>
</linearGradient>
<linearGradient id="paint34_linear_603_260" x1="334.27" y1="142.477" x2="334.27" y2="161.093" gradientUnits="userSpaceOnUse">
<stop stop-color="#760074"/>
<stop offset="1" stop-color="#252D78"/>
</linearGradient>
<linearGradient id="paint35_linear_603_260" x1="351.136" y1="132.827" x2="351.136" y2="151.448" gradientUnits="userSpaceOnUse">
<stop stop-color="#760074"/>
<stop offset="1" stop-color="#252D78"/>
</linearGradient>
<linearGradient id="paint36_linear_603_260" x1="367.969" y1="123.178" x2="367.969" y2="141.798" gradientUnits="userSpaceOnUse">
<stop stop-color="#760074"/>
<stop offset="1" stop-color="#252D78"/>
</linearGradient>
<linearGradient id="paint37_linear_603_260" x1="384.835" y1="113.531" x2="384.835" y2="132.153" gradientUnits="userSpaceOnUse">
<stop stop-color="#760074"/>
<stop offset="1" stop-color="#252D78"/>
</linearGradient>
<linearGradient id="paint38_linear_603_260" x1="329.279" y1="119.66" x2="329.279" y2="126.06" gradientUnits="userSpaceOnUse">
<stop stop-color="#760074"/>
<stop offset="1" stop-color="#252D78"/>
</linearGradient>
<linearGradient id="paint39_linear_603_260" x1="332.75" y1="115.28" x2="332.75" y2="126.161" gradientUnits="userSpaceOnUse">
<stop stop-color="#760074"/>
<stop offset="1" stop-color="#252D78"/>
</linearGradient>
<linearGradient id="paint40_linear_603_260" x1="364.83" y1="31.5327" x2="364.83" y2="125.017" gradientUnits="userSpaceOnUse">
<stop stop-color="#760074"/>
<stop offset="1" stop-color="#252D78"/>
</linearGradient>
<linearGradient id="paint41_linear_603_260" x1="391.852" y1="276.615" x2="391.852" y2="284.21" gradientUnits="userSpaceOnUse">
<stop stop-color="#760074"/>
<stop offset="1" stop-color="#252D78"/>
</linearGradient>
<linearGradient id="paint42_linear_603_260" x1="244.672" y1="351.293" x2="244.672" y2="376.79" gradientUnits="userSpaceOnUse">
<stop stop-color="#760074"/>
<stop offset="1" stop-color="#252D78"/>
</linearGradient>
</defs>
</svg>
