<svg width="512" height="484" viewBox="0 0 512 484" fill="none" xmlns="http://www.w3.org/2000/svg">
<g id="Group">
<g id="Group_2">
<path id="Vector" d="M56.3602 191.305H15.6953C7.02745 191.305 0 184.277 0 175.61V79.4801C0 70.8113 7.02745 63.7838 15.6953 63.7838H56.3602V191.305Z" fill="url(#paint0_linear)"/>
<path id="Vector_2" d="M56.3602 420.216H15.6953C7.02745 420.216 0 413.189 0 404.52V308.39C0 299.721 7.02745 292.695 15.6953 292.695H56.3602V420.216Z" fill="url(#paint1_linear)"/>
</g>
<path id="Vector_3" d="M466.297 483.91H73.8826C48.642 483.91 28.1801 463.448 28.1801 438.207V45.7926C28.1801 20.552 48.642 0.0900269 73.8826 0.0900269H466.297C491.538 0.0900269 512 20.552 512 45.7926V438.207C512 463.448 491.538 483.91 466.297 483.91Z" fill="url(#paint2_linear)"/>
<path id="Vector_4" d="M270.089 311.926C308.709 311.926 340.016 280.619 340.016 241.999C340.016 203.379 308.709 172.072 270.089 172.072C231.469 172.072 200.162 203.379 200.162 241.999C200.162 280.619 231.469 311.926 270.089 311.926Z" fill="url(#paint3_angular)"/>
<g id="Group_3">
<g id="Group_4">
<path id="Vector_5" d="M219.288 326.854L149.217 396.925C139.811 406.32 124.567 406.32 115.162 396.925C105.767 387.519 105.767 372.275 115.162 362.87L185.233 292.799C193.605 306.762 205.326 318.482 219.288 326.854Z" fill="url(#paint4_linear)"/>
<path id="Vector_6" d="M432.064 104.099C432.064 110.261 429.708 116.424 425.015 121.127L354.945 191.198C346.572 177.236 334.851 165.515 320.89 157.142L390.96 87.0718C400.366 77.6771 415.611 77.6771 425.015 87.0718C429.708 91.7752 432.064 97.9372 432.064 104.099V104.099Z" fill="url(#paint5_linear)"/>
<path id="Vector_7" d="M149.217 87.0718L219.288 157.142C205.326 165.515 193.605 177.236 185.233 191.198L115.162 121.127C105.767 111.721 105.767 96.4765 115.162 87.0718C124.568 77.6771 139.812 77.6771 149.217 87.0718V87.0718Z" fill="url(#paint6_linear)"/>
<path id="Vector_8" d="M425.015 396.925C420.313 401.617 414.15 403.974 407.988 403.974C401.826 403.974 395.663 401.617 390.96 396.925L320.89 326.854C334.851 318.482 346.572 306.761 354.945 292.799L425.015 362.87C434.41 372.276 434.41 387.52 425.015 396.925V396.925Z" fill="url(#paint7_linear)"/>
</g>
<path id="Vector_9" d="M270.089 115.319C200.123 115.319 143.409 172.033 143.409 241.999C143.409 311.965 200.123 368.679 270.089 368.679C340.055 368.679 396.769 311.965 396.769 241.999C396.769 172.033 340.055 115.319 270.089 115.319V115.319ZM270.089 304.582C235.523 304.582 207.506 276.565 207.506 241.999C207.506 207.433 235.523 179.416 270.089 179.416C304.655 179.416 332.672 207.433 332.672 241.999C332.672 276.565 304.655 304.582 270.089 304.582Z" fill="url(#paint8_linear)"/>
<path id="Vector_10" d="M270.089 340.89C324.706 340.89 368.98 296.616 368.98 241.999C368.98 187.382 324.706 143.108 270.089 143.108C215.472 143.108 171.198 187.382 171.198 241.999C171.198 296.616 215.472 340.89 270.089 340.89ZM270.089 179.414C304.655 179.414 332.673 207.432 332.673 241.998C332.673 276.564 304.655 304.581 270.089 304.581C235.523 304.581 207.506 276.564 207.506 241.998C207.506 207.432 235.523 179.414 270.089 179.414V179.414Z" fill="url(#paint9_linear)"/>
</g>
<path id="Vector_11" d="M457.734 311.927C449.152 311.927 442.194 304.97 442.194 296.388V187.613C442.194 179.03 449.152 172.074 457.733 172.074C466.316 172.074 473.272 179.031 473.272 187.613V296.388C473.273 304.97 466.317 311.927 457.734 311.927V311.927Z" fill="url(#paint10_linear)"/>
</g>
<defs>
<linearGradient id="paint0_linear" x1="7.32562" y1="127.545" x2="26.0949" y2="127.545" gradientUnits="userSpaceOnUse">
<stop stop-color="#760074"/>
<stop offset="1" stop-color="#252D78"/>
</linearGradient>
<linearGradient id="paint1_linear" x1="7.32562" y1="356.455" x2="26.0949" y2="356.455" gradientUnits="userSpaceOnUse">
<stop stop-color="#760074"/>
<stop offset="1" stop-color="#252D78"/>
</linearGradient>
<linearGradient id="paint2_linear" x1="130.118" y1="102.028" x2="474.738" y2="446.647" gradientUnits="userSpaceOnUse">
<stop stop-color="#760074"/>
<stop offset="1" stop-color="#252D78"/>
</linearGradient>
<radialGradient id="paint3_angular" cx="0" cy="0" r="1" gradientUnits="userSpaceOnUse" gradientTransform="translate(260.007 231.917) rotate(-135) scale(53.3368)">
<stop stop-color="#760074"/>
<stop offset="1" stop-color="#252D78"/>
</radialGradient>
<linearGradient id="paint4_linear" x1="147.761" y1="342.426" x2="171.278" y2="365.943" gradientUnits="userSpaceOnUse">
<stop stop-color="#E3E5E4"/>
<stop offset="1" stop-color="#CBD0E4"/>
</linearGradient>
<linearGradient id="paint5_linear" x1="370.516" y1="119.67" x2="394.033" y2="143.188" gradientUnits="userSpaceOnUse">
<stop stop-color="#E3E5E4"/>
<stop offset="1" stop-color="#CBD0E4"/>
</linearGradient>
<linearGradient id="paint6_linear" x1="166.533" y1="122.799" x2="139.238" y2="150.095" gradientUnits="userSpaceOnUse">
<stop stop-color="#E3E5E4"/>
<stop offset="1" stop-color="#CBD0E4"/>
</linearGradient>
<linearGradient id="paint7_linear" x1="389.289" y1="345.554" x2="361.993" y2="372.85" gradientUnits="userSpaceOnUse">
<stop stop-color="#E3E5E4"/>
<stop offset="1" stop-color="#CBD0E4"/>
</linearGradient>
<linearGradient id="paint8_linear" x1="223.028" y1="194.938" x2="320.044" y2="291.954" gradientUnits="userSpaceOnUse">
<stop stop-color="#EBEFF0"/>
<stop offset="1" stop-color="#E3E5E4"/>
</linearGradient>
<linearGradient id="paint9_linear" x1="306.827" y1="278.736" x2="231.092" y2="203.002" gradientUnits="userSpaceOnUse">
<stop stop-color="#E3E5E4"/>
<stop offset="1" stop-color="#CBD0E4"/>
</linearGradient>
<linearGradient id="paint10_linear" x1="454.129" y1="242" x2="470.591" y2="242" gradientUnits="userSpaceOnUse">
<stop stop-color="#E3E5E4"/>
<stop offset="1" stop-color="#CBD0E4"/>
</linearGradient>
</defs>
</svg>
